<svg width="1107" height="120" viewBox="0 0 1107 120" fill="none" xmlns="http://www.w3.org/2000/svg">
<path d="M1091 38V100L16 100V38" stroke="url(#paint0_linear_2178_2776)" stroke-width="3"/>
<path d="M1092 117L732 117" stroke="url(#paint1_linear_2178_2776)" stroke-width="5"/>
<path d="M242 117L16 117" stroke="url(#paint2_linear_2178_2776)" stroke-width="5"/>
<path d="M444 117L282 117" stroke="url(#paint3_linear_2178_2776)" stroke-width="5"/>
<path d="M1076 82L989 82" stroke="url(#paint4_linear_2178_2776)" stroke-width="5"/>
<path d="M596 82L509 82" stroke="url(#paint5_linear_2178_2776)" stroke-width="5"/>
<path d="M836 82L749 82" stroke="url(#paint6_linear_2178_2776)" stroke-width="5"/>
<path d="M356 82L269 82" stroke="url(#paint7_linear_2178_2776)" stroke-width="5"/>
<path d="M956 82L869 82" stroke="url(#paint8_linear_2178_2776)" stroke-width="5"/>
<path d="M476 82L389 82" stroke="url(#paint9_linear_2178_2776)" stroke-width="5"/>
<path d="M716 82L629 82" stroke="url(#paint10_linear_2178_2776)" stroke-width="5"/>
<path d="M236 82L149 82" stroke="url(#paint11_linear_2178_2776)" stroke-width="5"/>
<path d="M116 82L29 82" stroke="url(#paint12_linear_2178_2776)" stroke-width="5"/>
<rect x="1105.75" y="30.75" width="28.5" height="28.5" transform="rotate(-180 1105.75 30.75)" stroke="url(#paint13_linear_2178_2776)" stroke-width="2.5"/>
<rect x="30.75" y="30.75" width="29.5" height="29.5" transform="rotate(-180 30.75 30.75)" stroke="url(#paint14_linear_2178_2776)" stroke-width="2.5"/>
<rect x="1101" y="26" width="20" height="20" transform="rotate(-180 1101 26)" fill="url(#paint15_linear_2178_2776)"/>
<rect x="26" y="26" width="20" height="20" transform="rotate(-180 26 26)" fill="url(#paint16_linear_2178_2776)"/>
<defs>
<linearGradient id="paint0_linear_2178_2776" x1="1091" y1="100" x2="16" y2="38" gradientUnits="userSpaceOnUse">
<stop stop-color="#FC39FC"/>
<stop offset="1" stop-color="#428AE0"/>
</linearGradient>
<linearGradient id="paint1_linear_2178_2776" x1="1092" y1="117" x2="732" y2="117" gradientUnits="userSpaceOnUse">
<stop stop-color="#FC39FC"/>
<stop offset="1" stop-color="#428AE0"/>
</linearGradient>
<linearGradient id="paint2_linear_2178_2776" x1="242" y1="117" x2="120.63" y2="117" gradientUnits="userSpaceOnUse">
<stop stop-color="#FC39FC"/>
<stop offset="1" stop-color="#428AE0"/>
</linearGradient>
<linearGradient id="paint3_linear_2178_2776" x1="444" y1="117" x2="357" y2="117" gradientUnits="userSpaceOnUse">
<stop stop-color="#FC39FC"/>
<stop offset="1" stop-color="#428AE0"/>
</linearGradient>
<linearGradient id="paint4_linear_2178_2776" x1="1076" y1="82" x2="989" y2="82" gradientUnits="userSpaceOnUse">
<stop stop-color="#FC39FC"/>
<stop offset="1" stop-color="#428AE0"/>
</linearGradient>
<linearGradient id="paint5_linear_2178_2776" x1="596" y1="82" x2="509" y2="82" gradientUnits="userSpaceOnUse">
<stop stop-color="#FC39FC"/>
<stop offset="1" stop-color="#428AE0"/>
</linearGradient>
<linearGradient id="paint6_linear_2178_2776" x1="836" y1="82" x2="749" y2="82" gradientUnits="userSpaceOnUse">
<stop stop-color="#FC39FC"/>
<stop offset="1" stop-color="#428AE0"/>
</linearGradient>
<linearGradient id="paint7_linear_2178_2776" x1="356" y1="82" x2="269" y2="82" gradientUnits="userSpaceOnUse">
<stop stop-color="#FC39FC"/>
<stop offset="1" stop-color="#428AE0"/>
</linearGradient>
<linearGradient id="paint8_linear_2178_2776" x1="956" y1="82" x2="869" y2="82" gradientUnits="userSpaceOnUse">
<stop stop-color="#FC39FC"/>
<stop offset="1" stop-color="#428AE0"/>
</linearGradient>
<linearGradient id="paint9_linear_2178_2776" x1="476" y1="82" x2="389" y2="82" gradientUnits="userSpaceOnUse">
<stop stop-color="#FC39FC"/>
<stop offset="1" stop-color="#428AE0"/>
</linearGradient>
<linearGradient id="paint10_linear_2178_2776" x1="716" y1="82" x2="629" y2="82" gradientUnits="userSpaceOnUse">
<stop stop-color="#FC39FC"/>
<stop offset="1" stop-color="#428AE0"/>
</linearGradient>
<linearGradient id="paint11_linear_2178_2776" x1="236" y1="82" x2="149" y2="82" gradientUnits="userSpaceOnUse">
<stop stop-color="#FC39FC"/>
<stop offset="1" stop-color="#428AE0"/>
</linearGradient>
<linearGradient id="paint12_linear_2178_2776" x1="116" y1="82" x2="29" y2="82" gradientUnits="userSpaceOnUse">
<stop stop-color="#FC39FC"/>
<stop offset="1" stop-color="#428AE0"/>
</linearGradient>
<linearGradient id="paint13_linear_2178_2776" x1="1122.5" y1="32" x2="1122.5" y2="63" gradientUnits="userSpaceOnUse">
<stop stop-color="#FC39FC"/>
<stop offset="1" stop-color="#428AE0"/>
</linearGradient>
<linearGradient id="paint14_linear_2178_2776" x1="48" y1="32" x2="48" y2="64" gradientUnits="userSpaceOnUse">
<stop stop-color="#FC39FC"/>
<stop offset="1" stop-color="#428AE0"/>
</linearGradient>
<linearGradient id="paint15_linear_2178_2776" x1="1101" y1="26" x2="1121" y2="46" gradientUnits="userSpaceOnUse">
<stop stop-color="#FC39FC"/>
<stop offset="1" stop-color="#428AE0"/>
</linearGradient>
<linearGradient id="paint16_linear_2178_2776" x1="26" y1="26" x2="46" y2="46" gradientUnits="userSpaceOnUse">
<stop stop-color="#FC39FC"/>
<stop offset="1" stop-color="#428AE0"/>
</linearGradient>
</defs>
</svg>
