<svg width="1107" height="120" viewBox="0 0 1107 120" fill="none" xmlns="http://www.w3.org/2000/svg">
<path d="M16 82V20H1091V82" stroke="url(#paint0_linear_2178_2764)" stroke-width="3"/>
<path d="M15 3L375 3" stroke="url(#paint1_linear_2178_2764)" stroke-width="5"/>
<path d="M865 3H1091" stroke="url(#paint2_linear_2178_2764)" stroke-width="5"/>
<path d="M663 3H825" stroke="url(#paint3_linear_2178_2764)" stroke-width="5"/>
<path d="M31 38H118" stroke="url(#paint4_linear_2178_2764)" stroke-width="5"/>
<path d="M511 38H598" stroke="url(#paint5_linear_2178_2764)" stroke-width="5"/>
<path d="M271 38H358" stroke="url(#paint6_linear_2178_2764)" stroke-width="5"/>
<path d="M751 38H838" stroke="url(#paint7_linear_2178_2764)" stroke-width="5"/>
<path d="M151 38H238" stroke="url(#paint8_linear_2178_2764)" stroke-width="5"/>
<path d="M631 38H718" stroke="url(#paint9_linear_2178_2764)" stroke-width="5"/>
<path d="M391 38H478" stroke="url(#paint10_linear_2178_2764)" stroke-width="5"/>
<path d="M871 38H958" stroke="url(#paint11_linear_2178_2764)" stroke-width="5"/>
<path d="M991 38H1078" stroke="url(#paint12_linear_2178_2764)" stroke-width="5"/>
<rect x="1.25" y="89.25" width="28.5" height="28.5" stroke="url(#paint13_linear_2178_2764)" stroke-width="2.5"/>
<rect x="1076.25" y="89.25" width="29.5" height="29.5" stroke="url(#paint14_linear_2178_2764)" stroke-width="2.5"/>
<rect x="6" y="94" width="20" height="20" fill="url(#paint15_linear_2178_2764)"/>
<rect x="1081" y="94" width="20" height="20" fill="url(#paint16_linear_2178_2764)"/>
<defs>
<linearGradient id="paint0_linear_2178_2764" x1="16" y1="20" x2="1091" y2="82" gradientUnits="userSpaceOnUse">
<stop stop-color="#FC39FC"/>
<stop offset="1" stop-color="#428AE0"/>
</linearGradient>
<linearGradient id="paint1_linear_2178_2764" x1="15" y1="3" x2="375" y2="3" gradientUnits="userSpaceOnUse">
<stop stop-color="#FC39FC"/>
<stop offset="1" stop-color="#428AE0"/>
</linearGradient>
<linearGradient id="paint2_linear_2178_2764" x1="865" y1="3" x2="986.37" y2="3" gradientUnits="userSpaceOnUse">
<stop stop-color="#FC39FC"/>
<stop offset="1" stop-color="#428AE0"/>
</linearGradient>
<linearGradient id="paint3_linear_2178_2764" x1="663" y1="3" x2="750" y2="3" gradientUnits="userSpaceOnUse">
<stop stop-color="#FC39FC"/>
<stop offset="1" stop-color="#428AE0"/>
</linearGradient>
<linearGradient id="paint4_linear_2178_2764" x1="31" y1="38" x2="118" y2="38" gradientUnits="userSpaceOnUse">
<stop stop-color="#FC39FC"/>
<stop offset="1" stop-color="#428AE0"/>
</linearGradient>
<linearGradient id="paint5_linear_2178_2764" x1="511" y1="38" x2="598" y2="38" gradientUnits="userSpaceOnUse">
<stop stop-color="#FC39FC"/>
<stop offset="1" stop-color="#428AE0"/>
</linearGradient>
<linearGradient id="paint6_linear_2178_2764" x1="271" y1="38" x2="358" y2="38" gradientUnits="userSpaceOnUse">
<stop stop-color="#FC39FC"/>
<stop offset="1" stop-color="#428AE0"/>
</linearGradient>
<linearGradient id="paint7_linear_2178_2764" x1="751" y1="38" x2="838" y2="38" gradientUnits="userSpaceOnUse">
<stop stop-color="#FC39FC"/>
<stop offset="1" stop-color="#428AE0"/>
</linearGradient>
<linearGradient id="paint8_linear_2178_2764" x1="151" y1="38" x2="238" y2="38" gradientUnits="userSpaceOnUse">
<stop stop-color="#FC39FC"/>
<stop offset="1" stop-color="#428AE0"/>
</linearGradient>
<linearGradient id="paint9_linear_2178_2764" x1="631" y1="38" x2="718" y2="38" gradientUnits="userSpaceOnUse">
<stop stop-color="#FC39FC"/>
<stop offset="1" stop-color="#428AE0"/>
</linearGradient>
<linearGradient id="paint10_linear_2178_2764" x1="391" y1="38" x2="478" y2="38" gradientUnits="userSpaceOnUse">
<stop stop-color="#FC39FC"/>
<stop offset="1" stop-color="#428AE0"/>
</linearGradient>
<linearGradient id="paint11_linear_2178_2764" x1="871" y1="38" x2="958" y2="38" gradientUnits="userSpaceOnUse">
<stop stop-color="#FC39FC"/>
<stop offset="1" stop-color="#428AE0"/>
</linearGradient>
<linearGradient id="paint12_linear_2178_2764" x1="991" y1="38" x2="1078" y2="38" gradientUnits="userSpaceOnUse">
<stop stop-color="#FC39FC"/>
<stop offset="1" stop-color="#428AE0"/>
</linearGradient>
<linearGradient id="paint13_linear_2178_2764" x1="15.5" y1="88" x2="15.5" y2="119" gradientUnits="userSpaceOnUse">
<stop stop-color="#FC39FC"/>
<stop offset="1" stop-color="#428AE0"/>
</linearGradient>
<linearGradient id="paint14_linear_2178_2764" x1="1091" y1="88" x2="1091" y2="120" gradientUnits="userSpaceOnUse">
<stop stop-color="#FC39FC"/>
<stop offset="1" stop-color="#428AE0"/>
</linearGradient>
<linearGradient id="paint15_linear_2178_2764" x1="6" y1="94" x2="26" y2="114" gradientUnits="userSpaceOnUse">
<stop stop-color="#FC39FC"/>
<stop offset="1" stop-color="#428AE0"/>
</linearGradient>
<linearGradient id="paint16_linear_2178_2764" x1="1081" y1="94" x2="1101" y2="114" gradientUnits="userSpaceOnUse">
<stop stop-color="#FC39FC"/>
<stop offset="1" stop-color="#428AE0"/>
</linearGradient>
</defs>
</svg>
