<svg width="413" height="201" viewBox="0 0 413 201" fill="none" xmlns="http://www.w3.org/2000/svg">
<path d="M54.7012 2H411.058V153.398L359 198.5" stroke="url(#paint0_linear_2028_2333)" stroke-width="3" stroke-linecap="round"/>
<path d="M358.357 199L2.00073 199V47.6019L54.2175 2" stroke="url(#paint1_linear_2028_2333)" stroke-width="3" stroke-linecap="round"/>
<path d="M0 0H46L0 40V0Z" fill="url(#paint2_linear_2028_2333)"/>
<path d="M413 201H367L413 161V201Z" fill="url(#paint3_linear_2028_2333)"/>
<path d="M10 50V191H355" stroke="url(#paint4_linear_2028_2333)" stroke-width="3" stroke-linecap="round"/>
<path d="M403 151V10L58 10" stroke="url(#paint5_linear_2028_2333)" stroke-width="3" stroke-linecap="round"/>
<defs>
<linearGradient id="paint0_linear_2028_2333" x1="232.88" y1="2" x2="232.88" y2="199" gradientUnits="userSpaceOnUse">
<stop stop-color="#FC39FC"/>
<stop offset="1" stop-color="#337EF0"/>
</linearGradient>
<linearGradient id="paint1_linear_2028_2333" x1="180.179" y1="199" x2="180.179" y2="2" gradientUnits="userSpaceOnUse">
<stop stop-color="#FC39FC"/>
<stop offset="1" stop-color="#337EF0"/>
</linearGradient>
<linearGradient id="paint2_linear_2028_2333" x1="23" y1="0" x2="23" y2="40" gradientUnits="userSpaceOnUse">
<stop stop-color="#FC39FC"/>
<stop offset="1" stop-color="#337EF0"/>
</linearGradient>
<linearGradient id="paint3_linear_2028_2333" x1="390" y1="201" x2="390" y2="161" gradientUnits="userSpaceOnUse">
<stop stop-color="#FC39FC"/>
<stop offset="1" stop-color="#337EF0"/>
</linearGradient>
<linearGradient id="paint4_linear_2028_2333" x1="10" y1="50" x2="355" y2="191" gradientUnits="userSpaceOnUse">
<stop stop-color="#FC39FC"/>
<stop offset="1" stop-color="#337EF0"/>
</linearGradient>
<linearGradient id="paint5_linear_2028_2333" x1="403" y1="151" x2="58" y2="10" gradientUnits="userSpaceOnUse">
<stop stop-color="#FC39FC"/>
<stop offset="1" stop-color="#337EF0"/>
</linearGradient>
</defs>
</svg>
