<svg width="16" height="14" viewBox="0 0 16 14" fill="none" xmlns="http://www.w3.org/2000/svg">
<path d="M15.946 2.15719C15.371 2.41152 14.7641 2.57048 14.1252 2.66586C14.7641 2.28436 15.2752 1.68031 15.4988 0.949105C14.8919 1.29881 14.2211 1.55315 13.4863 1.71211C12.9113 1.10806 12.0808 0.726562 11.1863 0.726562C9.46136 0.726562 8.05581 2.1254 8.05581 3.84215C8.05581 4.09648 8.08775 4.31903 8.15164 4.54157C5.56416 4.4144 3.23222 3.17452 1.66695 1.26702C1.4114 1.7439 1.25168 2.25256 1.25168 2.82482C1.25168 3.90573 1.79473 4.85949 2.65723 5.43174C2.14612 5.39994 1.66695 5.27278 1.21973 5.05024V5.08203C1.21973 6.60803 2.30584 7.8797 3.74333 8.16582C3.48778 8.22941 3.20028 8.2612 2.91278 8.2612C2.72112 8.2612 2.49751 8.22941 2.30584 8.19762C2.72112 9.43749 3.87111 10.3595 5.24471 10.3595C4.15861 11.186 2.81695 11.6947 1.34751 11.6947C1.09196 11.6947 0.836403 11.6947 0.612793 11.6629C2.01834 12.5531 3.6475 13.0617 5.43638 13.0617C11.2183 13.0617 14.3808 8.29299 14.3808 4.16007C14.3808 4.0329 14.3808 3.87394 14.3808 3.74678C14.9877 3.33348 15.5308 2.79302 15.946 2.15719Z" fill="url(#paint0_linear_2113_6321)"/>
<defs>
<linearGradient id="paint0_linear_2113_6321" x1="1.38855" y1="0.688477" x2="13.8886" y2="13.6885" gradientUnits="userSpaceOnUse">
<stop stop-color="#FC39FC"/>
<stop offset="1" stop-color="#337EF0"/>
</linearGradient>
</defs>
</svg>
