<svg width="21" height="21" viewBox="0 0 21 21" fill="none" xmlns="http://www.w3.org/2000/svg">
<path d="M13.8706 5.03848C13.3009 4.38816 12.987 3.553 12.9872 2.68848H10.4122V13.0218C10.3924 13.581 10.1563 14.1107 9.75371 14.4993C9.35112 14.8879 8.81345 15.1051 8.25391 15.1051C7.07057 15.1051 6.08724 14.1385 6.08724 12.9385C6.08724 11.5051 7.47057 10.4301 8.89557 10.8718V8.23848C6.02057 7.85514 3.50391 10.0885 3.50391 12.9385C3.50391 15.7135 5.80391 17.6885 8.24557 17.6885C10.8622 17.6885 12.9872 15.5635 12.9872 12.9385V7.69681C14.0314 8.44668 15.285 8.84902 16.5706 8.84681V6.27181C16.5706 6.27181 15.0039 6.34681 13.8706 5.03848Z" fill="url(#paint0_linear_2113_6335)"/>
<defs>
<linearGradient id="paint0_linear_2113_6335" x1="3.38867" y1="3.18848" x2="16.3887" y2="18.1885" gradientUnits="userSpaceOnUse">
<stop stop-color="#FC39FC"/>
<stop offset="1" stop-color="#337EF0"/>
</linearGradient>
</defs>
</svg>
