<svg width="25" height="25" viewBox="0 0 25 25" fill="none" xmlns="http://www.w3.org/2000/svg">
<path d="M12.5007 2.08325C18.2538 2.08325 22.9173 6.74679 22.9173 12.4999C22.9173 18.253 18.2538 22.9166 12.5007 22.9166C10.6598 22.9196 8.85135 22.4324 7.26108 21.5051L2.08817 22.9166L3.4965 17.7416C2.56847 16.1508 2.08092 14.3416 2.084 12.4999C2.084 6.74679 6.74754 2.08325 12.5007 2.08325ZM8.95067 7.60409L8.74233 7.61242C8.60746 7.62063 8.47564 7.65607 8.35483 7.71659C8.24183 7.78057 8.13868 7.86057 8.04858 7.95409C7.92358 8.07179 7.85275 8.17388 7.77671 8.27283C7.39142 8.77378 7.18397 9.38879 7.18712 10.0208C7.18921 10.5312 7.32254 11.028 7.53087 11.4926C7.95692 12.4322 8.65796 13.427 9.58296 14.3489C9.80587 14.5708 10.0246 14.7937 10.26 15.001C11.4094 16.0129 12.7791 16.7427 14.26 17.1322L14.8517 17.2228C15.0444 17.2333 15.2371 17.2187 15.4309 17.2093C15.7342 17.1936 16.0305 17.1115 16.2986 16.9687C16.435 16.8984 16.5681 16.8219 16.6975 16.7395C16.6975 16.7395 16.7423 16.7103 16.8277 16.6458C16.9684 16.5416 17.0548 16.4676 17.1715 16.3458C17.258 16.2562 17.333 16.151 17.3902 16.0312C17.4715 15.8614 17.5527 15.5374 17.5861 15.2676C17.6111 15.0614 17.6038 14.9489 17.6007 14.8791C17.5965 14.7676 17.5038 14.652 17.4027 14.603L16.7965 14.3312C16.7965 14.3312 15.8902 13.9364 15.3361 13.6843C15.2781 13.659 15.216 13.6445 15.1527 13.6416C15.0815 13.6343 15.0095 13.6423 14.9416 13.6651C14.8736 13.6879 14.8114 13.725 14.759 13.7739C14.7538 13.7718 14.684 13.8312 13.9309 14.7437C13.8876 14.8018 13.8281 14.8457 13.7598 14.8698C13.6916 14.8939 13.6177 14.8971 13.5475 14.8791C13.4797 14.8609 13.4132 14.8379 13.3486 14.8103C13.2194 14.7562 13.1746 14.7353 13.0861 14.6978C12.4882 14.4369 11.9347 14.0844 11.4455 13.653C11.3142 13.5385 11.1923 13.4135 11.0673 13.2926C10.6575 12.9002 10.3004 12.4562 10.0048 11.9718L9.94337 11.8728C9.89923 11.8063 9.86354 11.7346 9.83712 11.6593C9.79754 11.5062 9.90067 11.3833 9.90067 11.3833C9.90067 11.3833 10.1538 11.1062 10.2715 10.9562C10.3861 10.8103 10.483 10.6687 10.5455 10.5676C10.6684 10.3697 10.7069 10.1666 10.6423 10.0093C10.3507 9.29679 10.0486 8.58742 9.73817 7.88325C9.67671 7.74367 9.49442 7.64367 9.32879 7.62388C9.27254 7.61763 9.21629 7.61138 9.16004 7.60721C9.02015 7.60026 8.87997 7.60165 8.74025 7.61138L8.94962 7.60304L8.95067 7.60409Z" fill="url(#paint0_linear_1998_5101)"/>
<defs>
<linearGradient id="paint0_linear_1998_5101" x1="12.5007" y1="2.08325" x2="12.5007" y2="22.9166" gradientUnits="userSpaceOnUse">
<stop stop-color="#FC39FC"/>
<stop offset="1" stop-color="#337EF0"/>
</linearGradient>
</defs>
</svg>
