<svg width="21" height="22" viewBox="0 0 21 22" fill="none" xmlns="http://www.w3.org/2000/svg">
<path d="M11.3995 1.77403C12.038 1.77158 12.6766 1.77799 13.3149 1.79328L13.4846 1.7994C13.6806 1.8064 13.874 1.81515 14.1076 1.82565C15.0386 1.8694 15.6739 2.0164 16.2313 2.23253C16.8088 2.45478 17.2953 2.75578 17.7818 3.24228C18.2266 3.67943 18.5709 4.20823 18.7906 4.7919C19.0068 5.34928 19.1538 5.9854 19.1975 6.9164C19.208 7.14915 19.2168 7.3434 19.2238 7.5394L19.229 7.70915C19.2446 8.34719 19.2513 8.98542 19.2491 9.62365L19.25 10.2764V11.4227C19.2522 12.0612 19.2455 12.6997 19.2299 13.338L19.2246 13.5078C19.2176 13.7038 19.2089 13.8972 19.1984 14.1308C19.1546 15.0618 19.0059 15.697 18.7906 16.2544C18.5716 16.8387 18.2272 17.3679 17.7818 17.8049C17.3442 18.2497 16.8152 18.5939 16.2313 18.8138C15.6739 19.0299 15.0386 19.1769 14.1076 19.2207C13.874 19.2312 13.6806 19.2399 13.4846 19.2469L13.3149 19.2522C12.6766 19.2677 12.038 19.2744 11.3995 19.2723L10.7468 19.2732H9.60139C8.96287 19.2753 8.32435 19.2686 7.68602 19.253L7.51627 19.2478C7.30855 19.2402 7.10088 19.2315 6.89327 19.2215C5.96227 19.1778 5.32702 19.029 4.76877 18.8138C4.18486 18.5945 3.65597 18.2501 3.21914 17.8049C2.77381 17.3677 2.42921 16.8385 2.20939 16.2544C1.99327 15.697 1.84627 15.0618 1.80252 14.1308C1.79277 13.9232 1.78402 13.7155 1.77627 13.5078L1.77189 13.338C1.75576 12.6997 1.74847 12.0612 1.75002 11.4227V9.62365C1.74757 8.98543 1.75399 8.3472 1.76927 7.70915L1.77539 7.5394C1.78239 7.3434 1.79114 7.14915 1.80164 6.9164C1.84539 5.98453 1.99239 5.35015 2.20852 4.7919C2.42847 4.20794 2.77374 3.67929 3.22002 3.24315C3.65655 2.79756 4.18511 2.45265 4.76877 2.23253C5.32702 2.0164 5.96139 1.8694 6.89327 1.82565L7.51627 1.7994L7.68602 1.79503C8.32405 1.7789 8.96228 1.77161 9.60052 1.77315L11.3995 1.77403ZM10.5 6.14903C9.92033 6.14083 9.3448 6.24792 8.80687 6.46409C8.26894 6.68025 7.77933 7.00117 7.36651 7.4082C6.95368 7.81523 6.62587 8.30025 6.40212 8.83507C6.17837 9.36989 6.06315 9.94385 6.06315 10.5236C6.06315 11.1033 6.17837 11.6773 6.40212 12.2121C6.62587 12.7469 6.95368 13.232 7.36651 13.639C7.77933 14.046 8.26894 14.3669 8.80687 14.5831C9.3448 14.7993 9.92033 14.9064 10.5 14.8982C11.6603 14.8982 12.7731 14.4372 13.5936 13.6167C14.4141 12.7963 14.875 11.6835 14.875 10.5232C14.875 9.36283 14.4141 8.25003 13.5936 7.42956C12.7731 6.60909 11.6603 6.14903 10.5 6.14903ZM10.5 7.89903C10.8487 7.8926 11.1952 7.95572 11.5192 8.08471C11.8432 8.21369 12.1383 8.40595 12.3872 8.65025C12.6361 8.89456 12.8338 9.186 12.9688 9.50758C13.1038 9.82915 13.1733 10.1744 13.1734 10.5231C13.1734 10.8719 13.104 11.2172 12.9691 11.5388C12.8342 11.8604 12.6366 12.1519 12.3878 12.3963C12.139 12.6407 11.844 12.833 11.52 12.9621C11.196 13.0912 10.8496 13.1545 10.5009 13.1482C9.8047 13.1482 9.13702 12.8716 8.64474 12.3793C8.15245 11.887 7.87589 11.2193 7.87589 10.5232C7.87589 9.82696 8.15245 9.15928 8.64474 8.667C9.13702 8.17471 9.8047 7.89815 10.5009 7.89815L10.5 7.89903ZM15.0938 4.83653C14.8115 4.84782 14.5445 4.96791 14.3488 5.17163C14.1531 5.37534 14.0438 5.64689 14.0438 5.9294C14.0438 6.21191 14.1531 6.48346 14.3488 6.68718C14.5445 6.89089 14.8115 7.01098 15.0938 7.02228C15.3838 7.02228 15.662 6.90704 15.8672 6.70192C16.0723 6.49681 16.1875 6.21861 16.1875 5.92853C16.1875 5.63845 16.0723 5.36025 15.8672 5.15513C15.662 4.95001 15.3838 4.83478 15.0938 4.83478V4.83653Z" fill="url(#paint0_linear_2324_2521)"/>
<defs>
<linearGradient id="paint0_linear_2324_2521" x1="10.5" y1="1.77295" x2="10.5" y2="19.2735" gradientUnits="userSpaceOnUse">
<stop offset="0.0885417" stop-color="#FC39FC"/>
<stop offset="1" stop-color="#337EF0"/>
</linearGradient>
</defs>
</svg>
