<svg width="20" height="19" viewBox="0 0 20 19" fill="none" xmlns="http://www.w3.org/2000/svg">
<path d="M9.74159 1.68947C12.2236 1.68947 12.5175 1.69872 13.498 1.74322C14.0875 1.7504 14.6714 1.85813 15.2243 2.06173C15.6253 2.21563 15.9895 2.45139 16.2933 2.75382C16.5972 3.05626 16.8341 3.41867 16.9888 3.81773C17.1933 4.36802 17.3016 4.94915 17.3088 5.53585C17.3531 6.51165 17.3628 6.80417 17.3628 9.27429C17.3628 11.7444 17.3535 12.0369 17.3088 13.0127C17.3016 13.5994 17.1933 14.1806 16.9888 14.7308C16.8341 15.1299 16.5972 15.4923 16.2933 15.7948C15.9895 16.0972 15.6253 16.3329 15.2243 16.4868C14.6714 16.6904 14.0875 16.7982 13.498 16.8054C12.5179 16.8494 12.224 16.8591 9.74159 16.8591C7.25917 16.8591 6.96524 16.8499 5.9852 16.8054C5.39569 16.7982 4.81177 16.6904 4.25884 16.4868C3.85787 16.3329 3.49372 16.0972 3.18983 15.7948C2.88594 15.4923 2.64905 15.1299 2.49441 14.7308C2.28984 14.1806 2.18159 13.5994 2.17437 13.0127C2.13011 12.0369 2.12037 11.7444 2.12037 9.27429C2.12037 6.80417 2.12967 6.51165 2.17437 5.53585C2.18159 4.94915 2.28984 4.36802 2.49441 3.81773C2.64905 3.41867 2.88594 3.05626 3.18983 2.75382C3.49372 2.45139 3.85787 2.21563 4.25884 2.06173C4.81177 1.85813 5.39569 1.7504 5.9852 1.74322C6.96569 1.69916 7.25961 1.68947 9.74159 1.68947ZM9.74159 0.0224609C7.21844 0.0224609 6.90062 0.0330339 5.90907 0.0779692C5.13754 0.0932419 4.3742 0.238627 3.65152 0.507939C3.03158 0.740398 2.47007 1.10468 2.00616 1.57537C1.53279 2.03723 1.16644 2.59637 0.932723 3.21375C0.662118 3.93298 0.516036 4.69267 0.50069 5.46052C0.456425 6.44645 0.445801 6.76276 0.445801 9.27385C0.445801 11.7849 0.456425 12.1012 0.501575 13.0881C0.516921 13.8559 0.663004 14.6156 0.933608 15.3348C1.16707 15.9521 1.53311 16.5113 2.00616 16.9732C2.47032 17.444 3.03215 17.8083 3.6524 18.0406C4.37508 18.31 5.13842 18.4553 5.90995 18.4706C6.9015 18.5147 7.218 18.5261 9.74247 18.5261C12.2669 18.5261 12.5834 18.5155 13.575 18.4706C14.3465 18.4553 15.1099 18.31 15.8325 18.0406C16.4499 17.8025 17.0104 17.4388 17.4784 16.9727C17.9464 16.5066 18.3116 15.9485 18.5504 15.3339C18.8211 14.6147 18.9671 13.855 18.9825 13.0872C19.0267 12.1012 19.0374 11.7849 19.0374 9.27385C19.0374 6.76276 19.0267 6.44645 18.9816 5.45963C18.9662 4.69179 18.8202 3.9321 18.5496 3.21287C18.3161 2.59557 17.9501 2.03643 17.477 1.57449C17.0128 1.10369 16.451 0.739403 15.8308 0.507057C15.1081 0.237745 14.3447 0.0923609 13.5732 0.0770882C12.5826 0.033034 12.2647 0.0224609 9.74159 0.0224609Z" fill="url(#paint0_linear_2113_6329)"/>
<path d="M9.74138 4.52148C8.79725 4.52148 7.87432 4.80011 7.08931 5.32214C6.30429 5.84417 5.69245 6.58614 5.33114 7.45424C4.96984 8.32233 4.87531 9.27756 5.0595 10.1991C5.24369 11.1207 5.69833 11.9672 6.36593 12.6316C7.03353 13.296 7.88411 13.7485 8.8101 13.9318C9.73609 14.1151 10.6959 14.021 11.5682 13.6615C12.4404 13.3019 13.186 12.693 13.7105 11.9117C14.235 11.1304 14.515 10.2119 14.515 9.27229C14.515 8.0123 14.0121 6.80391 13.1168 5.91296C12.2216 5.02202 11.0074 4.52148 9.74138 4.52148ZM9.74138 12.3561C9.12854 12.3561 8.52946 12.1752 8.0199 11.8364C7.51033 11.4975 7.11318 11.0159 6.87865 10.4524C6.64413 9.88892 6.58277 9.26887 6.70233 8.67067C6.82189 8.07248 7.117 7.523 7.55035 7.09172C7.98369 6.66044 8.53581 6.36674 9.13688 6.24775C9.73794 6.12876 10.361 6.18983 10.9272 6.42324C11.4934 6.65664 11.9773 7.0519 12.3178 7.55903C12.6582 8.06615 12.84 8.66238 12.84 9.27229C12.84 10.0902 12.5135 10.8745 11.9324 11.4529C11.3513 12.0312 10.5632 12.3561 9.74138 12.3561Z" fill="url(#paint1_linear_2113_6329)"/>
<path d="M14.7024 5.44592C15.3185 5.44592 15.8179 4.94888 15.8179 4.33575C15.8179 3.72262 15.3185 3.22559 14.7024 3.22559C14.0863 3.22559 13.5869 3.72262 13.5869 4.33575C13.5869 4.94888 14.0863 5.44592 14.7024 5.44592Z" fill="url(#paint2_linear_2113_6329)"/>
<defs>
<linearGradient id="paint0_linear_2113_6329" x1="0.388794" y1="0.188477" x2="19.3888" y2="18.1885" gradientUnits="userSpaceOnUse">
<stop stop-color="#FC39FC"/>
<stop offset="1" stop-color="#337EF0"/>
</linearGradient>
<linearGradient id="paint1_linear_2113_6329" x1="9.74138" y1="4.52148" x2="9.74138" y2="14.0231" gradientUnits="userSpaceOnUse">
<stop stop-color="#FC39FC"/>
<stop offset="1" stop-color="#337EF0"/>
</linearGradient>
<linearGradient id="paint2_linear_2113_6329" x1="14.7024" y1="3.22559" x2="14.7024" y2="5.44592" gradientUnits="userSpaceOnUse">
<stop stop-color="#FC39FC"/>
<stop offset="1" stop-color="#337EF0"/>
</linearGradient>
</defs>
</svg>
