<svg width="18" height="18" viewBox="0 0 18 18" fill="none" xmlns="http://www.w3.org/2000/svg">
<path d="M8.94711 1.60547C12.8592 1.60547 16.0304 4.77668 16.0304 8.6888C16.0304 12.6009 12.8592 15.7721 8.94711 15.7721C7.69533 15.7742 6.46558 15.4429 5.3842 14.8123L1.86661 15.7721L2.82428 12.2531C2.19322 11.1714 1.86169 9.94113 1.86378 8.6888C1.86378 4.77668 5.03499 1.60547 8.94711 1.60547ZM6.53311 5.35964L6.39145 5.3653C6.29973 5.37089 6.2101 5.39498 6.12795 5.43614C6.05111 5.47965 5.98096 5.53404 5.9197 5.59764C5.8347 5.67768 5.78653 5.74709 5.73482 5.81439C5.47282 6.15503 5.33176 6.57323 5.3339 7.00297C5.33532 7.35005 5.42599 7.68793 5.56765 8.00384C5.85736 8.64276 6.33407 9.31922 6.96307 9.94609C7.11465 10.097 7.2634 10.2486 7.42349 10.3895C8.20506 11.0776 9.13642 11.5739 10.1435 11.8388L10.5458 11.9004C10.6769 11.9075 10.8079 11.8976 10.9397 11.8912C11.1459 11.8805 11.3474 11.8247 11.5297 11.7276C11.6225 11.6798 11.713 11.6278 11.801 11.5717C11.801 11.5717 11.8314 11.5519 11.8895 11.508C11.9852 11.4371 12.0439 11.3868 12.1233 11.304C12.1821 11.2431 12.2331 11.1715 12.272 11.0901C12.3273 10.9746 12.3825 10.7543 12.4052 10.5708C12.4222 10.4306 12.4172 10.3541 12.4151 10.3066C12.4123 10.2308 12.3492 10.1522 12.2805 10.1189L11.8683 9.93405C11.8683 9.93405 11.252 9.66559 10.8752 9.49418C10.8358 9.47696 10.7935 9.46712 10.7505 9.46514C10.7021 9.46016 10.6531 9.46561 10.6069 9.48113C10.5607 9.49664 10.5184 9.52186 10.4828 9.55509C10.4792 9.55368 10.4318 9.59405 9.91965 10.2146C9.89026 10.254 9.84977 10.2839 9.80335 10.3003C9.75692 10.3167 9.70667 10.3189 9.65899 10.3066C9.61284 10.2943 9.56763 10.2786 9.5237 10.2599C9.43586 10.2231 9.4054 10.2089 9.3452 10.1834C8.93866 10.006 8.56227 9.76628 8.22957 9.47293C8.14032 9.39501 8.05745 9.31001 7.97245 9.22784C7.69378 8.96097 7.45092 8.65906 7.24995 8.32968L7.20815 8.26238C7.17814 8.21717 7.15387 8.16839 7.1359 8.11718C7.10899 8.01305 7.17911 7.92947 7.17911 7.92947C7.17911 7.92947 7.35124 7.74105 7.43128 7.63905C7.5092 7.53989 7.57507 7.44355 7.61757 7.37484C7.70115 7.24026 7.72736 7.10214 7.68345 6.99518C7.48511 6.51068 7.2797 6.0283 7.06861 5.54947C7.02682 5.45455 6.90286 5.38655 6.79024 5.37309C6.75199 5.36884 6.71374 5.36459 6.67549 5.36176C6.58036 5.35703 6.48504 5.35798 6.39003 5.36459L6.5324 5.35893L6.53311 5.35964Z" fill="url(#paint0_linear_2113_4846)"/>
<defs>
<linearGradient id="paint0_linear_2113_4846" x1="8.94711" y1="1.60547" x2="8.94711" y2="15.7721" gradientUnits="userSpaceOnUse">
<stop stop-color="#FC39FC"/>
<stop offset="1" stop-color="#337EF0"/>
</linearGradient>
</defs>
</svg>
