<svg width="18" height="17" viewBox="0 0 18 17" fill="none" xmlns="http://www.w3.org/2000/svg">
<path d="M14.3896 5.66634L8.72298 9.20801L3.05632 5.66634V4.24967L8.72298 7.79134L14.3896 4.24967M14.3896 2.83301H3.05632C2.27007 2.83301 1.63965 3.46342 1.63965 4.24967V12.7497C1.63965 13.1254 1.7889 13.4857 2.05458 13.7514C2.32026 14.0171 2.68059 14.1663 3.05632 14.1663H14.3896C14.7654 14.1663 15.1257 14.0171 15.3914 13.7514C15.6571 13.4857 15.8063 13.1254 15.8063 12.7497V4.24967C15.8063 3.87395 15.6571 3.51362 15.3914 3.24794C15.1257 2.98226 14.7654 2.83301 14.3896 2.83301Z" fill="url(#paint0_linear_2113_6309)"/>
<defs>
<linearGradient id="paint0_linear_2113_6309" x1="8.72298" y1="2.83301" x2="8.72298" y2="14.1663" gradientUnits="userSpaceOnUse">
<stop stop-color="#FC39FC"/>
<stop offset="1" stop-color="#337EF0"/>
</linearGradient>
</defs>
</svg>
