<svg width="40" height="40" viewBox="0 0 40 40" fill="none" xmlns="http://www.w3.org/2000/svg">
<path fill-rule="evenodd" clip-rule="evenodd" d="M20.0007 6.66667C17.6686 6.66624 15.3772 7.27748 13.3552 8.43938C11.3332 9.60128 9.65128 11.2732 8.47736 13.2883C7.30344 15.3033 6.67857 17.591 6.66511 19.9231C6.65166 22.2551 7.25009 24.5499 8.40067 26.5783C9.17835 25.5676 10.1781 24.7493 11.3225 24.1866C12.4669 23.624 13.7254 23.332 15.0007 23.3333H25.0007C26.2759 23.332 27.5344 23.624 28.6789 24.1866C29.8233 24.7493 30.823 25.5676 31.6007 26.5783C32.7513 24.5499 33.3497 22.2551 33.3362 19.9231C33.3228 17.591 32.6979 15.3033 31.524 13.2883C30.3501 11.2732 28.6682 9.60128 26.6461 8.43938C24.6241 7.27748 22.3327 6.66624 20.0007 6.66667ZM33.239 30.1267C35.4674 27.2216 36.6727 23.6613 36.6673 20C36.6673 10.795 29.2057 3.33334 20.0007 3.33334C10.7957 3.33334 3.334 10.795 3.334 20C3.3285 23.6613 4.53385 27.2217 6.76234 30.1267L6.754 30.1567L7.34567 30.845C8.90881 32.6725 10.8496 34.1394 13.0344 35.1444C15.2191 36.1494 17.5958 36.6688 20.0007 36.6667C23.3796 36.6729 26.6797 35.6465 29.459 33.725C30.6439 32.9064 31.7183 31.9384 32.6557 30.845L33.2473 30.1567L33.239 30.1267ZM20.0007 10C18.6746 10 17.4028 10.5268 16.4651 11.4645C15.5275 12.4022 15.0007 13.6739 15.0007 15C15.0007 16.3261 15.5275 17.5979 16.4651 18.5355C17.4028 19.4732 18.6746 20 20.0007 20C21.3268 20 22.5985 19.4732 23.5362 18.5355C24.4739 17.5979 25.0007 16.3261 25.0007 15C25.0007 13.6739 24.4739 12.4022 23.5362 11.4645C22.5985 10.5268 21.3268 10 20.0007 10Z" fill="url(#paint0_linear_1683_2324)"/>
<defs>
<linearGradient id="paint0_linear_1683_2324" x1="20.0007" y1="3.33334" x2="20.0007" y2="36.6667" gradientUnits="userSpaceOnUse">
<stop stop-color="#F574F5"/>
<stop offset="1" stop-color="#961496"/>
</linearGradient>
</defs>
</svg>
