<svg width="137" height="74" viewBox="0 0 137 74" fill="none" xmlns="http://www.w3.org/2000/svg">
<path d="M135.816 69.347C136.765 70.35 136.721 71.9323 135.718 72.8811C134.715 73.8299 133.133 73.786 132.184 72.7829L135.816 69.347ZM80.0223 14V11.5H81.0988L81.8385 12.282L80.0223 14ZM27.3333 14C27.3333 21.3638 21.3638 27.3333 14 27.3333C6.6362 27.3333 0.666665 21.3638 0.666665 14C0.666665 6.6362 6.6362 0.666667 14 0.666667C21.3638 0.666667 27.3333 6.6362 27.3333 14ZM132.184 72.7829L78.2061 15.718L81.8385 12.282L135.816 69.347L132.184 72.7829ZM80.0223 16.5H14V11.5H80.0223V16.5Z" fill="#494B7C"/>
</svg>
