<svg width="137" height="74" viewBox="0 0 137 74" fill="none" xmlns="http://www.w3.org/2000/svg">
<path d="M135.816 4.65302C136.765 3.64996 136.721 2.06765 135.718 1.11885C134.715 0.170055 133.133 0.214046 132.184 1.21711L135.816 4.65302ZM80.0223 60V62.5H81.0988L81.8385 61.718L80.0223 60ZM27.3333 60C27.3333 52.6362 21.3638 46.6667 14 46.6667C6.6362 46.6667 0.666672 52.6362 0.666672 60C0.666672 67.3638 6.6362 73.3333 14 73.3333C21.3638 73.3333 27.3333 67.3638 27.3333 60ZM132.184 1.21711L78.2061 58.282L81.8385 61.718L135.816 4.65302L132.184 1.21711ZM80.0223 57.5H14V62.5H80.0223V57.5Z" fill="#494B7C"/>
</svg>
