<svg width="137" height="74" viewBox="0 0 137 74" fill="none" xmlns="http://www.w3.org/2000/svg">
<path d="M1.62603 69.2844C0.678514 70.2887 0.724537 71.8709 1.72882 72.8184C2.73311 73.7659 4.31535 73.7199 5.26286 72.7156L1.62603 69.2844ZM57.2222 14V11.5H56.1438L55.4038 12.2844L57.2222 14ZM109.667 14C109.667 21.3638 115.636 27.3333 123 27.3333C130.364 27.3333 136.333 21.3638 136.333 14C136.333 6.6362 130.364 0.666667 123 0.666667C115.636 0.666667 109.667 6.6362 109.667 14ZM5.26286 72.7156L59.0406 15.7156L55.4038 12.2844L1.62603 69.2844L5.26286 72.7156ZM57.2222 16.5H123V11.5H57.2222V16.5Z" fill="white"/>
</svg>
