<svg width="137" height="74" viewBox="0 0 137 74" fill="none" xmlns="http://www.w3.org/2000/svg">
<path d="M1.62604 4.71562C0.678529 3.71134 0.724552 2.12909 1.72884 1.18158C2.73312 0.23407 4.31536 0.280094 5.26288 1.28438L1.62604 4.71562ZM57.2222 60V62.5H56.1439L55.4038 61.7156L57.2222 60ZM109.667 60C109.667 52.6362 115.636 46.6667 123 46.6667C130.364 46.6667 136.333 52.6362 136.333 60C136.333 67.3638 130.364 73.3333 123 73.3333C115.636 73.3333 109.667 67.3638 109.667 60ZM5.26288 1.28438L59.0407 58.2844L55.4038 61.7156L1.62604 4.71562L5.26288 1.28438ZM57.2222 57.5H123V62.5H57.2222V57.5Z" fill="#494B7C"/>
</svg>
