<svg width="109" height="109" viewBox="0 0 109 109" fill="none" xmlns="http://www.w3.org/2000/svg">
<path d="M73.3975 8.31125L55.2445 44.6355C54.7237 45.6748 54.4775 46.8301 54.5294 47.9914C54.5813 49.1528 54.9294 50.2815 55.5408 51.2703C56.1522 52.259 57.0064 53.0749 58.0222 53.6402C59.0379 54.2055 60.1815 54.5015 61.344 54.5H97.65C98.8125 54.5015 99.9561 54.2055 100.972 53.6402C101.988 53.0749 102.842 52.259 103.453 51.2703C104.065 50.2815 104.413 49.1528 104.465 47.9914C104.516 46.8301 104.27 45.6748 103.75 44.6355L85.5965 8.31125C83.0849 3.28362 75.9091 3.28362 73.3975 8.31125ZM81.7678 20.4193V34.0489C81.7678 34.6511 81.5286 35.2287 81.1027 35.6546C80.6769 36.0805 80.0993 36.3197 79.497 36.3197C78.8947 36.3197 78.3171 36.0805 77.8913 35.6546C77.4654 35.2287 77.2262 34.6511 77.2262 34.0489V20.4193C77.2262 19.8171 77.4654 19.2395 77.8913 18.8136C78.3171 18.3877 78.8947 18.1485 79.497 18.1485C80.0993 18.1485 80.6769 18.3877 81.1027 18.8136C81.5286 19.2395 81.7678 19.8171 81.7678 20.4193ZM79.497 45.4121C78.8941 45.4121 78.316 45.1726 77.8897 44.7463C77.4634 44.3201 77.2239 43.7419 77.2239 43.139C77.2239 42.5362 77.4634 41.958 77.8897 41.5317C78.316 41.1054 78.8941 40.8659 79.497 40.8659C80.0993 40.8659 80.6769 41.1052 81.1027 41.531C81.5286 41.9569 81.7678 42.5345 81.7678 43.1367C81.7678 43.739 81.5286 44.3166 81.1027 44.7425C80.6769 45.1683 80.0993 45.4121 79.497 45.4121ZM97.641 59.0417H61.839L56.0802 62.0573C55.5925 62.3128 55.0502 62.4462 54.4997 62.4462C53.9492 62.4462 53.4068 62.3128 52.9192 62.0573L9.08301 39.0947V76.0729L9.10572 76.9086C9.31917 80.6727 10.9649 84.2125 13.7054 86.8018C16.4458 89.3911 20.0732 90.8336 23.8434 90.8333H85.1559L85.9916 90.8106C89.7557 90.5972 93.2955 88.9514 95.8848 86.211C98.4741 83.4705 99.9166 79.8431 99.9163 76.0729V58.8191C99.1897 58.9645 98.4221 59.0417 97.641 59.0417ZM23.8434 18.1667H63.4013L51.1843 42.6008C50.3009 44.3489 49.8886 46.2972 49.9882 48.2533C50.0877 50.2094 50.6957 52.1058 51.752 53.7552L9.15567 31.4465C9.50776 27.9508 11.0952 24.6954 13.6326 22.2653C16.1701 19.8353 19.4911 18.3901 22.9987 18.1894L23.8434 18.1667Z" fill="#DCE009"/>
</svg>
