<svg width="170" height="169" viewBox="0 0 170 169" fill="none" xmlns="http://www.w3.org/2000/svg">
<path d="M84.6006 168.89C131.324 168.89 169.201 147.021 169.201 120.044C169.201 93.0666 131.324 71.1973 84.6006 71.1973C37.877 71.1973 0 93.0666 0 120.044C0 147.021 37.877 168.89 84.6006 168.89Z" fill="#3E4378"/>
<path d="M117.894 103.996L146.39 120.445C146.749 120.654 147.157 120.764 147.572 120.764C147.987 120.764 148.395 120.654 148.754 120.445L164.608 111.285C164.715 111.223 164.804 111.134 164.866 111.027C164.927 110.92 164.96 110.799 164.96 110.675C164.96 110.551 164.927 110.43 164.866 110.323C164.804 110.216 164.715 110.127 164.608 110.065L136.12 93.6579C135.762 93.4514 135.355 93.3428 134.942 93.3428C134.528 93.3428 134.122 93.4514 133.764 93.6579L117.898 102.773C117.791 102.835 117.702 102.924 117.64 103.031C117.578 103.138 117.545 103.259 117.545 103.383C117.545 103.507 117.577 103.629 117.638 103.736C117.699 103.844 117.788 103.933 117.894 103.996Z" fill="#242B62"/>
<path d="M95.4719 97.8782L26.93 137.546C26.3718 137.87 25.7386 138.042 25.0933 138.045C24.448 138.048 23.813 137.883 23.2515 137.565L5.44647 127.488C5.26152 127.381 5.10786 127.228 5.00101 127.044C4.89416 126.859 4.83789 126.65 4.83789 126.436C4.83789 126.223 4.89416 126.014 5.00101 125.829C5.10786 125.645 5.26152 125.491 5.44647 125.385L73.8596 85.8731C74.4162 85.5532 75.0462 85.383 75.6882 85.379C76.3302 85.375 76.9623 85.5374 77.5229 85.8504L95.4568 95.9007C95.6324 95.9985 95.779 96.1411 95.8816 96.3141C95.9841 96.487 96.039 96.684 96.0405 96.8851C96.042 97.0861 95.9902 97.284 95.8903 97.4585C95.7905 97.6329 95.6461 97.7778 95.4719 97.8782Z" fill="#242B62"/>
<path d="M106.443 137.69C116.831 137.69 125.252 132.827 125.252 126.829C125.252 120.83 116.831 115.968 106.443 115.968C96.0548 115.968 87.6338 120.83 87.6338 126.829C87.6338 132.827 96.0548 137.69 106.443 137.69Z" fill="#242B62"/>
<path d="M147.125 133.076C150.747 133.076 153.683 131.38 153.683 129.287C153.683 127.195 150.747 125.499 147.125 125.499C143.503 125.499 140.567 127.195 140.567 129.287C140.567 131.38 143.503 133.076 147.125 133.076Z" fill="#242B62"/>
<path d="M147.337 69.1428L147.344 119.137L163.536 109.78V59.835L147.337 69.1428Z" fill="#7B7E9B"/>
<path d="M119.838 103.257L147.345 119.138V69.1888L119.845 53.3574L119.838 103.257Z" fill="#C2C3C9"/>
<path d="M119.838 53.3079L147.345 69.1885L163.536 59.8351L136.041 44L119.838 53.3079Z" fill="#9B9EB4"/>
<path d="M123.062 71.5903L143.962 83.6598C144.053 83.7121 144.156 83.7396 144.262 83.7395C144.367 83.7393 144.47 83.7116 144.561 83.6591C144.653 83.6066 144.728 83.5312 144.781 83.4402C144.834 83.3493 144.863 83.2461 144.863 83.1408V72.5374C144.862 72.2754 144.791 72.0186 144.658 71.793C144.525 71.5673 144.334 71.3811 144.106 71.2531L123.24 59.229C123.148 59.1766 123.044 59.1491 122.939 59.1494C122.833 59.1497 122.729 59.1777 122.638 59.2307C122.547 59.2836 122.471 59.3596 122.418 59.4511C122.366 59.5426 122.338 59.6463 122.338 59.7518V70.306C122.336 70.5647 122.401 70.8195 122.528 71.0448C122.655 71.2702 122.839 71.4583 123.062 71.5903Z" fill="#FAFAFA" fill-opacity="0.5"/>
<path d="M135.434 68.9346C135.362 68.934 135.292 68.9144 135.23 68.8778L131.54 66.7563C131.455 66.6965 131.396 66.6072 131.373 66.5058C131.351 66.4045 131.367 66.2984 131.419 66.2084C131.47 66.1183 131.554 66.0508 131.652 66.019C131.751 65.9873 131.858 65.9935 131.953 66.0366L135.643 68.1618C135.716 68.2097 135.772 68.2795 135.802 68.3612C135.833 68.4429 135.837 68.5323 135.814 68.6164C135.791 68.7006 135.742 68.7753 135.673 68.8297C135.605 68.8842 135.522 68.9156 135.434 68.9195V68.9346Z" fill="#A4A4A4"/>
<path d="M123.061 86.3946L143.962 98.4604C144.053 98.5126 144.156 98.5401 144.262 98.54C144.367 98.5399 144.47 98.5122 144.561 98.4597C144.653 98.4072 144.728 98.3317 144.781 98.2408C144.834 98.1498 144.863 98.0466 144.863 97.9414V87.3341C144.861 87.0722 144.79 86.8155 144.657 86.59C144.524 86.3645 144.334 86.1781 144.106 86.0499L123.24 74.0523C123.148 74 123.045 73.9725 122.94 73.9727C122.834 73.9728 122.731 74.0005 122.64 74.053C122.549 74.1055 122.473 74.1809 122.42 74.2719C122.367 74.3628 122.339 74.466 122.338 74.5713V85.1255C122.339 85.3815 122.406 85.633 122.532 85.8555C122.659 86.0779 122.841 86.2636 123.061 86.3946Z" fill="#FAFAFA" fill-opacity="0.5"/>
<path d="M135.434 83.7354C135.363 83.7345 135.293 83.7163 135.23 83.6824L131.54 81.5571C131.455 81.4973 131.396 81.408 131.373 81.3066C131.351 81.2053 131.367 81.0992 131.419 81.0092C131.47 80.9191 131.554 80.8516 131.652 80.8198C131.751 80.788 131.858 80.7943 131.953 80.8373L135.643 82.9626C135.716 83.0105 135.772 83.0803 135.802 83.162C135.833 83.2437 135.837 83.333 135.814 83.4172C135.791 83.5014 135.742 83.5761 135.673 83.6305C135.605 83.6849 135.522 83.7164 135.434 83.7202V83.7354Z" fill="#A4A4A4"/>
<path d="M123.062 101.196L143.962 113.261C144.053 113.314 144.156 113.341 144.262 113.341C144.367 113.341 144.47 113.313 144.561 113.261C144.653 113.208 144.729 113.133 144.781 113.042C144.834 112.951 144.863 112.848 144.863 112.742V102.135C144.861 101.873 144.79 101.616 144.657 101.391C144.524 101.165 144.334 100.979 144.106 100.851L123.24 88.8267C123.148 88.7744 123.045 88.7469 122.94 88.7471C122.834 88.7472 122.731 88.7749 122.64 88.8274C122.549 88.8799 122.473 88.9554 122.42 89.0463C122.367 89.1372 122.339 89.2405 122.338 89.3457V99.9037C122.335 100.164 122.4 100.42 122.527 100.647C122.654 100.873 122.838 101.063 123.062 101.196Z" fill="#FAFAFA" fill-opacity="0.5"/>
<path d="M135.434 98.5361C135.363 98.537 135.292 98.5187 135.23 98.4831L131.54 96.3579C131.493 96.3308 131.452 96.2947 131.419 96.2517C131.385 96.2086 131.361 96.1595 131.347 96.107C131.333 96.0546 131.329 95.9999 131.337 95.9461C131.344 95.8923 131.361 95.8404 131.388 95.7934C131.415 95.7463 131.452 95.705 131.495 95.6721C131.538 95.6391 131.587 95.615 131.64 95.6012C131.692 95.5875 131.747 95.5843 131.801 95.5919C131.854 95.5996 131.906 95.6178 131.953 95.6457L135.643 97.7671C135.69 97.7942 135.731 97.8303 135.764 97.8733C135.797 97.9164 135.821 97.9655 135.835 98.0179C135.85 98.0703 135.853 98.125 135.846 98.1789C135.839 98.2327 135.821 98.2846 135.794 98.3316C135.758 98.3949 135.706 98.4473 135.642 98.4833C135.579 98.5193 135.507 98.5375 135.434 98.5361Z" fill="#A4A4A4"/>
<path d="M137.034 19.2559V32.6172L148.607 39.296V25.9347L137.034 19.2559Z" fill="#CCCDD7"/>
<path d="M138.289 19.976L148.623 25.935V37.8493L138.304 31.8941V19.976M137.675 18.8926L137.05 19.2714V32.6328L148.623 39.2964L149.248 38.9176V25.5752L137.66 18.8926H137.675Z" fill="#FC39FC"/>
<path d="M137.659 20.3364L147.979 26.2954V38.2096L137.659 32.2506V20.3364ZM137.034 19.2529V32.6143L148.623 39.2969V25.9355L137.034 19.2567V19.2529Z" fill="#C8D4FF"/>
<path d="M138.731 29.5608L147.486 34.6144L144.899 27.8864L143.111 30.0116L141.277 27.4053L138.731 29.5608Z" fill="#FC39FC"/>
<path d="M141.77 25.363C141.784 25.6402 141.865 25.9099 142.003 26.1502C142.142 26.3905 142.336 26.5946 142.569 26.7458C143.008 26.9996 143.368 26.7912 143.368 26.2836C143.353 26.0066 143.272 25.7371 143.133 25.4969C142.995 25.2567 142.801 25.0525 142.569 24.9009C142.126 24.647 141.77 24.8516 141.77 25.363Z" fill="#FC39FC"/>
<path d="M152.073 35.4287V46.0739L161.29 51.3964V40.7513L152.073 35.4287Z" fill="#CCCDD7"/>
<path d="M153.07 36.0079L161.29 40.7508V50.2633L153.07 45.5165V36.0458M152.57 35.1782L152.073 35.4662V46.1113L161.29 51.3998L161.79 51.1119V40.4667L152.57 35.1631V35.1782Z" fill="#FC39FC"/>
<path d="M152.57 36.2962L160.79 41.0392V50.5327L152.57 45.786V36.2962ZM152.073 35.4287V46.0739L161.29 51.4002V40.7551L152.073 35.4514V35.4287Z" fill="#C8D4FF"/>
<path d="M153.427 43.638L160.397 47.665L158.34 42.3045L156.912 44.0017L155.454 41.9219L153.427 43.638Z" fill="#FC39FC"/>
<path d="M155.843 40.297C155.855 40.5178 155.919 40.7327 156.029 40.9242C156.14 41.1157 156.294 41.2785 156.479 41.3994C156.832 41.6002 157.116 41.4373 157.116 41.0206C157.104 40.7997 157.04 40.5846 156.93 40.393C156.819 40.2014 156.665 40.0387 156.479 39.9182C156.127 39.725 155.843 39.8917 155.843 40.297Z" fill="#FC39FC"/>
<path d="M147.513 119.635C147.513 119.635 143.482 115.699 145.778 109.107C147.062 105.413 151.32 102.701 153.734 102.443C152.931 103.398 152.291 104.478 151.839 105.641L148.786 107.671L151.593 106.792L150.995 109.194C150.995 109.194 148.385 110.774 147.998 111.119L150.813 110.384C150.813 110.384 150.608 117.187 147.513 119.635Z" fill="#337EF0"/>
<path opacity="0.4" d="M147.513 119.635C147.513 119.635 143.482 115.699 145.778 109.107C147.062 105.413 151.32 102.701 153.734 102.443C152.931 103.398 152.291 104.478 151.839 105.641L148.786 107.671L151.593 106.792L150.995 109.194C150.995 109.194 148.385 110.774 147.998 111.119L150.813 110.384C150.813 110.384 150.608 117.187 147.513 119.635Z" fill="black"/>
<path d="M147.513 119.635C147.513 119.635 145.426 111.399 148.513 106.596C148.513 106.596 144.896 110.835 147.513 119.635Z" fill="white"/>
<path d="M152.124 120.748L147.199 120.688H147.15L142.225 120.748C142.225 120.748 142.168 126.809 144.039 129.295C144.558 129.954 145.767 130.431 147.18 130.431C148.593 130.431 149.809 129.965 150.324 129.295C152.18 126.817 152.124 120.748 152.124 120.748Z" fill="#37474F"/>
<path d="M152.124 120.748C152.124 122.218 149.908 123.4 147.169 123.4C144.43 123.4 142.214 122.207 142.214 120.748C142.214 119.29 144.434 118.097 147.169 118.097C149.904 118.097 152.124 119.279 152.124 120.748Z" fill="#455A64"/>
<path d="M147.168 120.044C148.873 120.044 150.316 120.59 150.828 121.347C150.952 121.172 151.021 120.963 151.025 120.749C151.025 119.699 149.297 118.854 147.168 118.854C145.039 118.854 143.312 119.707 143.312 120.749C143.315 120.964 143.385 121.173 143.512 121.347C144.02 120.59 145.463 120.044 147.168 120.044Z" fill="#263238"/>
<path d="M147.168 120.044C145.464 120.044 144.02 120.589 143.513 121.347C144.02 122.105 145.464 122.654 147.168 122.654C148.873 122.654 150.317 122.105 150.828 121.347C150.317 120.589 148.873 120.044 147.168 120.044Z" fill="#E0E0E0"/>
<path d="M147.229 121.677C147.229 121.677 145.335 121.605 143.683 119.067C143.005 118.021 142.679 117.472 142.679 117.472L145.331 117.271L142.35 116.513L140.94 114.358L143.414 114.172C142.394 113.817 141.332 113.596 140.255 113.517C140.255 113.517 137.982 109.486 137.304 108.91C139.036 109.016 140.729 109.468 142.283 110.24C143.837 111.013 145.22 112.09 146.35 113.407C150.089 117.843 147.786 121.79 147.229 121.677Z" fill="#337EF0"/>
<path d="M147.229 121.676C147.229 121.676 148.426 114.479 140.789 110.152C140.8 110.152 148.714 113.956 147.229 121.676Z" fill="white"/>
<path d="M147.23 121.677C147.23 121.677 148.961 121.791 150.677 119.658C151.385 118.775 151.73 118.309 151.73 118.309L149.347 117.881L152.109 117.502L153.583 115.688L151.367 115.29C152.32 115.065 153.3 114.966 154.28 114.998C154.28 114.998 156.719 111.589 157.375 111.119C155.809 111.049 154.245 111.294 152.776 111.837C151.306 112.381 149.96 113.214 148.817 114.286C145.014 117.949 146.73 121.726 147.23 121.677Z" fill="#337EF0"/>
<path opacity="0.2" d="M147.23 121.677C147.23 121.677 148.961 121.791 150.677 119.658C151.385 118.775 151.73 118.309 151.73 118.309L149.347 117.881L152.109 117.502L153.583 115.688L151.367 115.29C152.32 115.065 153.3 114.966 154.28 114.998C154.28 114.998 156.719 111.589 157.375 111.119C155.809 111.049 154.245 111.294 152.776 111.837C151.306 112.381 149.96 113.214 148.817 114.286C145.014 117.949 146.73 121.726 147.23 121.677Z" fill="black"/>
<path d="M147.229 121.677C147.229 121.677 146.827 115.074 154.116 111.884C154.116 111.884 146.619 114.57 147.229 121.677Z" fill="white"/>
<path d="M72.0191 29.7493L70.2954 29.0485L70.1211 28.9765H70.1022C69.7931 28.8649 69.4634 28.8224 69.1362 28.8518C68.809 28.8813 68.4922 28.982 68.208 29.147L9.05732 63.2873C7.81425 64.0036 6.78191 65.0349 6.06431 66.2773C5.3467 67.5196 4.96916 68.9291 4.96973 70.3638V121.862C4.97003 122.409 5.1144 122.947 5.38834 123.421C5.66228 123.895 6.05613 124.288 6.5303 124.562C7.00447 124.835 7.54225 124.979 8.08957 124.978C8.6369 124.978 9.17449 124.833 9.64829 124.559L68.8558 90.3775C69.7006 89.8893 70.402 89.1873 70.8894 88.3421C71.3769 87.4969 71.6332 86.5382 71.6327 85.5625V31.1321C71.6338 30.7423 71.5346 30.3587 71.3447 30.0183L72.0191 29.7493Z" fill="#337EF0"/>
<path opacity="0.3" d="M72.0191 29.7493L70.2954 29.0485L70.1211 28.9765H70.1022C69.7931 28.8649 69.4634 28.8224 69.1362 28.8518C68.809 28.8813 68.4922 28.982 68.208 29.147L9.05732 63.2873C7.81425 64.0036 6.78191 65.0349 6.06431 66.2773C5.3467 67.5196 4.96916 68.9291 4.96973 70.3638V121.862C4.97003 122.409 5.1144 122.947 5.38834 123.421C5.66228 123.895 6.05613 124.288 6.5303 124.562C7.00447 124.835 7.54225 124.979 8.08957 124.978C8.6369 124.978 9.17449 124.833 9.64829 124.559L68.8558 90.3775C69.7006 89.8893 70.402 89.1873 70.8894 88.3421C71.3769 87.4969 71.6332 86.5382 71.6327 85.5625V31.1321C71.6338 30.7423 71.5346 30.3587 71.3447 30.0183L72.0191 29.7493Z" fill="black"/>
<path d="M73.2009 31.7538V86.2032C73.2016 87.1789 72.9448 88.1375 72.4566 88.9822C71.9684 89.8269 71.266 90.5279 70.4203 91.0144L11.2127 125.2C10.7385 125.473 10.2008 125.617 9.65359 125.616C9.10639 125.616 8.5689 125.472 8.09501 125.198C7.62111 124.924 7.22746 124.531 6.95352 124.057C6.67958 123.584 6.53496 123.046 6.53418 122.499V70.978C6.53451 69.5662 6.90131 68.1786 7.5987 66.951C8.12691 66.0406 8.88958 65.2884 9.80728 64.7728L70.962 29.4619C71.5551 29.4804 72.1182 29.7271 72.5339 30.1506C72.9496 30.574 73.1858 31.1416 73.1933 31.7349L73.2009 31.7538Z" fill="#337EF0"/>
<path opacity="0.1" d="M73.2009 31.7538V86.2032C73.2016 87.1789 72.9448 88.1375 72.4566 88.9822C71.9684 89.8269 71.266 90.5279 70.4203 91.0144L11.2127 125.2C10.7385 125.473 10.2008 125.617 9.65359 125.616C9.10639 125.616 8.5689 125.472 8.09501 125.198C7.62111 124.924 7.22746 124.531 6.95352 124.057C6.67958 123.584 6.53496 123.046 6.53418 122.499V70.978C6.53451 69.5662 6.90131 68.1786 7.5987 66.951C8.12691 66.0406 8.88958 65.2884 9.80728 64.7728L70.962 29.4619C71.5551 29.4804 72.1182 29.7271 72.5339 30.1506C72.9496 30.574 73.1858 31.1416 73.1933 31.7349L73.2009 31.7538Z" fill="black"/>
<path d="M70.4208 91.0139L11.2133 125.2C10.755 125.468 10.2353 125.613 9.7044 125.622C9.17352 125.63 8.64938 125.502 8.18262 125.249L43.5351 72.042L73.2014 86.1989C73.2016 87.175 72.9447 88.1339 72.4566 88.9791C71.9684 89.8244 71.2663 90.5262 70.4208 91.0139Z" fill="#337EF0"/>
<path opacity="0.2" d="M70.4208 91.0139L11.2133 125.2C10.755 125.468 10.2353 125.613 9.7044 125.622C9.17352 125.63 8.64938 125.502 8.18262 125.249L43.5351 72.042L73.2014 86.1989C73.2016 87.175 72.9447 88.1339 72.4566 88.9791C71.9684 89.8244 71.2663 90.5262 70.4208 91.0139Z" fill="black"/>
<path d="M72.2045 29.8673L48.0616 80.3693C47.5861 81.3615 46.9108 82.2448 46.0781 82.964C45.2454 83.6832 44.2732 84.2228 43.2224 84.5489C42.1715 84.875 41.0647 84.9806 39.9711 84.8592C38.8776 84.7377 37.8208 84.3918 36.8671 83.8431L7.59863 66.9624C8.09822 66.0753 8.82699 65.3387 9.70872 64.8296L70.9619 29.4619C71.4069 29.4725 71.8389 29.6134 72.2045 29.8673Z" fill="#337EF0"/>
<path d="M13.6768 50.748L31.0196 40.7317V28.3174L18.4159 35.2651C16.9804 36.0553 15.7833 37.2163 14.9497 38.627C14.1161 40.0377 13.6765 41.6464 13.6768 43.285V50.748Z" fill="#337EF0"/>
<path opacity="0.5" d="M13.6768 50.748L31.0196 40.7317V28.3174L18.4159 35.2651C16.9804 36.0553 15.7833 37.2163 14.9497 38.627C14.1161 40.0377 13.6765 41.6464 13.6768 43.285V50.748Z" fill="white"/>
<path d="M85.3592 2.67041L83.7719 1.77258C81.7559 0.606914 79.4675 -0.00463098 77.1388 2.64045e-05C74.8101 0.00468379 72.5241 0.625378 70.5128 1.7991L20.9124 30.6963C18.7107 31.9785 16.8839 33.8158 15.6142 36.0248C14.3446 38.2337 13.6765 40.7371 13.6768 43.2849C13.6766 41.976 14.0221 40.6903 14.6782 39.5578C15.3344 38.4253 16.278 37.4861 17.4136 36.8353C18.5492 36.1844 19.8365 35.845 21.1453 35.8513C22.4542 35.8577 23.7382 36.2095 24.8674 36.8713L26.9434 38.0873C29.1049 39.3525 30.8977 41.1611 32.1438 43.3336C33.3899 45.5061 34.0458 47.9668 34.0465 50.4713V124.169L30.6636 132.757L37.0165 128.889L88.0868 99.2572C89.9007 98.2055 91.4061 96.6953 92.452 94.8781C93.498 93.0608 94.0476 91.0005 94.0458 88.9038V17.7441C94.0454 14.6908 93.2427 11.6912 91.7181 9.04569C90.1936 6.40021 88.0008 4.20172 85.3592 2.67041Z" fill="#337EF0"/>
<path opacity="0.7" d="M85.3592 2.67041L83.7719 1.77258C81.7559 0.606914 79.4675 -0.00463098 77.1388 2.64045e-05C74.8101 0.00468379 72.5241 0.625378 70.5128 1.7991L20.9124 30.6963C18.7107 31.9785 16.8839 33.8158 15.6142 36.0248C14.3446 38.2337 13.6765 40.7371 13.6768 43.2849C13.6766 41.976 14.0221 40.6903 14.6782 39.5578C15.3344 38.4253 16.278 37.4861 17.4136 36.8353C18.5492 36.1844 19.8365 35.845 21.1453 35.8513C22.4542 35.8577 23.7382 36.2095 24.8674 36.8713L26.9434 38.0873C29.1049 39.3525 30.8977 41.1611 32.1438 43.3336C33.3899 45.5061 34.0458 47.9668 34.0465 50.4713V124.169L30.6636 132.757L37.0165 128.889L88.0868 99.2572C89.9007 98.2055 91.4061 96.6953 92.452 94.8781C93.498 93.0608 94.0476 91.0005 94.0458 88.9038V17.7441C94.0454 14.6908 93.2427 11.6912 91.7181 9.04569C90.1936 6.40021 88.0008 4.20172 85.3592 2.67041Z" fill="white"/>
<path d="M15.7334 126.059C15.7334 126.059 19.2906 131.261 25.0072 132.984C31.1556 134.837 34.0461 130.761 34.0461 125.355V115.577L15.7334 126.059Z" fill="#337EF0"/>
<path opacity="0.5" d="M15.7334 126.059C15.7334 126.059 19.2906 131.261 25.0072 132.984C31.1556 134.837 34.0461 130.761 34.0461 125.355V115.577L15.7334 126.059Z" fill="white"/>
<path d="M45.097 73.7507C44.9741 73.7489 44.8552 73.707 44.7583 73.6314C44.6614 73.5558 44.5919 73.4507 44.5601 73.332C44.5284 73.2133 44.5363 73.0875 44.5826 72.9737C44.6289 72.8598 44.7111 72.7642 44.8166 72.7014L82.6998 50.8201C82.8289 50.7457 82.9822 50.7257 83.1261 50.7644C83.27 50.8031 83.3926 50.8974 83.4669 51.0265C83.5413 51.1556 83.5613 51.309 83.5225 51.4529C83.4838 51.5967 83.3895 51.7193 83.2604 51.7937L45.3773 73.675C45.2919 73.7237 45.1954 73.7498 45.097 73.7507Z" fill="#2A2F68"/>
<path d="M45.0976 82.1413C44.9744 82.1411 44.8547 82.1003 44.757 82.0252C44.6593 81.9501 44.5891 81.8449 44.5572 81.7259C44.5253 81.6069 44.5335 81.4806 44.5805 81.3668C44.6275 81.2529 44.7107 81.1576 44.8173 81.0958L82.7004 59.2107C82.8295 59.1363 82.9829 59.1163 83.1267 59.155C83.2706 59.1938 83.3932 59.288 83.4676 59.4172C83.5419 59.5463 83.5619 59.6996 83.5232 59.8435C83.4845 59.9873 83.3902 60.1099 83.2611 60.1843L45.378 82.0845C45.2908 82.1267 45.1944 82.1463 45.0976 82.1413Z" fill="#2A2F68"/>
<path d="M45.0976 90.5291C44.9744 90.5289 44.8547 90.488 44.757 90.4129C44.6593 90.3378 44.5891 90.2327 44.5572 90.1136C44.5253 89.9946 44.5335 89.8684 44.5805 89.7545C44.6275 89.6406 44.7107 89.5454 44.8173 89.4835L82.7004 67.6023C82.8285 67.5357 82.9773 67.5211 83.1159 67.5615C83.2545 67.6019 83.3721 67.6941 83.4444 67.8191C83.5166 67.9441 83.5379 68.0921 83.5038 68.2324C83.4696 68.3726 83.3827 68.4943 83.2611 68.5721L45.378 90.4533C45.2925 90.5021 45.196 90.5282 45.0976 90.5291Z" fill="#2A2F68"/>
<path d="M45.0976 98.9158C44.9744 98.9156 44.8547 98.8748 44.757 98.7997C44.6593 98.7246 44.5891 98.6194 44.5572 98.5004C44.5253 98.3814 44.5335 98.2551 44.5805 98.1412C44.6275 98.0273 44.7107 97.9321 44.8173 97.8703L82.7004 75.989C82.8285 75.9224 82.9773 75.9078 83.1159 75.9482C83.2545 75.9886 83.3721 76.0809 83.4444 76.2058C83.5166 76.3308 83.5379 76.4788 83.5038 76.6191C83.4696 76.7593 83.3827 76.881 83.2611 76.9588L45.378 98.8401C45.2932 98.8905 45.1963 98.9168 45.0976 98.9158Z" fill="#2A2F68"/>
<path d="M45.0976 107.304C44.9744 107.303 44.8547 107.262 44.757 107.187C44.6593 107.112 44.5891 107.007 44.5572 106.888C44.5253 106.769 44.5335 106.643 44.5805 106.529C44.6275 106.415 44.7107 106.32 44.8173 106.258L82.7004 84.3767C82.8285 84.3101 82.9773 84.2955 83.1159 84.3359C83.2545 84.3763 83.3721 84.4686 83.4444 84.5935C83.5166 84.7185 83.5379 84.8665 83.5038 85.0068C83.4696 85.147 83.3827 85.2687 83.2611 85.3465L45.378 107.228C45.2932 107.278 45.1963 107.304 45.0976 107.304Z" fill="#2A2F68"/>
<path d="M69.9746 101.326C69.8762 101.327 69.7793 101.301 69.6941 101.252C69.6088 101.202 69.5383 101.131 69.4897 101.046C69.4179 100.918 69.3991 100.767 69.4374 100.625C69.4756 100.483 69.5678 100.362 69.6943 100.288L82.7072 92.7644C82.8352 92.6978 82.9841 92.6832 83.1226 92.7236C83.2612 92.764 83.3789 92.8563 83.4511 92.9812C83.5234 93.1062 83.5446 93.2542 83.5105 93.3945C83.4763 93.5347 83.3894 93.6564 83.2678 93.7342L70.255 101.254C70.1692 101.302 70.0727 101.326 69.9746 101.326Z" fill="#2A2F68"/>
<path d="M71.4785 42.1712L60.5605 48.475V43.0956C60.5605 39.3565 62.8335 35.0113 65.6407 33.3899L66.3983 32.9542C69.2017 31.3328 71.4785 33.0527 71.4785 36.7918V42.1712Z" fill="#337EF0"/>
<path d="M74.0204 43.955L58.0186 53.1947L60.5605 47.3077L71.4784 41.0039L74.0204 43.955Z" fill="#337EF0"/>
<path d="M66.0388 34.9465C65.5652 35.2193 65.1826 34.9995 65.1826 34.454V32.3591C65.1991 32.0623 65.2852 31.7736 65.4339 31.5163C65.5827 31.259 65.7899 31.0403 66.0388 30.8779C66.5085 30.6051 66.8911 30.8248 66.8911 31.3703V33.4691C66.8745 33.7648 66.7887 34.0526 66.6407 34.3092C66.4926 34.5657 66.2865 34.784 66.0388 34.9465Z" fill="#337EF0"/>
<path d="M64.2012 50.4147C64.2466 51.502 65.0422 51.9301 66.0196 51.3656C66.5317 51.0307 66.9611 50.584 67.2754 50.059C67.5898 49.534 67.7808 48.9445 67.8342 48.335L64.2012 50.4147Z" fill="#337EF0"/>
<path d="M119.84 34.0342C124.24 34.0342 127.807 30.4674 127.807 26.0674C127.807 21.6675 124.24 18.1006 119.84 18.1006C115.44 18.1006 111.873 21.6675 111.873 26.0674C111.873 30.4674 115.44 34.0342 119.84 34.0342Z" fill="#FC39FC"/>
<path d="M118.42 32.2617C118.42 32.2617 119.132 34.7923 116.249 37.1411C116.249 37.1411 120.689 36.694 120.931 32.4739L118.42 32.2617Z" fill="#FC39FC"/>
<path d="M120.624 26.8027H118.911L118.483 22.6924H121.052L120.624 26.8027ZM119.768 29.4545C119.61 29.4653 119.452 29.4441 119.303 29.3923C119.153 29.3405 119.016 29.2591 118.899 29.153C118.782 29.0469 118.687 28.9183 118.621 28.7748C118.555 28.6313 118.518 28.476 118.514 28.318C118.548 28.0092 118.694 27.7238 118.926 27.5165C119.157 27.3092 119.457 27.1946 119.768 27.1946C120.078 27.1946 120.378 27.3092 120.609 27.5165C120.841 27.7238 120.988 28.0092 121.022 28.318C121.016 28.4753 120.979 28.6298 120.912 28.7724C120.845 28.915 120.751 29.0428 120.634 29.1481C120.517 29.2534 120.38 29.3341 120.231 29.3855C120.082 29.4368 119.925 29.4577 119.768 29.4469V29.4545Z" fill="white"/>
<path d="M104.11 56.8628C103.29 56.7993 102.467 56.9389 101.713 57.2693C100.96 57.5997 100.3 58.1107 99.7911 58.757C98.1053 60.9769 94.5367 66.2275 94.5367 66.2275C94.5367 66.2275 93.0441 64.572 92.0667 63.409C91.0893 62.246 90.1726 61.2611 90.1726 61.2611C90.044 60.6351 89.9479 60.0028 89.8847 59.3669C89.8013 58.4653 89.6801 57.8516 89.0209 57.2341C88.3618 56.6166 87.8579 56.037 87.8049 55.5672C87.7518 55.0975 87.426 54.6277 87.0093 55.1088C86.5926 55.59 86.6305 57.0674 87.5018 58.0524C87.5018 58.0524 85.9448 57.3288 85.2288 56.4802C84.5128 55.6316 83.5885 54.1542 83.1794 54.5633C82.7702 54.9725 81.986 59.3783 83.1794 60.3594C84.3727 61.3406 87.3238 63.0113 87.3238 63.0113C87.3238 63.0113 91.1803 72.4517 93.8927 72.4517C96.6051 72.4517 101.09 65.4737 101.09 65.4737L104.11 56.8628Z" fill="#FFA8A7"/>
<path d="M99.2949 106.148L100.132 118.956C100.132 118.956 100.89 120.313 102.348 120.313L103.674 118.865C103.656 117.152 103.799 115.441 104.102 113.755C104.595 111.168 105.549 107.383 105.826 105.197L99.2949 106.148Z" fill="#FFA8A7"/>
<path d="M100.049 77.213C100.049 77.213 99.3822 81.5203 99.0526 85.7102C98.7912 89.0515 98.6207 93.6846 98.5601 95.4234C98.5456 95.8782 98.5557 96.3335 98.5904 96.7872L99.2951 106.148C99.2951 106.148 103.436 107.967 105.834 105.197C105.834 105.197 106.125 102.515 105.709 100.651C105.465 99.4745 105.494 98.2574 105.796 97.0941L108.391 86.6686V77.1221L100.049 77.213Z" fill="#37474F"/>
<path d="M102.061 80.7861C102.236 81.5517 102.617 82.2547 103.163 82.8189C103.71 83.3832 104.4 83.7872 105.159 83.9872L106.709 93.4202L108.982 85.1541V80.7861H102.061Z" fill="#263238"/>
<path d="M110.114 108.057L112.732 122.495H115.562C115.562 122.495 116.634 110.33 116.577 107.012L110.114 108.057Z" fill="#FFA8A7"/>
<path d="M101.371 77.1189C101.371 77.1189 100.818 82.6916 105.803 83.1803L108.391 99.7768L110.114 108.054C110.114 108.054 114.153 110.687 116.577 107.009C116.577 107.009 116.823 102.842 115.819 99.97C115.558 99.2241 115.449 98.4329 115.501 97.644C115.782 93.5754 116.554 81.6384 116.176 78.9942L113.683 75.7324L101.371 77.1189Z" fill="#37474F"/>
<path d="M110.447 57.4612H112.978L114.671 65.9129L113.557 69.5308C113.322 70.2807 113.376 71.0917 113.709 71.8038C114.467 73.4555 115.872 76.6831 116.179 79.0016C115.47 79.0535 114.761 78.9121 114.127 78.5925C113.492 78.273 112.956 77.7872 112.576 77.187C112.576 77.187 110.451 79.9865 105.28 79.9865C102.772 79.9865 100.734 78.1416 100.048 77.2173L100.976 73.0274C101.053 72.6871 101.081 72.3376 101.06 71.9894C101.011 71.1219 100.916 69.3376 100.939 67.9814C100.939 67.9814 98.5367 67.0267 99.1542 64.0718C99.7717 61.1169 104.109 56.874 104.109 56.874L105.969 56.946L110.447 57.4612Z" fill="#FC39FC"/>
<path d="M104.345 41.1715C104.345 41.1715 101.276 40.107 100.526 43.2475C99.7759 46.388 102.087 49.4376 98.6318 50.4832C98.6318 50.4832 100.67 52.1804 102.466 49.0096L103.981 55.4497C103.981 55.4497 103.981 55.802 103.443 56.071C103.443 56.071 112.156 58.0106 113.834 53.6616C114.066 53.9119 114.223 54.2212 114.29 54.5554C114.357 54.8896 114.33 55.2357 114.213 55.5558C114.213 55.5558 116.785 54.514 116.062 51.184C116.062 51.184 118.096 51.1272 118.581 49.4717C118.581 49.4717 115.327 49.627 115.346 46.0357C115.369 41.8875 113.187 42.4899 113.187 42.4899C113.187 42.4899 110.516 38.5197 104.345 41.1715Z" fill="#455A64"/>
<path d="M105.97 54.1654V56.9346C105.97 56.9346 103.102 60.1244 105.898 60.3782C108.694 60.632 110.444 57.4612 110.444 57.4612V51.6045L105.97 54.1654Z" fill="#FFA8A7"/>
<path d="M110.398 50.68V50.8391C109.402 54.779 106.807 55.6351 105.97 55.8359L105.939 49.7405L110.273 49.7178L110.398 50.68Z" fill="#F28F8F"/>
<path d="M106.254 41.929C104.599 42.0653 101.159 43.2738 101.11 47.6341C101.061 51.9945 101.724 55.3206 103.985 55.457C106.247 55.5934 111.297 53.5629 111.532 47.8804C111.766 42.1979 107.865 41.7774 106.254 41.929Z" fill="#FFA8A7"/>
<path d="M104.159 49.3652L104.201 51.9261L102.693 51.4905L104.159 49.3652Z" fill="#F28F8F"/>
<path d="M106.409 49.2977C106.411 49.4014 106.382 49.5034 106.326 49.5907C106.271 49.6781 106.19 49.7469 106.095 49.7883C106 49.8297 105.895 49.8419 105.792 49.8234C105.69 49.8048 105.596 49.7563 105.522 49.6841C105.447 49.6118 105.396 49.519 105.375 49.4176C105.353 49.3161 105.362 49.2106 105.401 49.1143C105.44 49.0181 105.506 48.9355 105.592 48.8771C105.677 48.8186 105.778 48.787 105.882 48.7863C105.95 48.7847 106.018 48.7968 106.082 48.8218C106.146 48.8468 106.203 48.8842 106.252 48.9318C106.301 48.9793 106.341 49.0362 106.367 49.099C106.394 49.1618 106.408 49.2294 106.409 49.2977Z" fill="#263238"/>
<path d="M102.973 48.9829C102.975 49.0513 102.963 49.1194 102.938 49.1832C102.913 49.247 102.876 49.3052 102.828 49.3545C102.78 49.4038 102.724 49.4432 102.661 49.4705C102.598 49.4977 102.53 49.5122 102.462 49.5132C102.358 49.5155 102.256 49.4869 102.169 49.4312C102.082 49.3754 102.013 49.2951 101.972 49.2002C101.93 49.1053 101.918 49.0003 101.936 48.8984C101.954 48.7964 102.002 48.7022 102.074 48.6277C102.146 48.5531 102.238 48.5016 102.34 48.4797C102.441 48.4577 102.546 48.4663 102.643 48.5043C102.739 48.5424 102.822 48.6082 102.881 48.6934C102.939 48.7786 102.972 48.8793 102.973 48.9829Z" fill="#263238"/>
<path d="M105.569 52.7563C105.001 52.9012 104.442 53.0783 103.894 53.2867C103.894 53.2867 103.739 52.3965 104.478 52.1919C104.697 52.1456 104.925 52.1765 105.124 52.2794C105.323 52.3822 105.48 52.5508 105.569 52.7563Z" fill="#F28F8F"/>
<path d="M102.784 47.0547L101.772 47.6722C101.772 47.6722 102.151 48.0737 102.553 47.8237C102.664 47.7336 102.746 47.6121 102.787 47.4749C102.828 47.3377 102.827 47.1912 102.784 47.0547Z" fill="#263238"/>
<path d="M108.914 49.2821C108.914 49.2821 108.876 50.896 109.933 50.896H112.005V47.3994C112.005 43.4747 109.027 39.3757 102.693 42.6185C102.693 42.6185 102.322 48.0775 108.914 49.2821Z" fill="#455A64"/>
<path d="M101.932 50.809C100.947 50.809 100.144 50.1271 100.144 49.2936C100.144 48.4602 100.947 47.7783 101.932 47.7783C102.917 47.7783 103.72 48.4602 103.72 49.2936C103.72 50.1271 102.917 50.809 101.932 50.809ZM101.932 48.07C101.117 48.07 100.454 48.6155 100.454 49.2823C100.454 49.949 101.117 50.4983 101.932 50.4983C102.746 50.4983 103.409 49.9528 103.409 49.2823C103.409 48.6117 102.746 48.07 101.932 48.07Z" fill="black"/>
<path d="M106.329 50.82C105.227 50.82 104.325 50.1305 104.325 49.2819C104.325 48.4333 105.227 47.7666 106.329 47.7666C107.432 47.7666 108.333 48.4561 108.333 49.2819C108.333 50.1078 107.435 50.82 106.329 50.82ZM106.329 48.0772C105.409 48.0772 104.655 48.619 104.655 49.2819C104.655 49.9449 105.412 50.4904 106.329 50.4904C107.246 50.4904 108.004 49.9487 108.004 49.2819C108.004 48.6152 107.254 48.0772 106.329 48.0772Z" fill="black"/>
<path d="M104.493 49.1191H103.564V49.4487H104.493V49.1191Z" fill="#FC39FC"/>
<path d="M110.565 49.1191H108.171V49.4487H110.565V49.1191Z" fill="black"/>
<path d="M109.925 50.6834C109.912 50.2836 109.99 49.886 110.153 49.5204C110.232 49.2928 110.376 49.0933 110.567 48.9466C110.758 48.7998 110.988 48.7122 111.228 48.6946C112.463 48.6756 112.615 49.8651 112.596 50.2856C112.539 51.3956 111.63 52.5852 109.944 52.6117L109.925 50.6834Z" fill="#FFA8A7"/>
<path d="M112.979 57.4611C112.979 57.4611 110.092 64.3634 114.672 65.9128L115.676 63.7686C115.676 63.7686 124.056 56.0935 126.105 54.4115C128.155 52.7294 125.526 50.2443 122.984 47.9145C120.442 45.5847 117.892 43.3306 117.892 43.3306L116.619 41.0766C116.479 40.8305 116.289 40.6168 116.06 40.4496C115.832 40.2824 115.57 40.1656 115.294 40.1068C113.96 39.8302 111.448 39.3491 110.092 39.4287C108.198 39.531 111.058 41.8911 111.539 41.8911C111.973 41.904 112.396 42.0278 112.768 42.2506C113.14 42.4735 113.449 42.7879 113.665 43.164C114.24 44.1906 114.343 46.0393 116.18 45.9559L120.438 52.3165L112.979 57.4611Z" fill="#FFA8A7"/>
<path d="M120.437 52.3164L121.915 54.2068L119.611 52.8884L120.437 52.3164Z" fill="#F28F8F"/>
<path d="M94.5371 66.2307L95.8517 67.7499L95.0902 65.4238L94.5371 66.2307Z" fill="#F28F8F"/>
<path opacity="0.2" d="M105.89 68.1172C105.89 68.1172 109.678 68.4241 110.852 64.8252C110.852 64.8252 110.898 69.4128 105.89 68.1172Z" fill="black"/>
<path d="M99.7719 119.51C99.7719 119.51 99.2453 117.858 100.06 117.771C100.874 117.684 102.314 118.116 102.458 118.548C102.546 118.833 102.582 119.132 102.564 119.43C102.961 119.296 103.337 119.106 103.681 118.866V118.256C103.681 118.256 104.53 118.339 104.594 118.976C104.659 119.612 104.67 120.389 104.697 121.112C104.746 122.575 104.962 123.552 103.299 123.984C102.113 124.282 101.042 124.925 100.223 125.833C99.6542 126.433 98.9463 126.883 98.1619 127.144C97.3775 127.405 96.5408 127.469 95.726 127.329C93.2219 126.98 93.3659 124.867 94.2485 124.188C95.0969 123.564 96.0041 123.023 96.9572 122.575L99.7719 119.51Z" fill="#FC39FC"/>
<path d="M98.8777 124.181C98.84 124.182 98.8029 124.172 98.7707 124.152C98.7384 124.133 98.7125 124.104 98.6958 124.071C98.2939 123.424 97.6548 122.96 96.9153 122.779C96.8884 122.773 96.8629 122.762 96.8402 122.746C96.8176 122.73 96.7984 122.71 96.7836 122.687C96.7688 122.664 96.7587 122.638 96.754 122.611C96.7493 122.584 96.7501 122.556 96.7562 122.529C96.762 122.502 96.773 122.477 96.7886 122.455C96.8042 122.433 96.824 122.414 96.8469 122.4C96.8698 122.385 96.8953 122.376 96.922 122.371C96.9487 122.367 96.9761 122.367 97.0024 122.374C97.4289 122.476 97.8305 122.664 98.1838 122.924C98.537 123.184 98.8347 123.512 99.0595 123.889C99.0767 123.92 99.0854 123.955 99.0847 123.991C99.0841 124.027 99.074 124.062 99.0556 124.093C99.0372 124.123 99.0111 124.149 98.9799 124.166C98.9487 124.183 98.9134 124.192 98.8777 124.192V124.181Z" fill="#FAFAFA"/>
<path d="M99.8368 123.158C99.7992 123.159 99.7621 123.149 99.7298 123.13C99.6976 123.11 99.6716 123.082 99.655 123.048C99.2531 122.401 98.614 121.938 97.8745 121.756C97.8209 121.744 97.7741 121.712 97.7443 121.666C97.7145 121.62 97.7041 121.564 97.7154 121.51C97.7208 121.483 97.7315 121.458 97.7468 121.435C97.7622 121.413 97.782 121.393 97.8049 121.378C97.8279 121.364 97.8536 121.354 97.8805 121.349C97.9074 121.344 97.935 121.345 97.9616 121.351C98.3883 121.453 98.7902 121.64 99.1435 121.9C99.4968 122.161 99.7944 122.489 100.019 122.866C100.044 122.915 100.05 122.971 100.034 123.023C100.019 123.076 99.9833 123.12 99.9353 123.147C99.9037 123.157 99.8701 123.161 99.8368 123.158Z" fill="#FAFAFA"/>
<path d="M100.795 122.135C100.758 122.135 100.721 122.125 100.689 122.106C100.657 122.087 100.631 122.059 100.613 122.026C100.209 121.381 99.5711 120.918 98.8328 120.734C98.7799 120.721 98.734 120.688 98.705 120.642C98.676 120.596 98.6661 120.541 98.6775 120.487C98.6824 120.461 98.6927 120.435 98.7077 120.413C98.7227 120.39 98.7421 120.371 98.7647 120.356C98.7874 120.341 98.8128 120.331 98.8395 120.326C98.8661 120.322 98.8935 120.322 98.9199 120.328C99.347 120.431 99.7493 120.618 100.103 120.878C100.457 121.138 100.755 121.467 100.981 121.844C101.006 121.892 101.011 121.949 100.995 122.002C100.979 122.054 100.942 122.098 100.894 122.124C100.862 122.135 100.828 122.139 100.795 122.135Z" fill="#FAFAFA"/>
<path d="M112.732 122.495C112.701 122.334 112.708 122.167 112.752 122.008C112.796 121.85 112.876 121.703 112.986 121.581C113.096 121.459 113.233 121.363 113.386 121.302C113.539 121.241 113.704 121.217 113.868 121.23C115.194 121.23 116.141 121.268 116.024 122.253V122.958C116.024 122.958 116.024 126.469 116.289 127.606C116.554 128.742 117.206 132.341 114.501 132.868C111.796 133.394 110.811 131.087 111.304 128.901C111.609 127.67 111.794 126.411 111.857 125.143C111.917 124.344 111.611 121.42 112.489 121.23L112.732 122.495Z" fill="#FC39FC"/>
<path d="M115.209 126.844C115.174 126.844 115.14 126.833 115.111 126.814C114.424 126.485 113.635 126.437 112.914 126.682C112.888 126.691 112.861 126.696 112.834 126.695C112.807 126.694 112.78 126.688 112.756 126.676C112.731 126.665 112.709 126.649 112.69 126.629C112.672 126.609 112.658 126.586 112.648 126.56C112.639 126.535 112.634 126.507 112.635 126.48C112.636 126.453 112.642 126.426 112.653 126.401C112.664 126.376 112.681 126.353 112.7 126.334C112.72 126.316 112.744 126.301 112.77 126.291C113.184 126.149 113.622 126.09 114.059 126.118C114.496 126.146 114.923 126.26 115.315 126.454C115.363 126.482 115.398 126.527 115.412 126.581C115.426 126.634 115.419 126.691 115.391 126.738C115.373 126.771 115.347 126.798 115.315 126.817C115.283 126.835 115.246 126.845 115.209 126.844Z" fill="#FAFAFA"/>
<path d="M115.353 125.272C115.318 125.27 115.283 125.261 115.251 125.245C114.566 124.913 113.778 124.864 113.058 125.109C113.032 125.123 113.004 125.131 112.975 125.133C112.945 125.135 112.916 125.131 112.889 125.121C112.861 125.111 112.836 125.095 112.816 125.075C112.795 125.054 112.779 125.029 112.768 125.002C112.758 124.975 112.753 124.945 112.755 124.916C112.757 124.887 112.765 124.859 112.779 124.833C112.793 124.807 112.812 124.784 112.835 124.767C112.858 124.749 112.885 124.736 112.914 124.73C113.327 124.586 113.765 124.526 114.201 124.554C114.638 124.582 115.064 124.697 115.456 124.893C115.479 124.906 115.5 124.923 115.517 124.945C115.534 124.966 115.547 124.99 115.554 125.016C115.562 125.042 115.564 125.07 115.56 125.097C115.557 125.123 115.549 125.15 115.535 125.173C115.516 125.204 115.489 125.229 115.457 125.246C115.426 125.264 115.39 125.272 115.353 125.272Z" fill="#FAFAFA"/>
<path d="M115.497 123.722C115.462 123.72 115.427 123.711 115.395 123.696C114.708 123.366 113.92 123.318 113.198 123.559C113.172 123.574 113.143 123.583 113.114 123.585C113.084 123.587 113.055 123.583 113.027 123.573C112.999 123.563 112.974 123.547 112.953 123.526C112.932 123.505 112.916 123.48 112.905 123.452C112.895 123.424 112.891 123.395 112.893 123.365C112.896 123.336 112.904 123.307 112.919 123.281C112.933 123.255 112.953 123.233 112.977 123.215C113.001 123.198 113.029 123.186 113.058 123.18C113.471 123.036 113.908 122.976 114.345 123.004C114.782 123.032 115.208 123.147 115.6 123.343C115.623 123.356 115.644 123.374 115.661 123.395C115.678 123.416 115.691 123.441 115.698 123.467C115.705 123.493 115.708 123.52 115.704 123.547C115.701 123.574 115.692 123.6 115.679 123.624C115.66 123.654 115.633 123.68 115.601 123.697C115.569 123.714 115.534 123.723 115.497 123.722Z" fill="#FAFAFA"/>
<path d="M96.0101 123.06C95.396 123.395 94.8072 123.775 94.2485 124.196C93.3659 124.874 93.2219 126.988 95.726 127.337C96.7802 127.51 97.8623 127.35 98.821 126.878C98.7034 126.059 98.3853 125.282 97.8949 124.616C97.4045 123.95 96.757 123.415 96.0101 123.06Z" fill="white"/>
<path d="M103.299 123.661C102.113 123.959 101.042 124.603 100.223 125.51C99.6541 126.11 98.9462 126.561 98.1618 126.822C97.3774 127.083 96.5407 127.146 95.7259 127.006C94.3242 126.813 93.7522 126.063 93.6764 125.321C93.6044 126.154 94.1197 127.105 95.7259 127.328C96.5407 127.468 97.3774 127.405 98.1618 127.144C98.9462 126.883 99.6541 126.432 100.223 125.832C101.042 124.925 102.113 124.281 103.299 123.983C104.609 123.646 104.753 122.964 104.731 121.976C104.704 122.79 104.462 123.377 103.299 123.661Z" fill="#37474F"/>
<path d="M116.532 128.988C115.848 128.292 114.918 127.892 113.941 127.876C112.965 127.859 112.022 128.228 111.315 128.901C110.823 131.087 111.808 133.394 114.513 132.868C116.475 132.47 116.676 130.492 116.532 128.988Z" fill="#F5F5F5"/>
<path d="M114.527 132.439C112.353 132.863 111.292 131.454 111.212 129.749C111.122 131.643 112.171 133.325 114.527 132.867C116.274 132.526 116.622 130.912 116.581 129.503C116.524 130.795 116.08 132.132 114.527 132.439Z" fill="#455A64"/>
</svg>
