<svg width="170" height="169" viewBox="0 0 170 169" fill="none" xmlns="http://www.w3.org/2000/svg">
<path d="M84.6006 168.89C131.324 168.89 169.201 147.021 169.201 120.044C169.201 93.0666 131.324 71.1973 84.6006 71.1973C37.877 71.1973 0 93.0666 0 120.044C0 147.021 37.877 168.89 84.6006 168.89Z" fill="#F5F5F5"/>
<path d="M117.894 103.996L146.39 120.445C146.749 120.654 147.157 120.764 147.572 120.764C147.987 120.764 148.395 120.654 148.754 120.445L164.608 111.285C164.715 111.223 164.804 111.134 164.866 111.027C164.927 110.92 164.96 110.799 164.96 110.675C164.96 110.552 164.927 110.43 164.866 110.323C164.804 110.216 164.715 110.127 164.608 110.065L136.12 93.6581C135.762 93.4517 135.355 93.343 134.942 93.343C134.528 93.343 134.122 93.4517 133.764 93.6581L117.898 102.773C117.791 102.835 117.702 102.924 117.64 103.031C117.578 103.138 117.545 103.26 117.545 103.384C117.545 103.507 117.577 103.629 117.638 103.737C117.699 103.844 117.788 103.934 117.894 103.996Z" fill="#E0E0E0"/>
<path d="M95.4719 97.8782L26.93 137.546C26.3718 137.87 25.7386 138.042 25.0933 138.045C24.448 138.048 23.813 137.883 23.2515 137.565L5.44647 127.488C5.26152 127.381 5.10786 127.228 5.00101 127.044C4.89416 126.859 4.83789 126.65 4.83789 126.436C4.83789 126.223 4.89416 126.014 5.00101 125.829C5.10786 125.645 5.26152 125.491 5.44647 125.385L73.8596 85.8731C74.4162 85.5532 75.0462 85.383 75.6882 85.379C76.3302 85.375 76.9623 85.5374 77.5229 85.8504L95.4568 95.9007C95.6324 95.9985 95.779 96.1411 95.8816 96.3141C95.9841 96.487 96.039 96.684 96.0405 96.8851C96.042 97.0861 95.9902 97.284 95.8903 97.4585C95.7905 97.6329 95.6461 97.7778 95.4719 97.8782Z" fill="#E0E0E0"/>
<path d="M106.443 137.69C116.831 137.69 125.252 132.827 125.252 126.829C125.252 120.83 116.831 115.968 106.443 115.968C96.0548 115.968 87.6338 120.83 87.6338 126.829C87.6338 132.827 96.0548 137.69 106.443 137.69Z" fill="#E0E0E0"/>
<path d="M147.125 133.075C150.747 133.075 153.683 131.379 153.683 129.287C153.683 127.195 150.747 125.499 147.125 125.499C143.503 125.499 140.567 127.195 140.567 129.287C140.567 131.379 143.503 133.075 147.125 133.075Z" fill="#E0E0E0"/>
<path d="M147.337 69.1431L147.344 119.137L163.536 109.78V59.8352L147.337 69.1431Z" fill="#D5D5D5"/>
<path d="M119.838 103.257L147.345 119.137V69.1885L119.845 53.3572L119.838 103.257Z" fill="#E6E6E6"/>
<path d="M119.838 53.3079L147.345 69.1885L163.536 59.8351L136.041 44L119.838 53.3079Z" fill="#F2F2F2"/>
<path d="M123.062 71.5903L143.962 83.6598C144.053 83.7121 144.156 83.7396 144.262 83.7395C144.367 83.7393 144.47 83.7116 144.561 83.6591C144.653 83.6066 144.728 83.5312 144.781 83.4402C144.834 83.3493 144.863 83.2461 144.863 83.1408V72.5374C144.862 72.2754 144.791 72.0186 144.658 71.793C144.525 71.5673 144.334 71.3811 144.106 71.2531L123.24 59.229C123.148 59.1766 123.044 59.1491 122.939 59.1494C122.833 59.1497 122.729 59.1777 122.638 59.2307C122.547 59.2836 122.471 59.3596 122.418 59.4511C122.366 59.5426 122.338 59.6463 122.338 59.7518V70.306C122.336 70.5647 122.401 70.8195 122.528 71.0448C122.655 71.2702 122.839 71.4583 123.062 71.5903Z" fill="#FAFAFA"/>
<path d="M135.434 68.9346C135.362 68.934 135.292 68.9144 135.23 68.8778L131.54 66.7563C131.455 66.6965 131.396 66.6072 131.373 66.5058C131.351 66.4045 131.367 66.2984 131.419 66.2084C131.47 66.1183 131.554 66.0508 131.652 66.019C131.751 65.9873 131.858 65.9935 131.953 66.0366L135.643 68.1618C135.716 68.2097 135.772 68.2795 135.802 68.3612C135.833 68.4429 135.837 68.5323 135.814 68.6164C135.791 68.7006 135.742 68.7753 135.673 68.8297C135.605 68.8842 135.522 68.9156 135.434 68.9195V68.9346Z" fill="#A4A4A4"/>
<path d="M123.061 86.3951L143.962 98.4608C144.053 98.5131 144.156 98.5406 144.262 98.5405C144.367 98.5403 144.47 98.5127 144.561 98.4602C144.653 98.4077 144.728 98.3322 144.781 98.2412C144.834 98.1503 144.863 98.0471 144.863 97.9419V87.3346C144.861 87.0727 144.79 86.816 144.657 86.5905C144.524 86.3649 144.334 86.1786 144.106 86.0503L123.24 74.0528C123.148 74.0005 123.045 73.973 122.94 73.9731C122.834 73.9733 122.731 74.001 122.64 74.0535C122.549 74.106 122.473 74.1814 122.42 74.2724C122.367 74.3633 122.339 74.4665 122.338 74.5718V85.126C122.339 85.382 122.406 85.6335 122.532 85.8559C122.659 86.0784 122.841 86.2641 123.061 86.3951Z" fill="#FAFAFA"/>
<path d="M135.434 83.7356C135.363 83.7347 135.293 83.7165 135.23 83.6826L131.54 81.5574C131.455 81.4975 131.396 81.4082 131.373 81.3069C131.351 81.2055 131.367 81.0994 131.419 81.0094C131.47 80.9194 131.554 80.8518 131.652 80.8201C131.751 80.7883 131.858 80.7945 131.953 80.8376L135.643 82.9628C135.716 83.0107 135.772 83.0806 135.802 83.1622C135.833 83.2439 135.837 83.3333 135.814 83.4175C135.791 83.5016 135.742 83.5763 135.673 83.6307C135.605 83.6852 135.522 83.7166 135.434 83.7205V83.7356Z" fill="#A4A4A4"/>
<path d="M123.062 101.196L143.962 113.262C144.053 113.314 144.156 113.342 144.262 113.341C144.367 113.341 144.47 113.314 144.561 113.261C144.653 113.209 144.729 113.133 144.781 113.042C144.834 112.951 144.863 112.848 144.863 112.743V102.136C144.861 101.874 144.79 101.617 144.657 101.391C144.524 101.166 144.334 100.98 144.106 100.851L123.24 88.8272C123.148 88.7749 123.045 88.7474 122.94 88.7476C122.834 88.7477 122.731 88.7754 122.64 88.8279C122.549 88.8804 122.473 88.9558 122.42 89.0468C122.367 89.1377 122.339 89.2409 122.338 89.3462V99.9042C122.335 100.164 122.4 100.42 122.527 100.647C122.654 100.874 122.838 101.063 123.062 101.196Z" fill="#FAFAFA"/>
<path d="M135.434 98.5366C135.363 98.5375 135.292 98.5192 135.23 98.4836L131.54 96.3583C131.493 96.3313 131.452 96.2952 131.419 96.2521C131.385 96.2091 131.361 96.16 131.347 96.1075C131.333 96.0551 131.329 96.0004 131.337 95.9466C131.344 95.8928 131.361 95.8409 131.388 95.7939C131.415 95.7468 131.452 95.7055 131.495 95.6725C131.538 95.6395 131.587 95.6155 131.64 95.6017C131.692 95.588 131.747 95.5848 131.801 95.5924C131.854 95.6001 131.906 95.6183 131.953 95.6461L135.643 97.7676C135.69 97.7947 135.731 97.8308 135.764 97.8738C135.797 97.9169 135.821 97.966 135.835 98.0184C135.85 98.0708 135.853 98.1255 135.846 98.1793C135.839 98.2332 135.821 98.2851 135.794 98.3321C135.758 98.3953 135.706 98.4478 135.642 98.4837C135.579 98.5197 135.507 98.538 135.434 98.5366Z" fill="#A4A4A4"/>
<path d="M137.034 19.2559V32.6172L148.607 39.296V25.9347L137.034 19.2559Z" fill="#FAFAFA"/>
<path d="M138.289 19.9755L148.623 25.9346V37.8488L138.304 31.8936V19.9755M137.675 18.8921L137.05 19.2709V32.6323L148.623 39.2959L149.248 38.9171V25.5747L137.66 18.8921H137.675Z" fill="#337EF0"/>
<path d="M137.659 20.3354L147.979 26.2944V38.2087L137.659 32.2497V20.3354ZM137.034 19.252V32.6133L148.623 39.2959V25.9345L137.034 19.2557V19.252Z" fill="#C8D4FF"/>
<path d="M138.731 29.5601L147.486 34.6137L144.899 27.8857L143.111 30.0109L141.277 27.4045L138.731 29.5601Z" fill="#337EF0"/>
<path d="M141.77 25.3625C141.784 25.6397 141.865 25.9094 142.003 26.1497C142.142 26.39 142.336 26.5941 142.569 26.7453C143.008 26.9991 143.368 26.7907 143.368 26.2831C143.353 26.0061 143.272 25.7366 143.133 25.4964C142.995 25.2562 142.801 25.052 142.569 24.9004C142.126 24.6466 141.77 24.8511 141.77 25.3625Z" fill="#337EF0"/>
<path d="M152.073 35.428V46.0731L161.29 51.3957V40.7506L152.073 35.428Z" fill="#FAFAFA"/>
<path d="M153.07 36.0076L161.29 40.7506V50.2631L153.07 45.5163V36.0455M152.57 35.178L152.073 35.4659V46.1111L161.29 51.3995L161.79 51.1116V40.4665L152.57 35.1628V35.178Z" fill="#337EF0"/>
<path d="M152.57 36.2955L160.79 41.0385V50.532L152.57 45.7852V36.2955ZM152.073 35.428V46.0731L161.29 51.3995V40.7543L152.073 35.4507V35.428Z" fill="#C8D4FF"/>
<path d="M153.427 43.6372L160.397 47.6642L158.34 42.3038L156.912 44.0009L155.454 41.9211L153.427 43.6372Z" fill="#337EF0"/>
<path d="M155.843 40.2961C155.855 40.5169 155.919 40.7317 156.029 40.9232C156.14 41.1147 156.294 41.2775 156.479 41.3985C156.832 41.5992 157.116 41.4363 157.116 41.0196C157.104 40.7987 157.04 40.5836 156.93 40.392C156.819 40.2004 156.665 40.0377 156.479 39.9172C156.127 39.724 155.843 39.8907 155.843 40.2961Z" fill="#337EF0"/>
<path d="M147.513 119.634C147.513 119.634 143.482 115.698 145.778 109.107C147.062 105.413 151.32 102.701 153.734 102.443C152.931 103.397 152.291 104.478 151.839 105.64L148.786 107.671L151.593 106.792L150.995 109.194C150.995 109.194 148.385 110.774 147.998 111.118L150.813 110.383C150.813 110.383 150.608 117.187 147.513 119.634Z" fill="#337EF0"/>
<path opacity="0.4" d="M147.513 119.634C147.513 119.634 143.482 115.698 145.778 109.107C147.062 105.413 151.32 102.701 153.734 102.443C152.931 103.397 152.291 104.478 151.839 105.64L148.786 107.671L151.593 106.792L150.995 109.194C150.995 109.194 148.385 110.774 147.998 111.118L150.813 110.383C150.813 110.383 150.608 117.187 147.513 119.634Z" fill="black"/>
<path d="M147.513 119.634C147.513 119.634 145.426 111.399 148.513 106.595C148.513 106.595 144.896 110.834 147.513 119.634Z" fill="white"/>
<path d="M152.124 120.748L147.199 120.688H147.15L142.225 120.748C142.225 120.748 142.168 126.81 144.039 129.295C144.558 129.954 145.767 130.431 147.18 130.431C148.593 130.431 149.809 129.965 150.324 129.295C152.18 126.817 152.124 120.748 152.124 120.748Z" fill="#37474F"/>
<path d="M152.124 120.748C152.124 122.218 149.908 123.4 147.169 123.4C144.43 123.4 142.214 122.207 142.214 120.748C142.214 119.29 144.434 118.096 147.169 118.096C149.904 118.096 152.124 119.278 152.124 120.748Z" fill="#455A64"/>
<path d="M147.168 120.044C148.873 120.044 150.316 120.589 150.828 121.347C150.952 121.172 151.021 120.963 151.025 120.748C151.025 119.699 149.297 118.854 147.168 118.854C145.039 118.854 143.312 119.706 143.312 120.748C143.315 120.964 143.385 121.173 143.512 121.347C144.02 120.589 145.463 120.044 147.168 120.044Z" fill="#263238"/>
<path d="M147.168 120.044C145.464 120.044 144.02 120.589 143.513 121.347C144.02 122.105 145.464 122.654 147.168 122.654C148.873 122.654 150.317 122.105 150.828 121.347C150.317 120.589 148.873 120.044 147.168 120.044Z" fill="#E0E0E0"/>
<path d="M147.229 121.676C147.229 121.676 145.335 121.604 143.683 119.066C143.005 118.021 142.679 117.471 142.679 117.471L145.331 117.27L142.35 116.513L140.94 114.357L143.414 114.172C142.394 113.816 141.332 113.596 140.255 113.516C140.255 113.516 137.982 109.485 137.304 108.91C139.036 109.015 140.729 109.468 142.283 110.24C143.837 111.012 145.22 112.089 146.35 113.406C150.089 117.843 147.786 121.79 147.229 121.676Z" fill="#337EF0"/>
<path d="M147.229 121.676C147.229 121.676 148.426 114.479 140.789 110.152C140.8 110.152 148.714 113.956 147.229 121.676Z" fill="white"/>
<path d="M147.23 121.676C147.23 121.676 148.961 121.79 150.677 119.657C151.385 118.775 151.73 118.309 151.73 118.309L149.347 117.88L152.109 117.502L153.583 115.687L151.367 115.289C152.32 115.064 153.3 114.966 154.28 114.998C154.28 114.998 156.719 111.588 157.375 111.118C155.809 111.049 154.245 111.293 152.776 111.837C151.306 112.381 149.96 113.213 148.817 114.285C145.014 117.949 146.73 121.726 147.23 121.676Z" fill="#337EF0"/>
<path opacity="0.2" d="M147.23 121.676C147.23 121.676 148.961 121.79 150.677 119.657C151.385 118.775 151.73 118.309 151.73 118.309L149.347 117.88L152.109 117.502L153.583 115.687L151.367 115.289C152.32 115.064 153.3 114.966 154.28 114.998C154.28 114.998 156.719 111.588 157.375 111.118C155.809 111.049 154.245 111.293 152.776 111.837C151.306 112.381 149.96 113.213 148.817 114.285C145.014 117.949 146.73 121.726 147.23 121.676Z" fill="black"/>
<path d="M147.229 121.676C147.229 121.676 146.827 115.073 154.116 111.884C154.116 111.884 146.619 114.569 147.229 121.676Z" fill="white"/>
<path d="M72.0191 29.7493L70.2954 29.0485L70.1211 28.9765H70.1022C69.7931 28.8649 69.4634 28.8224 69.1362 28.8518C68.809 28.8813 68.4922 28.982 68.208 29.147L9.05732 63.2873C7.81425 64.0036 6.78191 65.0349 6.06431 66.2773C5.3467 67.5196 4.96916 68.9291 4.96973 70.3638V121.862C4.97003 122.409 5.1144 122.947 5.38834 123.421C5.66228 123.895 6.05613 124.288 6.5303 124.562C7.00447 124.835 7.54225 124.979 8.08957 124.978C8.6369 124.978 9.17449 124.833 9.64829 124.559L68.8558 90.3775C69.7006 89.8893 70.402 89.1873 70.8894 88.3421C71.3769 87.4969 71.6332 86.5382 71.6327 85.5625V31.1321C71.6338 30.7423 71.5346 30.3587 71.3447 30.0183L72.0191 29.7493Z" fill="#337EF0"/>
<path opacity="0.3" d="M72.0191 29.7493L70.2954 29.0485L70.1211 28.9765H70.1022C69.7931 28.8649 69.4634 28.8224 69.1362 28.8518C68.809 28.8813 68.4922 28.982 68.208 29.147L9.05732 63.2873C7.81425 64.0036 6.78191 65.0349 6.06431 66.2773C5.3467 67.5196 4.96916 68.9291 4.96973 70.3638V121.862C4.97003 122.409 5.1144 122.947 5.38834 123.421C5.66228 123.895 6.05613 124.288 6.5303 124.562C7.00447 124.835 7.54225 124.979 8.08957 124.978C8.6369 124.978 9.17449 124.833 9.64829 124.559L68.8558 90.3775C69.7006 89.8893 70.402 89.1873 70.8894 88.3421C71.3769 87.4969 71.6332 86.5382 71.6327 85.5625V31.1321C71.6338 30.7423 71.5346 30.3587 71.3447 30.0183L72.0191 29.7493Z" fill="black"/>
<path d="M73.2009 31.7534V86.2028C73.2016 87.1784 72.9448 88.137 72.4566 88.9817C71.9684 89.8264 71.266 90.5274 70.4203 91.0139L11.2127 125.2C10.7385 125.473 10.2008 125.616 9.65359 125.616C9.10639 125.615 8.5689 125.471 8.09501 125.197C7.62111 124.924 7.22746 124.531 6.95352 124.057C6.67958 123.583 6.53496 123.046 6.53418 122.499V70.9775C6.53451 69.5657 6.90131 68.1781 7.5987 66.9506C8.12691 66.0401 8.88958 65.2879 9.80728 64.7723L70.962 29.4614C71.5551 29.4799 72.1182 29.7266 72.5339 30.1501C72.9496 30.5735 73.1858 31.1411 73.1933 31.7344L73.2009 31.7534Z" fill="#337EF0"/>
<path opacity="0.1" d="M73.2009 31.7534V86.2028C73.2016 87.1784 72.9448 88.137 72.4566 88.9817C71.9684 89.8264 71.266 90.5274 70.4203 91.0139L11.2127 125.2C10.7385 125.473 10.2008 125.616 9.65359 125.616C9.10639 125.615 8.5689 125.471 8.09501 125.197C7.62111 124.924 7.22746 124.531 6.95352 124.057C6.67958 123.583 6.53496 123.046 6.53418 122.499V70.9775C6.53451 69.5657 6.90131 68.1781 7.5987 66.9506C8.12691 66.0401 8.88958 65.2879 9.80728 64.7723L70.962 29.4614C71.5551 29.4799 72.1182 29.7266 72.5339 30.1501C72.9496 30.5735 73.1858 31.1411 73.1933 31.7344L73.2009 31.7534Z" fill="black"/>
<path d="M70.4208 91.0139L11.2133 125.2C10.755 125.468 10.2353 125.613 9.7044 125.622C9.17352 125.63 8.64938 125.502 8.18262 125.249L43.5351 72.042L73.2014 86.1989C73.2016 87.175 72.9447 88.1339 72.4566 88.9791C71.9684 89.8244 71.2663 90.5262 70.4208 91.0139Z" fill="#337EF0"/>
<path opacity="0.2" d="M70.4208 91.0139L11.2133 125.2C10.755 125.468 10.2353 125.613 9.7044 125.622C9.17352 125.63 8.64938 125.502 8.18262 125.249L43.5351 72.042L73.2014 86.1989C73.2016 87.175 72.9447 88.1339 72.4566 88.9791C71.9684 89.8244 71.2663 90.5262 70.4208 91.0139Z" fill="black"/>
<path d="M72.2045 29.8668L48.0616 80.3688C47.5861 81.361 46.9108 82.2443 46.0781 82.9635C45.2454 83.6827 44.2732 84.2223 43.2224 84.5484C42.1715 84.8745 41.0647 84.9801 39.9711 84.8587C38.8776 84.7372 37.8208 84.3913 36.8671 83.8426L7.59863 66.9619C8.09822 66.0748 8.82699 65.3382 9.70872 64.8291L70.9619 29.4614C71.4069 29.472 71.8389 29.6129 72.2045 29.8668Z" fill="#337EF0"/>
<path d="M13.6768 50.748L31.0196 40.7317V28.3174L18.4159 35.2651C16.9804 36.0553 15.7833 37.2163 14.9497 38.627C14.1161 40.0377 13.6765 41.6464 13.6768 43.285V50.748Z" fill="#337EF0"/>
<path opacity="0.5" d="M13.6768 50.748L31.0196 40.7317V28.3174L18.4159 35.2651C16.9804 36.0553 15.7833 37.2163 14.9497 38.627C14.1161 40.0377 13.6765 41.6464 13.6768 43.285V50.748Z" fill="white"/>
<path d="M85.3592 2.67041L83.7719 1.77258C81.7559 0.606914 79.4675 -0.00463098 77.1388 2.64045e-05C74.8101 0.00468379 72.5241 0.625378 70.5128 1.7991L20.9124 30.6963C18.7107 31.9785 16.8839 33.8158 15.6142 36.0248C14.3446 38.2337 13.6765 40.7371 13.6768 43.2849C13.6766 41.976 14.0221 40.6903 14.6782 39.5578C15.3344 38.4253 16.278 37.4861 17.4136 36.8353C18.5492 36.1844 19.8365 35.845 21.1453 35.8513C22.4542 35.8577 23.7382 36.2095 24.8674 36.8713L26.9434 38.0873C29.1049 39.3525 30.8977 41.1611 32.1438 43.3336C33.3899 45.5061 34.0458 47.9668 34.0465 50.4713V124.169L30.6636 132.757L37.0165 128.889L88.0868 99.2572C89.9007 98.2055 91.4061 96.6953 92.452 94.8781C93.498 93.0608 94.0476 91.0005 94.0458 88.9038V17.7441C94.0454 14.6908 93.2427 11.6912 91.7181 9.04569C90.1936 6.40021 88.0008 4.20172 85.3592 2.67041Z" fill="#337EF0"/>
<path opacity="0.7" d="M85.3592 2.67041L83.7719 1.77258C81.7559 0.606914 79.4675 -0.00463098 77.1388 2.64045e-05C74.8101 0.00468379 72.5241 0.625378 70.5128 1.7991L20.9124 30.6963C18.7107 31.9785 16.8839 33.8158 15.6142 36.0248C14.3446 38.2337 13.6765 40.7371 13.6768 43.2849C13.6766 41.976 14.0221 40.6903 14.6782 39.5578C15.3344 38.4253 16.278 37.4861 17.4136 36.8353C18.5492 36.1844 19.8365 35.845 21.1453 35.8513C22.4542 35.8577 23.7382 36.2095 24.8674 36.8713L26.9434 38.0873C29.1049 39.3525 30.8977 41.1611 32.1438 43.3336C33.3899 45.5061 34.0458 47.9668 34.0465 50.4713V124.169L30.6636 132.757L37.0165 128.889L88.0868 99.2572C89.9007 98.2055 91.4061 96.6953 92.452 94.8781C93.498 93.0608 94.0476 91.0005 94.0458 88.9038V17.7441C94.0454 14.6908 93.2427 11.6912 91.7181 9.04569C90.1936 6.40021 88.0008 4.20172 85.3592 2.67041Z" fill="white"/>
<path d="M15.7334 126.06C15.7334 126.06 19.2906 131.261 25.0072 132.985C31.1556 134.837 34.0461 130.761 34.0461 125.355V115.577L15.7334 126.06Z" fill="#337EF0"/>
<path opacity="0.5" d="M15.7334 126.06C15.7334 126.06 19.2906 131.261 25.0072 132.985C31.1556 134.837 34.0461 130.761 34.0461 125.355V115.577L15.7334 126.06Z" fill="white"/>
<path d="M45.097 73.7505C44.9741 73.7486 44.8552 73.7067 44.7583 73.6312C44.6614 73.5556 44.5919 73.4505 44.5601 73.3318C44.5284 73.2131 44.5363 73.0872 44.5826 72.9734C44.6289 72.8596 44.7111 72.764 44.8166 72.7011L82.6998 50.8198C82.8289 50.7455 82.9822 50.7255 83.1261 50.7642C83.27 50.8029 83.3926 50.8972 83.4669 51.0263C83.5413 51.1554 83.5613 51.3087 83.5225 51.4526C83.4838 51.5965 83.3895 51.7191 83.2604 51.7934L45.3773 73.6747C45.2919 73.7235 45.1954 73.7496 45.097 73.7505Z" fill="white"/>
<path d="M45.0976 82.1416C44.9744 82.1413 44.8547 82.1005 44.757 82.0254C44.6593 81.9503 44.5891 81.8451 44.5572 81.7261C44.5253 81.6071 44.5335 81.4809 44.5805 81.367C44.6275 81.2531 44.7107 81.1579 44.8173 81.096L82.7004 59.2109C82.8295 59.1366 82.9829 59.1166 83.1267 59.1553C83.2706 59.194 83.3932 59.2883 83.4676 59.4174C83.5419 59.5465 83.5619 59.6999 83.5232 59.8437C83.4845 59.9876 83.3902 60.1102 83.2611 60.1845L45.378 82.0848C45.2908 82.127 45.1944 82.1465 45.0976 82.1416Z" fill="white"/>
<path d="M45.0976 90.5289C44.9744 90.5286 44.8547 90.4878 44.757 90.4127C44.6593 90.3376 44.5891 90.2324 44.5572 90.1134C44.5253 89.9944 44.5335 89.8682 44.5805 89.7543C44.6275 89.6404 44.7107 89.5452 44.8173 89.4833L82.7004 67.602C82.8285 67.5354 82.9773 67.5208 83.1159 67.5612C83.2545 67.6016 83.3721 67.6939 83.4444 67.8189C83.5166 67.9438 83.5379 68.0919 83.5038 68.2321C83.4696 68.3724 83.3827 68.494 83.2611 68.5718L45.378 90.4531C45.2925 90.5019 45.196 90.528 45.0976 90.5289Z" fill="white"/>
<path d="M45.0976 98.9163C44.9744 98.9161 44.8547 98.8752 44.757 98.8001C44.6593 98.725 44.5891 98.6199 44.5572 98.5009C44.5253 98.3818 44.5335 98.2556 44.5805 98.1417C44.6275 98.0278 44.7107 97.9326 44.8173 97.8708L82.7004 75.9895C82.8285 75.9229 82.9773 75.9083 83.1159 75.9487C83.2545 75.9891 83.3721 76.0814 83.4444 76.2063C83.5166 76.3313 83.5379 76.4793 83.5038 76.6196C83.4696 76.7598 83.3827 76.8815 83.2611 76.9593L45.378 98.8406C45.2932 98.891 45.1963 98.9172 45.0976 98.9163Z" fill="white"/>
<path d="M45.0976 107.304C44.9744 107.303 44.8547 107.262 44.757 107.187C44.6593 107.112 44.5891 107.007 44.5572 106.888C44.5253 106.769 44.5335 106.643 44.5805 106.529C44.6275 106.415 44.7107 106.32 44.8173 106.258L82.7004 84.3767C82.8285 84.3101 82.9773 84.2955 83.1159 84.3359C83.2545 84.3763 83.3721 84.4686 83.4444 84.5935C83.5166 84.7185 83.5379 84.8665 83.5038 85.0068C83.4696 85.147 83.3827 85.2687 83.2611 85.3465L45.378 107.228C45.2932 107.278 45.1963 107.304 45.0976 107.304Z" fill="white"/>
<path d="M69.9746 101.326C69.8762 101.326 69.7793 101.301 69.6941 101.251C69.6088 101.202 69.5383 101.131 69.4897 101.045C69.4179 100.917 69.3991 100.766 69.4374 100.625C69.4756 100.483 69.5678 100.362 69.6943 100.288L82.7072 92.7641C82.8352 92.6975 82.9841 92.6829 83.1226 92.7233C83.2612 92.7637 83.3789 92.856 83.4511 92.981C83.5234 93.1059 83.5446 93.254 83.5105 93.3942C83.4763 93.5345 83.3894 93.6561 83.2678 93.7339L70.255 101.254C70.1692 101.301 70.0727 101.326 69.9746 101.326Z" fill="white"/>
<path d="M71.4785 42.1712L60.5605 48.475V43.0956C60.5605 39.3565 62.8335 35.0113 65.6407 33.3899L66.3983 32.9542C69.2017 31.3328 71.4785 33.0527 71.4785 36.7918V42.1712Z" fill="#337EF0"/>
<path d="M74.0204 43.9555L58.0186 53.1952L60.5605 47.3081L71.4784 41.0044L74.0204 43.9555Z" fill="#337EF0"/>
<path d="M66.0388 34.9468C65.5652 35.2195 65.1826 34.9998 65.1826 34.4543V32.3593C65.1991 32.0626 65.2852 31.7739 65.4339 31.5165C65.5827 31.2592 65.7899 31.0405 66.0388 30.8781C66.5085 30.6053 66.8911 30.8251 66.8911 31.3706V33.4693C66.8745 33.7651 66.7887 34.0528 66.6407 34.3094C66.4926 34.566 66.2865 34.7843 66.0388 34.9468Z" fill="#337EF0"/>
<path d="M64.2012 50.4145C64.2466 51.5017 65.0422 51.9298 66.0196 51.3654C66.5317 51.0305 66.9611 50.5837 67.2754 50.0587C67.5898 49.5338 67.7808 48.9443 67.8342 48.3347L64.2012 50.4145Z" fill="#337EF0"/>
<path d="M119.84 34.034C124.24 34.034 127.807 30.4671 127.807 26.0672C127.807 21.6672 124.24 18.1003 119.84 18.1003C115.44 18.1003 111.873 21.6672 111.873 26.0672C111.873 30.4671 115.44 34.034 119.84 34.034Z" fill="#FC39FC"/>
<path d="M118.42 32.2612C118.42 32.2612 119.132 34.7918 116.249 37.1406C116.249 37.1406 120.689 36.6936 120.931 32.4734L118.42 32.2612Z" fill="#FC39FC"/>
<path d="M120.624 26.8022H118.911L118.483 22.6919H121.052L120.624 26.8022ZM119.768 29.454C119.61 29.4648 119.452 29.4437 119.303 29.3919C119.153 29.34 119.016 29.2587 118.899 29.1525C118.782 29.0464 118.687 28.9178 118.621 28.7743C118.555 28.6308 118.518 28.4755 118.514 28.3175C118.548 28.0087 118.694 27.7233 118.926 27.516C119.157 27.3087 119.457 27.1941 119.768 27.1941C120.078 27.1941 120.378 27.3087 120.609 27.516C120.841 27.7233 120.988 28.0087 121.022 28.3175C121.016 28.4748 120.979 28.6294 120.912 28.772C120.845 28.9145 120.751 29.0423 120.634 29.1476C120.517 29.2529 120.38 29.3336 120.231 29.385C120.082 29.4363 119.925 29.4572 119.768 29.4465V29.454Z" fill="white"/>
<path d="M104.11 56.8621C103.29 56.7986 102.467 56.9382 101.713 57.2686C100.96 57.599 100.3 58.1099 99.7911 58.7563C98.1053 60.9762 94.5367 66.2268 94.5367 66.2268C94.5367 66.2268 93.0441 64.5713 92.0667 63.4083C91.0893 62.2453 90.1726 61.2603 90.1726 61.2603C90.044 60.6343 89.9479 60.0021 89.8847 59.3662C89.8013 58.4646 89.6801 57.8508 89.0209 57.2333C88.3618 56.6159 87.8579 56.0362 87.8049 55.5665C87.7518 55.0967 87.426 54.627 87.0093 55.1081C86.5926 55.5892 86.6305 57.0667 87.5018 58.0516C87.5018 58.0516 85.9448 57.3281 85.2288 56.4795C84.5128 55.6309 83.5885 54.1535 83.1794 54.5626C82.7702 54.9717 81.986 59.3775 83.1794 60.3587C84.3727 61.3399 87.3238 63.0105 87.3238 63.0105C87.3238 63.0105 91.1803 72.451 93.8927 72.451C96.6051 72.451 101.09 65.4729 101.09 65.4729L104.11 56.8621Z" fill="#FFA8A7"/>
<path d="M99.2949 106.148L100.132 118.956C100.132 118.956 100.89 120.313 102.348 120.313L103.674 118.865C103.656 117.152 103.799 115.441 104.102 113.755C104.595 111.168 105.549 107.383 105.826 105.197L99.2949 106.148Z" fill="#FFA8A7"/>
<path d="M100.049 77.213C100.049 77.213 99.3822 81.5203 99.0526 85.7102C98.7912 89.0515 98.6207 93.6846 98.5601 95.4234C98.5456 95.8782 98.5557 96.3335 98.5904 96.7872L99.2951 106.148C99.2951 106.148 103.436 107.967 105.834 105.197C105.834 105.197 106.125 102.515 105.709 100.651C105.465 99.4745 105.494 98.2574 105.796 97.0941L108.391 86.6686V77.1221L100.049 77.213Z" fill="#37474F"/>
<path d="M102.061 80.7854C102.236 81.5509 102.617 82.2539 103.163 82.8182C103.71 83.3825 104.4 83.7865 105.159 83.9865L106.709 93.4194L108.982 85.1533V80.7854H102.061Z" fill="#263238"/>
<path d="M110.114 108.058L112.732 122.495H115.562C115.562 122.495 116.634 110.331 116.577 107.012L110.114 108.058Z" fill="#FFA8A7"/>
<path d="M101.371 77.1185C101.371 77.1185 100.818 82.6911 105.803 83.1798L108.391 99.7764L110.114 108.054C110.114 108.054 114.153 110.687 116.577 107.008C116.577 107.008 116.823 102.841 115.819 99.9696C115.558 99.2236 115.449 98.4324 115.501 97.6435C115.782 93.5749 116.554 81.6379 116.176 78.9937L113.683 75.7319L101.371 77.1185Z" fill="#37474F"/>
<path d="M110.447 57.4607H112.978L114.671 65.9124L113.557 69.5303C113.322 70.2803 113.376 71.0912 113.709 71.8033C114.467 73.455 115.872 76.6826 116.179 79.0011C115.47 79.053 114.761 78.9116 114.127 78.592C113.492 78.2725 112.956 77.7867 112.576 77.1865C112.576 77.1865 110.451 79.986 105.28 79.986C102.772 79.986 100.734 78.1411 100.048 77.2168L100.976 73.0269C101.053 72.6866 101.081 72.3371 101.06 71.9889C101.011 71.1214 100.916 69.3371 100.939 67.9809C100.939 67.9809 98.5367 67.0262 99.1542 64.0713C99.7717 61.1164 104.109 56.8735 104.109 56.8735L105.969 56.9455L110.447 57.4607Z" fill="#FC39FC"/>
<path d="M104.345 41.171C104.345 41.171 101.276 40.1065 100.526 43.247C99.7759 46.3876 102.087 49.4371 98.6318 50.4827C98.6318 50.4827 100.67 52.1799 102.466 49.0091L103.981 55.4492C103.981 55.4492 103.981 55.8015 103.443 56.0705C103.443 56.0705 112.156 58.0101 113.834 53.6611C114.066 53.9114 114.223 54.2207 114.29 54.5549C114.357 54.8891 114.33 55.2352 114.213 55.5553C114.213 55.5553 116.785 54.5135 116.062 51.1836C116.062 51.1836 118.096 51.1267 118.581 49.4712C118.581 49.4712 115.327 49.6266 115.346 46.0352C115.369 41.887 113.187 42.4894 113.187 42.4894C113.187 42.4894 110.516 38.5192 104.345 41.171Z" fill="#455A64"/>
<path d="M105.97 54.1649V56.9342C105.97 56.9342 103.102 60.1239 105.898 60.3777C108.694 60.6316 110.444 57.4607 110.444 57.4607V51.604L105.97 54.1649Z" fill="#FFA8A7"/>
<path d="M110.398 50.6798V50.8389C109.402 54.7787 106.807 55.6349 105.97 55.8357L105.939 49.7403L110.273 49.7175L110.398 50.6798Z" fill="#F28F8F"/>
<path d="M106.254 41.9287C104.599 42.0651 101.159 43.2736 101.11 47.6339C101.061 51.9943 101.724 55.3204 103.985 55.4568C106.247 55.5932 111.297 53.5626 111.532 47.8801C111.766 42.1977 107.865 41.7772 106.254 41.9287Z" fill="#FFA8A7"/>
<path d="M104.159 49.3652L104.201 51.9261L102.693 51.4905L104.159 49.3652Z" fill="#F28F8F"/>
<path d="M106.409 49.2969C106.411 49.4006 106.382 49.5026 106.326 49.59C106.271 49.6774 106.19 49.7462 106.095 49.7876C106 49.829 105.895 49.8412 105.792 49.8226C105.69 49.8041 105.596 49.7556 105.522 49.6833C105.447 49.6111 105.396 49.5183 105.375 49.4168C105.353 49.3154 105.362 49.2098 105.401 49.1136C105.44 49.0173 105.506 48.9347 105.592 48.8763C105.677 48.8179 105.778 48.7863 105.882 48.7855C105.95 48.784 106.018 48.7961 106.082 48.8211C106.146 48.8461 106.203 48.8834 106.252 48.931C106.301 48.9786 106.341 49.0355 106.367 49.0983C106.394 49.1611 106.408 49.2286 106.409 49.2969Z" fill="#263238"/>
<path d="M102.973 48.9826C102.975 49.0511 102.963 49.1192 102.938 49.183C102.913 49.2468 102.876 49.305 102.828 49.3543C102.78 49.4036 102.724 49.443 102.661 49.4702C102.598 49.4975 102.53 49.512 102.462 49.513C102.358 49.5152 102.256 49.4867 102.169 49.4309C102.082 49.3752 102.013 49.2948 101.972 49.2C101.93 49.1051 101.918 49 101.936 48.8981C101.954 48.7962 102.002 48.702 102.074 48.6274C102.146 48.5529 102.238 48.5014 102.34 48.4794C102.441 48.4575 102.546 48.4661 102.643 48.5041C102.739 48.5421 102.822 48.6079 102.881 48.6931C102.939 48.7783 102.972 48.8791 102.973 48.9826Z" fill="#263238"/>
<path d="M105.569 52.7556C105.001 52.9005 104.442 53.0775 103.894 53.286C103.894 53.286 103.739 52.3957 104.478 52.1911C104.697 52.1448 104.925 52.1757 105.124 52.2786C105.323 52.3815 105.48 52.55 105.569 52.7556Z" fill="#F28F8F"/>
<path d="M102.784 47.0544L101.772 47.6719C101.772 47.6719 102.151 48.0735 102.553 47.8235C102.664 47.7334 102.746 47.6118 102.787 47.4746C102.828 47.3374 102.827 47.191 102.784 47.0544Z" fill="#263238"/>
<path d="M108.914 49.2819C108.914 49.2819 108.876 50.8957 109.933 50.8957H112.005V47.3991C112.005 43.4744 109.027 39.3755 102.693 42.6183C102.693 42.6183 102.322 48.0772 108.914 49.2819Z" fill="#455A64"/>
<path d="M101.932 50.8085C100.947 50.8085 100.144 50.1266 100.144 49.2932C100.144 48.4597 100.947 47.7778 101.932 47.7778C102.917 47.7778 103.72 48.4597 103.72 49.2932C103.72 50.1266 102.917 50.8085 101.932 50.8085ZM101.932 48.0695C101.117 48.0695 100.454 48.615 100.454 49.2818C100.454 49.9485 101.117 50.4978 101.932 50.4978C102.746 50.4978 103.409 49.9523 103.409 49.2818C103.409 48.6113 102.746 48.0695 101.932 48.0695Z" fill="black"/>
<path d="M106.329 50.82C105.227 50.82 104.325 50.1305 104.325 49.2819C104.325 48.4333 105.227 47.7666 106.329 47.7666C107.432 47.7666 108.333 48.4561 108.333 49.2819C108.333 50.1078 107.435 50.82 106.329 50.82ZM106.329 48.0772C105.409 48.0772 104.655 48.619 104.655 49.2819C104.655 49.9449 105.412 50.4904 106.329 50.4904C107.246 50.4904 108.004 49.9487 108.004 49.2819C108.004 48.6152 107.254 48.0772 106.329 48.0772Z" fill="black"/>
<path d="M104.493 49.1189H103.564V49.4485H104.493V49.1189Z" fill="black"/>
<path d="M110.565 49.1189H108.171V49.4485H110.565V49.1189Z" fill="black"/>
<path d="M109.925 50.6834C109.912 50.2836 109.99 49.886 110.153 49.5204C110.232 49.2928 110.376 49.0933 110.567 48.9466C110.758 48.7998 110.988 48.7122 111.228 48.6946C112.463 48.6756 112.615 49.8651 112.596 50.2856C112.539 51.3956 111.63 52.5852 109.944 52.6117L109.925 50.6834Z" fill="#FFA8A7"/>
<path d="M112.979 57.4608C112.979 57.4608 110.092 64.3631 114.672 65.9125L115.676 63.7683C115.676 63.7683 124.056 56.0932 126.105 54.4112C128.155 52.7292 125.526 50.2441 122.984 47.9143C120.442 45.5844 117.892 43.3304 117.892 43.3304L116.619 41.0764C116.479 40.8302 116.289 40.6165 116.06 40.4494C115.832 40.2822 115.57 40.1654 115.294 40.1066C113.96 39.83 111.448 39.3489 110.092 39.4284C108.198 39.5307 111.058 41.8908 111.539 41.8908C111.973 41.9038 112.396 42.0276 112.768 42.2504C113.14 42.4732 113.449 42.7877 113.665 43.1637C114.24 44.1903 114.343 46.039 116.18 45.9557L120.438 52.3163L112.979 57.4608Z" fill="#FFA8A7"/>
<path d="M120.437 52.3162L121.915 54.2065L119.611 52.8882L120.437 52.3162Z" fill="#F28F8F"/>
<path d="M94.5371 66.2307L95.8517 67.7499L95.0902 65.4238L94.5371 66.2307Z" fill="#F28F8F"/>
<path opacity="0.2" d="M105.89 68.1172C105.89 68.1172 109.678 68.4241 110.852 64.8252C110.852 64.8252 110.898 69.4128 105.89 68.1172Z" fill="black"/>
<path d="M99.7719 119.51C99.7719 119.51 99.2453 117.858 100.06 117.771C100.874 117.684 102.314 118.116 102.458 118.547C102.546 118.833 102.582 119.132 102.564 119.43C102.961 119.296 103.337 119.106 103.681 118.866V118.256C103.681 118.256 104.53 118.339 104.594 118.976C104.659 119.612 104.67 120.389 104.697 121.112C104.746 122.574 104.962 123.552 103.299 123.984C102.113 124.282 101.042 124.925 100.223 125.832C99.6542 126.433 98.9463 126.883 98.1619 127.144C97.3775 127.405 96.5408 127.469 95.726 127.329C93.2219 126.98 93.3659 124.866 94.2485 124.188C95.0969 123.564 96.0041 123.023 96.9572 122.574L99.7719 119.51Z" fill="#FC39FC"/>
<path d="M98.8777 124.181C98.84 124.182 98.8029 124.172 98.7707 124.152C98.7384 124.133 98.7125 124.104 98.6958 124.071C98.2939 123.424 97.6548 122.96 96.9153 122.779C96.8884 122.773 96.8629 122.762 96.8402 122.746C96.8176 122.73 96.7984 122.71 96.7836 122.687C96.7688 122.664 96.7587 122.638 96.754 122.611C96.7493 122.584 96.7501 122.556 96.7562 122.529C96.762 122.502 96.773 122.477 96.7886 122.455C96.8042 122.433 96.824 122.414 96.8469 122.4C96.8698 122.385 96.8953 122.376 96.922 122.371C96.9487 122.367 96.9761 122.367 97.0024 122.374C97.4289 122.476 97.8305 122.664 98.1838 122.924C98.537 123.184 98.8347 123.512 99.0595 123.889C99.0767 123.92 99.0854 123.955 99.0847 123.991C99.0841 124.027 99.074 124.062 99.0556 124.093C99.0372 124.123 99.0111 124.149 98.9799 124.166C98.9487 124.183 98.9134 124.192 98.8777 124.192V124.181Z" fill="#FAFAFA"/>
<path d="M99.8368 123.158C99.7992 123.159 99.7621 123.149 99.7298 123.129C99.6976 123.11 99.6716 123.082 99.655 123.048C99.2531 122.401 98.614 121.937 97.8745 121.756C97.8209 121.744 97.7741 121.712 97.7443 121.666C97.7145 121.619 97.7041 121.563 97.7154 121.51C97.7208 121.483 97.7315 121.458 97.7468 121.435C97.7622 121.412 97.782 121.393 97.8049 121.378C97.8279 121.363 97.8536 121.353 97.8805 121.349C97.9074 121.344 97.935 121.345 97.9616 121.351C98.3883 121.453 98.7902 121.64 99.1435 121.9C99.4968 122.16 99.7944 122.489 100.019 122.866C100.044 122.914 100.05 122.971 100.034 123.023C100.019 123.076 99.9833 123.12 99.9353 123.146C99.9037 123.157 99.8701 123.161 99.8368 123.158Z" fill="#FAFAFA"/>
<path d="M100.795 122.135C100.758 122.135 100.721 122.125 100.689 122.105C100.657 122.086 100.631 122.058 100.613 122.025C100.209 121.38 99.5711 120.917 98.8328 120.733C98.7799 120.721 98.734 120.688 98.705 120.642C98.676 120.596 98.6661 120.54 98.6775 120.487C98.6824 120.46 98.6927 120.435 98.7077 120.412C98.7227 120.39 98.7421 120.371 98.7647 120.356C98.7874 120.341 98.8128 120.331 98.8395 120.326C98.8661 120.321 98.8935 120.322 98.9199 120.328C99.347 120.431 99.7493 120.617 100.103 120.878C100.457 121.138 100.755 121.466 100.981 121.843C101.006 121.892 101.011 121.949 100.995 122.001C100.979 122.054 100.942 122.098 100.894 122.124C100.862 122.135 100.828 122.139 100.795 122.135Z" fill="#FAFAFA"/>
<path d="M112.732 122.495C112.701 122.333 112.708 122.166 112.752 122.008C112.796 121.849 112.876 121.703 112.986 121.58C113.096 121.458 113.233 121.362 113.386 121.301C113.539 121.241 113.704 121.216 113.868 121.229C115.194 121.229 116.141 121.267 116.024 122.252V122.957C116.024 122.957 116.024 126.469 116.289 127.605C116.554 128.742 117.206 132.341 114.501 132.867C111.796 133.394 110.811 131.087 111.304 128.901C111.609 127.669 111.794 126.41 111.857 125.143C111.917 124.343 111.611 121.419 112.489 121.229L112.732 122.495Z" fill="#FC39FC"/>
<path d="M115.209 126.844C115.174 126.843 115.14 126.832 115.111 126.813C114.424 126.484 113.635 126.436 112.914 126.681C112.888 126.69 112.861 126.695 112.834 126.694C112.807 126.693 112.78 126.687 112.756 126.676C112.731 126.664 112.709 126.648 112.69 126.628C112.672 126.608 112.658 126.585 112.648 126.56C112.639 126.534 112.634 126.507 112.635 126.479C112.636 126.452 112.642 126.425 112.653 126.4C112.664 126.375 112.681 126.352 112.7 126.334C112.72 126.315 112.744 126.3 112.77 126.291C113.184 126.148 113.622 126.089 114.059 126.117C114.496 126.145 114.923 126.26 115.315 126.454C115.363 126.481 115.398 126.527 115.412 126.58C115.426 126.633 115.419 126.69 115.391 126.738C115.373 126.77 115.347 126.797 115.315 126.816C115.283 126.835 115.246 126.844 115.209 126.844Z" fill="#FAFAFA"/>
<path d="M115.353 125.272C115.318 125.27 115.283 125.261 115.251 125.245C114.566 124.913 113.778 124.864 113.058 125.109C113.032 125.123 113.004 125.131 112.975 125.133C112.945 125.135 112.916 125.131 112.889 125.121C112.861 125.111 112.836 125.095 112.816 125.075C112.795 125.054 112.779 125.029 112.768 125.002C112.758 124.975 112.753 124.945 112.755 124.916C112.757 124.887 112.765 124.859 112.779 124.833C112.793 124.807 112.812 124.784 112.835 124.767C112.858 124.749 112.885 124.736 112.914 124.73C113.327 124.586 113.765 124.526 114.201 124.554C114.638 124.582 115.064 124.697 115.456 124.893C115.479 124.906 115.5 124.923 115.517 124.945C115.534 124.966 115.547 124.99 115.554 125.016C115.562 125.042 115.564 125.07 115.56 125.097C115.557 125.123 115.549 125.15 115.535 125.173C115.516 125.204 115.489 125.229 115.457 125.246C115.426 125.264 115.39 125.272 115.353 125.272Z" fill="#FAFAFA"/>
<path d="M115.497 123.722C115.462 123.72 115.427 123.711 115.395 123.696C114.708 123.366 113.92 123.318 113.198 123.559C113.172 123.574 113.143 123.583 113.114 123.585C113.084 123.587 113.055 123.583 113.027 123.573C112.999 123.563 112.974 123.547 112.953 123.526C112.932 123.505 112.916 123.48 112.905 123.452C112.895 123.424 112.891 123.395 112.893 123.365C112.896 123.336 112.904 123.307 112.919 123.281C112.933 123.255 112.953 123.233 112.977 123.215C113.001 123.198 113.029 123.186 113.058 123.18C113.471 123.036 113.908 122.976 114.345 123.004C114.782 123.032 115.208 123.147 115.6 123.343C115.623 123.356 115.644 123.374 115.661 123.395C115.678 123.416 115.691 123.441 115.698 123.467C115.705 123.493 115.708 123.52 115.704 123.547C115.701 123.574 115.692 123.6 115.679 123.624C115.66 123.654 115.633 123.68 115.601 123.697C115.569 123.714 115.534 123.723 115.497 123.722Z" fill="#FAFAFA"/>
<path d="M96.0101 123.059C95.396 123.395 94.8072 123.775 94.2485 124.196C93.3659 124.874 93.2219 126.988 95.726 127.336C96.7802 127.51 97.8623 127.35 98.821 126.878C98.7034 126.059 98.3853 125.282 97.8949 124.616C97.4045 123.95 96.757 123.415 96.0101 123.059Z" fill="white"/>
<path d="M103.299 123.662C102.113 123.96 101.042 124.603 100.223 125.51C99.6541 126.111 98.9462 126.561 98.1618 126.822C97.3774 127.083 96.5407 127.147 95.7259 127.007C94.3242 126.814 93.7522 126.063 93.6764 125.321C93.6044 126.154 94.1197 127.105 95.7259 127.329C96.5407 127.469 97.3774 127.405 98.1618 127.144C98.9462 126.883 99.6541 126.433 100.223 125.832C101.042 124.925 102.113 124.282 103.299 123.984C104.609 123.646 104.753 122.965 104.731 121.976C104.704 122.79 104.462 123.378 103.299 123.662Z" fill="#37474F"/>
<path d="M116.532 128.988C115.848 128.291 114.918 127.891 113.941 127.875C112.965 127.859 112.022 128.227 111.315 128.901C110.823 131.087 111.808 133.394 114.513 132.867C116.475 132.469 116.676 130.492 116.532 128.988Z" fill="#F5F5F5"/>
<path d="M114.527 132.439C112.353 132.863 111.292 131.454 111.212 129.749C111.122 131.644 112.171 133.326 114.527 132.867C116.274 132.526 116.622 130.912 116.581 129.503C116.524 130.795 116.08 132.132 114.527 132.439Z" fill="#455A64"/>
</svg>
