<svg width="40" height="40" viewBox="0 0 40 40" fill="none" xmlns="http://www.w3.org/2000/svg">
<circle cx="20" cy="20" r="19" fill="#FFE9FF" stroke="#EFDDF0" stroke-width="2"/>
<g clip-path="url(#clip0_271_257)">
<path d="M21.0835 10.4117C20.9781 10.1817 20.9386 9.92788 20.9692 9.67751C20.9998 9.42714 21.0993 9.1897 21.2571 8.99073C21.4149 8.79176 21.625 8.63879 21.8647 8.5483C22.1044 8.4578 22.3648 8.43319 22.6177 8.47711C24.8831 8.87271 26.9947 9.87042 28.723 11.3618C30.4512 12.8532 31.73 14.7811 32.4203 16.9361C33.1106 19.0911 33.1859 21.3906 32.6382 23.5846C32.0904 25.7787 30.9405 27.7834 29.3135 29.3807C27.6865 30.9781 25.6446 32.107 23.4097 32.6448C21.1749 33.1825 18.8327 33.1085 16.6377 32.4309C14.4427 31.7532 12.4789 30.4977 10.9599 28.801C9.44079 27.1042 8.42454 25.0311 8.0216 22.807C7.97685 22.5587 8.00192 22.3031 8.0941 22.0678C8.18628 21.8324 8.34209 21.6262 8.54475 21.4712C8.74742 21.3163 8.98927 21.2186 9.2443 21.1886C9.49932 21.1586 9.75785 21.1974 9.99208 21.3008C11.5443 21.9849 13.2716 22.1896 14.945 21.8877C16.6184 21.5859 18.1588 20.7917 19.3618 19.6105C20.5649 18.4294 21.3738 16.9171 21.6813 15.2742C21.9888 13.6314 21.7803 11.9355 21.0835 10.4117ZM11.4171 14.764L11.5066 14.9563C11.8882 15.7302 12.4888 16.3799 13.2366 16.8276L13.3764 16.9086C13.391 16.9168 13.403 16.9286 13.4114 16.9428C13.4198 16.9571 13.4242 16.9732 13.4242 16.9897C13.4242 17.0061 13.4198 17.0222 13.4114 17.0365C13.403 17.0507 13.391 17.0625 13.3764 17.0707L13.2366 17.1503C12.4886 17.5984 11.888 18.2486 11.5066 19.0231L11.4171 19.2153C11.4094 19.2326 11.3967 19.2473 11.3805 19.2577C11.3644 19.268 11.3455 19.2735 11.3262 19.2735C11.307 19.2735 11.2881 19.268 11.272 19.2577C11.2558 19.2473 11.2431 19.2326 11.2353 19.2153L11.1458 19.0231C10.7645 18.2486 10.1639 17.5984 9.4159 17.1503L9.27605 17.0707C9.26152 17.0625 9.24945 17.0507 9.24105 17.0365C9.23265 17.0222 9.22823 17.0061 9.22823 16.9897C9.22823 16.9732 9.23265 16.9571 9.24105 16.9428C9.24945 16.9286 9.26152 16.9168 9.27605 16.9086L9.4159 16.8276C10.1634 16.3794 10.7635 15.7292 11.1444 14.9549L11.2339 14.7627C11.2417 14.7453 11.2544 14.7306 11.2706 14.7203C11.2867 14.7099 11.3056 14.7044 11.3248 14.7044C11.3441 14.7044 11.363 14.7099 11.3791 14.7203C11.3953 14.7306 11.408 14.7453 11.4157 14.7627L11.4171 14.764ZM15.3777 8.09268C15.4336 7.96911 15.6098 7.96911 15.6658 8.09268L15.8084 8.39748C16.4156 9.6309 17.3722 10.6663 18.5634 11.3796L18.783 11.5059C18.8066 11.5188 18.8263 11.5376 18.84 11.5604C18.8537 11.5832 18.8609 11.6092 18.8609 11.6357C18.8609 11.6622 18.8537 11.6882 18.84 11.711C18.8263 11.7338 18.8066 11.7526 18.783 11.7654L18.562 11.8917C17.272 12.6647 16.26 13.8138 15.6672 15.1787C15.6548 15.2063 15.6346 15.2298 15.6089 15.2463C15.5832 15.2628 15.5531 15.2716 15.5224 15.2716C15.4917 15.2716 15.4617 15.2628 15.436 15.2463C15.4103 15.2298 15.39 15.2063 15.3777 15.1787L15.235 14.8739C14.6278 13.6405 13.6713 12.6051 12.48 11.8917L12.259 11.7654C12.2354 11.7526 12.2158 11.7338 12.202 11.711C12.1883 11.6882 12.1811 11.6622 12.1811 11.6357C12.1811 11.6092 12.1883 11.5832 12.202 11.5604C12.2158 11.5376 12.2354 11.5188 12.259 11.5059L12.48 11.3796C13.6713 10.6663 14.6278 9.6309 15.235 8.39748L15.3777 8.09268Z" fill="url(#paint0_linear_271_257)" fill-opacity="0.996078"/>
</g>
<defs>
<linearGradient id="paint0_linear_271_257" x1="21" y1="14" x2="21" y2="33" gradientUnits="userSpaceOnUse">
<stop stop-color="#F574F5"/>
<stop offset="1" stop-color="#961496"/>
</linearGradient>
<clipPath id="clip0_271_257">
<rect width="40" height="40" fill="white"/>
</clipPath>
</defs>
</svg>
