<svg width="1035" height="105" viewBox="0 0 1035 105" fill="none" xmlns="http://www.w3.org/2000/svg">
<path d="M99.7915 42.499C112.133 42.499 121.514 44.8067 127.935 49.422C134.356 53.937 137.567 60.8098 137.567 70.0405C137.567 75.1575 136.764 79.7728 135.159 83.8865C133.554 88.0002 130.995 91.4617 127.484 94.271C123.972 97.0803 119.457 99.2375 113.939 100.742C108.521 102.247 101.999 103 94.3735 103H0.612L20.6285 77.114H96.7815C100.494 77.114 103.203 76.5622 104.909 75.4585C106.614 74.2545 107.467 72.3482 107.467 69.7395C107.467 67.1308 106.614 65.2747 104.909 64.171C103.203 63.0673 100.494 62.5155 96.7815 62.5155H41.9995C35.4778 62.5155 29.8592 61.8132 25.1435 60.4085C20.4278 59.0038 16.5148 57.0473 13.4045 54.539C10.2942 52.0307 7.9865 49.0207 6.4815 45.509C4.9765 41.897 4.224 37.9338 4.224 33.6195C4.224 28.9038 5.02667 24.6397 6.632 20.827C8.33767 16.914 10.8962 13.603 14.3075 10.894C17.8192 8.18499 22.284 6.07799 27.702 4.57299C33.2203 3.06799 39.7922 2.3155 47.4175 2.3155H134.858L114.842 28.5025H45.0095C41.3975 28.5025 38.6885 29.0042 36.8825 30.0075C35.1768 31.0108 34.324 32.8168 34.324 35.4255C34.324 38.0342 35.1768 39.8903 36.8825 40.994C38.6885 41.9973 41.3975 42.499 45.0095 42.499H99.7915ZM294.221 103H252.533L230.108 76.3615H182.249V103H151.096V51.529H238.687C243.503 51.529 247.566 50.5257 250.877 48.519C254.188 46.5123 255.844 43.7532 255.844 40.2415C255.844 36.3285 254.339 33.4188 251.329 31.5125C248.319 29.5058 244.105 28.5025 238.687 28.5025H151.096L171.413 2.3155H236.128C241.847 2.3155 247.767 2.86733 253.887 3.97099C260.007 4.97433 265.576 6.8305 270.593 9.53949C275.609 12.2485 279.723 15.9107 282.934 20.526C286.245 25.1413 287.9 31.061 287.9 38.285C287.9 42.198 287.298 45.9103 286.094 49.422C284.89 52.9337 283.134 56.0942 280.827 58.9035C278.619 61.7128 275.86 64.1208 272.549 66.1275C269.338 68.0338 265.676 69.3883 261.563 70.191C263.268 71.4953 265.175 73.1508 267.282 75.1575C269.389 77.1642 272.198 79.9233 275.71 83.435L294.221 103ZM337.029 103H305.875V2.3155H337.029V103ZM469.298 2.3155L449.131 28.5025H387.727V41.596H463.579L444.616 66.1275H387.727V103H356.423V2.3155H469.298ZM545.905 0.659999C570.387 0.659999 588.748 4.82383 600.988 13.1515C613.329 21.4792 619.5 34.6228 619.5 52.5825C619.5 70.6425 613.379 83.8363 601.139 92.164C588.898 100.492 570.487 104.656 545.905 104.656C521.223 104.656 502.762 100.492 490.521 92.164C478.381 83.8363 472.311 70.6425 472.311 52.5825C472.311 34.6228 478.431 21.4792 490.672 13.1515C502.912 4.82383 521.324 0.659999 545.905 0.659999ZM545.905 78.4685C553.731 78.4685 560.353 78.1675 565.771 77.5655C571.189 76.8632 575.554 75.5588 578.865 73.6525C582.276 71.7462 584.734 69.1375 586.239 65.8265C587.744 62.4152 588.497 58.0005 588.497 52.5825C588.497 47.1645 587.744 42.8 586.239 39.489C584.734 36.0777 582.276 33.469 578.865 31.663C575.554 29.7567 571.189 28.5025 565.771 27.9005C560.353 27.1982 553.731 26.847 545.905 26.847C538.079 26.847 531.457 27.1982 526.039 27.9005C520.621 28.5025 516.207 29.7567 512.795 31.663C509.484 33.469 507.076 36.0777 505.571 39.489C504.066 42.8 503.314 47.1645 503.314 52.5825C503.314 58.0005 504.066 62.4152 505.571 65.8265C507.076 69.1375 509.484 71.7462 512.795 73.6525C516.207 75.5588 520.621 76.8632 526.039 77.5655C531.457 78.1675 538.079 78.4685 545.905 78.4685ZM760.296 2.3155L740.129 28.5025H704.16V103H673.006V28.5025H625.749L645.916 2.3155H760.296ZM825.888 0.659999C850.369 0.659999 868.73 4.82383 880.971 13.1515C893.312 21.4792 899.483 34.6228 899.483 52.5825C899.483 70.6425 893.362 83.8363 881.122 92.164C868.881 100.492 850.47 104.656 825.888 104.656C801.206 104.656 782.745 100.492 770.504 92.164C758.364 83.8363 752.294 70.6425 752.294 52.5825C752.294 34.6228 758.414 21.4792 770.655 13.1515C782.895 4.82383 801.306 0.659999 825.888 0.659999ZM825.888 78.4685C833.714 78.4685 840.336 78.1675 845.754 77.5655C851.172 76.8632 855.537 75.5588 858.848 73.6525C862.259 71.7462 864.717 69.1375 866.222 65.8265C867.727 62.4152 868.48 58.0005 868.48 52.5825C868.48 47.1645 867.727 42.8 866.222 39.489C864.717 36.0777 862.259 33.469 858.848 31.663C855.537 29.7567 851.172 28.5025 845.754 27.9005C840.336 27.1982 833.714 26.847 825.888 26.847C818.062 26.847 811.44 27.1982 806.022 27.9005C800.604 28.5025 796.189 29.7567 792.778 31.663C789.467 33.469 787.059 36.0777 785.554 39.489C784.049 42.8 783.297 47.1645 783.297 52.5825C783.297 58.0005 784.049 62.4152 785.554 65.8265C787.059 69.1375 789.467 71.7462 792.778 73.6525C796.189 75.5588 800.604 76.8632 806.022 77.5655C811.44 78.1675 818.062 78.4685 825.888 78.4685ZM1017.25 104.656C1015.25 104.656 1013.24 104.304 1011.23 103.602C1009.33 103 1007.17 101.545 1004.76 99.2375L943.056 43.8535V103H914.762V19.4725C914.762 16.1615 915.213 13.302 916.116 10.894C917.12 8.48599 918.374 6.5295 919.879 5.0245C921.484 3.5195 923.29 2.41583 925.297 1.71349C927.404 1.01116 929.561 0.659999 931.768 0.659999C933.675 0.659999 935.581 1.01116 937.487 1.71349C939.494 2.31549 941.752 3.77033 944.26 6.07799L1005.96 61.462V2.3155H1034.41V85.6925C1034.41 89.0035 1033.91 91.863 1032.9 94.271C1032 96.679 1030.75 98.6857 1029.14 100.291C1027.64 101.796 1025.83 102.9 1023.72 103.602C1021.62 104.304 1019.46 104.656 1017.25 104.656Z" fill="url(#paint0_linear_551_1221)"/>
<path d="M127.935 49.422L125.6 52.6701L125.617 52.6822L125.634 52.6941L127.935 49.422ZM135.159 83.8865L138.885 85.3407L138.885 85.3407L135.159 83.8865ZM127.484 94.271L129.982 97.3945L127.484 94.271ZM113.939 100.742L112.886 96.8834L112.877 96.8859L112.868 96.8884L113.939 100.742ZM0.612 103L-2.55233 100.553L-7.53738 107H0.612V103ZM20.6285 77.114V73.114H18.6652L17.4642 74.6672L20.6285 77.114ZM104.909 75.4585L107.082 78.8168L107.149 78.7729L107.215 78.7264L104.909 75.4585ZM104.909 64.171L102.735 67.5293L102.735 67.5293L104.909 64.171ZM13.4045 54.539L15.9155 51.4253L15.9155 51.4253L13.4045 54.539ZM6.4815 45.509L2.78919 47.0475L2.79696 47.0661L2.80492 47.0847L6.4815 45.509ZM6.632 20.827L2.96522 19.2287L2.95519 19.2517L2.94546 19.2748L6.632 20.827ZM14.3075 10.894L11.8643 7.72686L11.842 7.74405L11.82 7.76155L14.3075 10.894ZM27.702 4.57299L26.6495 0.713938L26.6405 0.716408L26.6314 0.718921L27.702 4.57299ZM134.858 2.3155L138.036 4.74462L142.95 -1.6845H134.858V2.3155ZM114.842 28.5025V32.5025H116.819L118.019 30.9316L114.842 28.5025ZM36.8825 30.0075L34.9399 26.5109L34.8969 26.5348L34.8544 26.5598L36.8825 30.0075ZM36.8825 40.994L34.7095 44.3523L34.8224 44.4253L34.9399 44.4906L36.8825 40.994ZM99.7915 46.499C111.732 46.499 120.144 48.7485 125.6 52.6701L130.27 46.1739C122.883 40.8648 112.533 38.499 99.7915 38.499V46.499ZM125.634 52.6941C130.792 56.3209 133.567 61.8498 133.567 70.0405H141.567C141.567 59.7698 137.92 51.5531 130.236 46.1499L125.634 52.6941ZM133.567 70.0405C133.567 74.7379 132.831 78.8496 131.433 82.4323L138.885 85.3407C140.698 80.6961 141.567 75.5771 141.567 70.0405H133.567ZM131.433 82.4323C130.088 85.8789 127.958 88.7687 124.985 91.1475L129.982 97.3945C134.032 94.1547 137.02 90.1215 138.885 85.3407L131.433 82.4323ZM124.985 91.1475C121.999 93.5362 118.015 95.4846 112.886 96.8834L114.991 104.602C120.899 102.99 125.945 100.625 129.982 97.3945L124.985 91.1475ZM112.868 96.8884C107.897 98.2692 101.756 99 94.3735 99V107C102.241 107 109.144 106.226 115.009 104.597L112.868 96.8884ZM94.3735 99H0.612V107H94.3735V99ZM3.77633 105.447L23.7928 79.5608L17.4642 74.6672L-2.55233 100.553L3.77633 105.447ZM20.6285 81.114H96.7815V73.114H20.6285V81.114ZM96.7815 81.114C100.716 81.114 104.385 80.5614 107.082 78.8168L102.735 72.1002C102.02 72.5629 100.271 73.114 96.7815 73.114V81.114ZM107.215 78.7264C110.249 76.5851 111.467 73.2841 111.467 69.7395H103.467C103.467 71.4122 102.98 71.9239 102.602 72.1906L107.215 78.7264ZM111.467 69.7395C111.467 66.2093 110.249 62.8623 107.082 60.8127L102.735 67.5293C102.979 67.687 103.467 68.0524 103.467 69.7395H111.467ZM107.082 60.8127C104.385 59.0681 100.716 58.5155 96.7815 58.5155V66.5155C100.271 66.5155 102.02 67.0666 102.735 67.5293L107.082 60.8127ZM96.7815 58.5155H41.9995V66.5155H96.7815V58.5155ZM41.9995 58.5155C35.7469 58.5155 30.5325 57.84 26.2854 56.575L24.0016 64.242C29.1858 65.7863 35.2088 66.5155 41.9995 66.5155V58.5155ZM26.2854 56.575C21.9566 55.2855 18.5387 53.5408 15.9155 51.4253L10.8935 57.6526C14.491 60.5539 18.899 62.7221 24.0016 64.242L26.2854 56.575ZM15.9155 51.4253C13.2893 49.3074 11.394 46.8171 10.1581 43.9333L2.80492 47.0847C4.57903 51.2243 7.29903 54.7539 10.8935 57.6526L15.9155 51.4253ZM10.1738 43.9705C8.89183 40.8938 8.224 37.4601 8.224 33.6195H0.224C0.224 38.4076 1.06117 42.9002 2.78919 47.0475L10.1738 43.9705ZM8.224 33.6195C8.224 29.3628 8.94706 25.6365 10.3185 22.3792L2.94546 19.2748C1.10628 23.6428 0.224 28.4449 0.224 33.6195H8.224ZM10.2988 22.4253C11.7373 19.1252 13.8855 16.337 16.795 14.0264L11.82 7.76155C7.90687 10.869 4.93802 14.7028 2.96522 19.2287L10.2988 22.4253ZM16.7507 14.0611C19.76 11.7397 23.7242 9.8294 28.7726 8.42707L26.6314 0.718921C20.8438 2.32658 15.8783 4.63032 11.8643 7.72686L16.7507 14.0611ZM28.7545 8.43205C33.8376 7.04573 40.0375 6.3155 47.4175 6.3155V-1.6845C39.5469 -1.6845 32.603 -0.909741 26.6495 0.713938L28.7545 8.43205ZM47.4175 6.3155H134.858V-1.6845H47.4175V6.3155ZM131.68 -0.113627L111.664 26.0734L118.019 30.9316L138.036 4.74462L131.68 -0.113627ZM114.842 24.5025H45.0095V32.5025H114.842V24.5025ZM45.0095 24.5025C41.1582 24.5025 37.633 25.0147 34.9399 26.5109L38.8251 33.5041C39.744 32.9936 41.6368 32.5025 45.0095 32.5025V24.5025ZM34.8544 26.5598C31.5409 28.5089 30.324 31.9133 30.324 35.4255H38.324C38.324 34.5384 38.4712 34.0541 38.5806 33.8225C38.6675 33.6386 38.7569 33.5457 38.9106 33.4552L34.8544 26.5598ZM30.324 35.4255C30.324 38.9557 31.5419 42.3027 34.7095 44.3523L39.0555 37.6357C38.8117 37.478 38.324 37.1126 38.324 35.4255H30.324ZM34.9399 44.4906C37.633 45.9868 41.1582 46.499 45.0095 46.499V38.499C41.6368 38.499 39.744 38.0079 38.8251 37.4974L34.9399 44.4906ZM45.0095 46.499H99.7915V38.499H45.0095V46.499ZM294.221 103V107H303.512L297.127 100.251L294.221 103ZM252.533 103L249.472 105.576L250.671 107H252.533V103ZM230.108 76.3615L233.168 73.7855L231.969 72.3615H230.108V76.3615ZM182.249 76.3615V72.3615H178.249V76.3615H182.249ZM182.249 103V107H186.249V103H182.249ZM151.096 103H147.096V107H151.096V103ZM151.096 51.529V47.529H147.096V51.529H151.096ZM251.329 31.5125L249.11 34.8407L249.149 34.8667L249.188 34.8918L251.329 31.5125ZM151.096 28.5025L147.935 26.0505L142.929 32.5025H151.096V28.5025ZM171.413 2.3155V-1.6845H169.454L168.253 -0.136493L171.413 2.3155ZM253.887 3.97099L253.177 7.9075L253.209 7.91315L253.24 7.9183L253.887 3.97099ZM270.593 9.53949L272.493 6.01987L272.493 6.01987L270.593 9.53949ZM282.934 20.526L279.65 22.8103L279.666 22.8341L279.683 22.8576L282.934 20.526ZM286.094 49.422L289.878 50.7193L289.878 50.7193L286.094 49.422ZM280.827 58.9035L277.736 56.3645L277.708 56.3981L277.681 56.4322L280.827 58.9035ZM272.549 66.1275L274.591 69.5669L274.607 69.5577L274.622 69.5483L272.549 66.1275ZM261.563 70.191L260.797 66.265L252.07 67.9677L259.133 73.3684L261.563 70.191ZM267.282 75.1575L270.04 72.2609L270.04 72.2609L267.282 75.1575ZM275.71 83.435L278.615 80.6859L278.577 80.6457L278.538 80.6066L275.71 83.435ZM294.221 99H252.533V107H294.221V99ZM255.593 100.424L233.168 73.7855L227.048 78.9375L249.472 105.576L255.593 100.424ZM230.108 72.3615H182.249V80.3615H230.108V72.3615ZM178.249 76.3615V103H186.249V76.3615H178.249ZM182.249 99H151.096V107H182.249V99ZM155.096 103V51.529H147.096V103H155.096ZM151.096 55.529H238.687V47.529H151.096V55.529ZM238.687 55.529C244.056 55.529 248.878 54.4077 252.95 51.9398L248.804 45.0982C246.254 46.6436 242.949 47.529 238.687 47.529V55.529ZM252.95 51.9398C257.31 49.2974 259.844 45.3158 259.844 40.2415H251.844C251.844 42.1905 251.066 43.7273 248.804 45.0982L252.95 51.9398ZM259.844 40.2415C259.844 35.1183 257.766 30.8549 253.469 28.1332L249.188 34.8918C250.911 35.9828 251.844 37.5386 251.844 40.2415H259.844ZM253.547 28.1843C249.629 25.572 244.525 24.5025 238.687 24.5025V32.5025C243.684 32.5025 247.008 33.4397 249.11 34.8407L253.547 28.1843ZM238.687 24.5025H151.096V32.5025H238.687V24.5025ZM154.256 30.9545L174.573 4.76748L168.253 -0.136493L147.935 26.0505L154.256 30.9545ZM171.413 6.3155H236.128V-1.6845H171.413V6.3155ZM236.128 6.3155C241.589 6.3155 247.271 6.84244 253.177 7.9075L254.597 0.0344839C248.262 -1.10779 242.105 -1.6845 236.128 -1.6845V6.3155ZM253.24 7.9183C258.96 8.85603 264.099 10.5791 268.692 13.0591L272.493 6.01987C267.052 3.08189 261.055 1.09263 254.534 0.023682L253.24 7.9183ZM268.692 13.0591C273.165 15.4747 276.802 18.7168 279.65 22.8103L286.217 18.2417C282.643 13.1045 278.053 9.02228 272.493 6.01987L268.692 13.0591ZM279.683 22.8576C282.389 26.6287 283.9 31.6692 283.9 38.285H291.9C291.9 30.4528 290.1 23.6539 286.184 18.1944L279.683 22.8576ZM283.9 38.285C283.9 41.7806 283.364 45.0527 282.31 48.1247L289.878 50.7193C291.233 46.7679 291.9 42.6154 291.9 38.285H283.9ZM282.31 48.1247C281.258 51.1941 279.734 53.9322 277.736 56.3645L283.917 61.4425C286.535 58.2561 288.522 54.6732 289.878 50.7193L282.31 48.1247ZM277.681 56.4322C275.795 58.8326 273.41 60.9285 270.476 62.7067L274.622 69.5483C278.31 67.3131 281.443 64.593 283.972 61.3748L277.681 56.4322ZM270.507 62.6881C267.736 64.3334 264.515 65.5395 260.797 66.265L262.329 74.117C266.838 73.2371 270.941 71.7342 274.591 69.5669L270.507 62.6881ZM259.133 73.3684C260.692 74.5607 262.486 76.1145 264.523 78.0541L270.04 72.2609C267.863 70.1871 265.845 68.43 263.992 67.0136L259.133 73.3684ZM264.523 78.054C266.596 80.0281 269.379 82.7612 272.881 86.2634L278.538 80.6066C275.017 77.0855 272.181 74.3002 270.04 72.2609L264.523 78.054ZM272.804 86.1841L291.315 105.749L297.127 100.251L278.615 80.6859L272.804 86.1841ZM337.029 103V107H341.029V103H337.029ZM305.875 103H301.875V107H305.875V103ZM305.875 2.3155V-1.6845H301.875V2.3155H305.875ZM337.029 2.3155H341.029V-1.6845H337.029V2.3155ZM337.029 99H305.875V107H337.029V99ZM309.875 103V2.3155H301.875V103H309.875ZM305.875 6.3155H337.029V-1.6845H305.875V6.3155ZM333.029 2.3155V103H341.029V2.3155H333.029ZM469.298 2.3155L472.468 4.7561L477.428 -1.6845H469.298V2.3155ZM449.131 28.5025V32.5025H451.1L452.301 30.9431L449.131 28.5025ZM387.727 28.5025V24.5025H383.727V28.5025H387.727ZM387.727 41.596H383.727V45.596H387.727V41.596ZM463.579 41.596L466.744 44.0423L471.727 37.596H463.579V41.596ZM444.616 66.1275V70.1275H446.58L447.781 68.5738L444.616 66.1275ZM387.727 66.1275V62.1275H383.727V66.1275H387.727ZM387.727 103V107H391.727V103H387.727ZM356.423 103H352.423V107H356.423V103ZM356.423 2.3155V-1.6845H352.423V2.3155H356.423ZM466.129 -0.125108L445.962 26.0619L452.301 30.9431L472.468 4.7561L466.129 -0.125108ZM449.131 24.5025H387.727V32.5025H449.131V24.5025ZM383.727 28.5025V41.596H391.727V28.5025H383.727ZM387.727 45.596H463.579V37.596H387.727V45.596ZM460.415 39.1497L441.452 63.6812L447.781 68.5738L466.744 44.0423L460.415 39.1497ZM444.616 62.1275H387.727V70.1275H444.616V62.1275ZM383.727 66.1275V103H391.727V66.1275H383.727ZM387.727 99H356.423V107H387.727V99ZM360.423 103V2.3155H352.423V103H360.423ZM356.423 6.3155H469.298V-1.6845H356.423V6.3155ZM600.988 13.1515L598.738 16.4587L598.745 16.463L598.751 16.4672L600.988 13.1515ZM601.139 92.164L598.889 88.8568L598.889 88.8568L601.139 92.164ZM490.521 92.164L488.259 95.4626L488.265 95.4669L488.271 95.4712L490.521 92.164ZM490.672 13.1515L488.422 9.8443L488.422 9.8443L490.672 13.1515ZM565.771 77.5655L566.213 81.541L566.249 81.537L566.285 81.5323L565.771 77.5655ZM578.865 73.6525L576.913 70.1607L576.891 70.1732L576.869 70.186L578.865 73.6525ZM586.239 65.8265L589.881 67.4817L589.89 67.4614L589.899 67.4411L586.239 65.8265ZM586.239 39.489L582.58 41.1036L582.589 41.1239L582.598 41.1442L586.239 39.489ZM578.865 31.663L576.869 35.1295L576.93 35.1649L576.993 35.1981L578.865 31.663ZM565.771 27.9005L565.257 31.8673L565.293 31.872L565.33 31.876L565.771 27.9005ZM526.039 27.9005L526.481 31.876L526.517 31.872L526.553 31.8673L526.039 27.9005ZM512.795 31.663L514.711 35.1746L514.729 35.1648L514.747 35.1548L512.795 31.663ZM505.571 39.489L509.213 41.1442L509.222 41.1239L509.231 41.1036L505.571 39.489ZM505.571 65.8265L501.912 67.4411L501.921 67.4614L501.93 67.4817L505.571 65.8265ZM512.795 73.6525L510.799 77.119L510.822 77.1318L510.844 77.1443L512.795 73.6525ZM526.039 77.5655L525.525 81.5323L525.561 81.537L525.598 81.541L526.039 77.5655ZM545.905 4.66C570.058 4.66 587.467 8.79063 598.738 16.4587L603.238 9.8443C590.028 0.857034 570.715 -3.34 545.905 -3.34V4.66ZM598.751 16.4672C609.753 23.8913 615.5 35.6384 615.5 52.5825H623.5C623.5 33.6073 616.906 19.067 603.226 9.83579L598.751 16.4672ZM615.5 52.5825C615.5 69.6498 609.786 81.4428 598.889 88.8568L603.389 95.4712C616.972 86.2299 623.5 71.6352 623.5 52.5825H615.5ZM598.889 88.8568C587.62 96.5235 570.162 100.656 545.905 100.656V108.656C570.811 108.656 590.177 104.46 603.389 95.4712L598.889 88.8568ZM545.905 100.656C521.544 100.656 504.038 96.5221 492.771 88.8568L488.271 95.4712C501.486 104.461 520.903 108.656 545.905 108.656V100.656ZM492.784 88.8654C481.984 81.457 476.311 69.6631 476.311 52.5825H468.311C468.311 71.6219 474.778 86.2156 488.259 95.4626L492.784 88.8654ZM476.311 52.5825C476.311 35.6251 482.017 23.8772 492.922 16.4587L488.422 9.8443C474.845 19.0812 468.311 33.6205 468.311 52.5825H476.311ZM492.922 16.4587C504.191 8.79202 521.648 4.66 545.905 4.66V-3.34C520.999 -3.34 501.634 0.855649 488.422 9.8443L492.922 16.4587ZM545.905 82.4685C553.821 82.4685 560.6 82.1647 566.213 81.541L565.33 73.59C560.106 74.1703 553.641 74.4685 545.905 74.4685V82.4685ZM566.285 81.5323C572.019 80.7891 576.942 79.3751 580.861 77.119L576.869 70.186C574.165 71.7425 570.36 72.9372 565.257 73.5987L566.285 81.5323ZM580.816 77.1443C584.913 74.8546 587.996 71.6287 589.881 67.4817L582.598 64.1713C581.473 66.6463 579.639 68.6378 576.913 70.1607L580.816 77.1443ZM589.899 67.4411C591.706 63.3449 592.497 58.3249 592.497 52.5825H584.497C584.497 57.6761 583.782 61.4854 582.58 64.2119L589.899 67.4411ZM592.497 52.5825C592.497 46.8486 591.709 41.8553 589.881 37.8338L582.598 41.1442C583.78 43.7447 584.497 47.4804 584.497 52.5825H592.497ZM589.899 37.8744C588.017 33.6093 584.912 30.3387 580.736 28.1278L576.993 35.1981C579.64 36.5992 581.451 38.546 582.58 41.1036L589.899 37.8744ZM580.861 28.1965C576.914 25.9243 571.962 24.5638 566.213 23.925L565.33 31.876C570.416 32.4412 574.193 33.5891 576.869 35.1295L580.861 28.1965ZM566.285 23.9337C560.642 23.2021 553.836 22.847 545.905 22.847V30.847C553.626 30.847 560.065 31.1943 565.257 31.8673L566.285 23.9337ZM545.905 22.847C537.974 22.847 531.169 23.2021 525.525 23.9337L526.553 31.8673C531.746 31.1943 538.184 30.847 545.905 30.847V22.847ZM525.598 23.925C519.844 24.5642 514.866 25.9234 510.844 28.1712L514.747 35.1548C517.547 33.5899 521.398 32.4408 526.481 31.876L525.598 23.925ZM510.88 28.1514C506.804 30.3747 503.777 33.6456 501.912 37.8744L509.231 41.1036C510.375 38.5097 512.165 36.5632 514.711 35.1746L510.88 28.1514ZM501.93 37.8338C500.102 41.8553 499.314 46.8486 499.314 52.5825H507.314C507.314 47.4804 508.031 43.7447 509.213 41.1442L501.93 37.8338ZM499.314 52.5825C499.314 58.3249 500.104 63.3449 501.912 67.4411L509.231 64.2119C508.028 61.4854 507.314 57.6761 507.314 52.5825H499.314ZM501.93 67.4817C503.799 71.5934 506.803 74.818 510.799 77.119L514.791 70.186C512.166 68.6743 510.354 66.6816 509.213 64.1713L501.93 67.4817ZM510.844 77.1443C514.839 79.3766 519.789 80.7887 525.525 81.5323L526.553 73.5987C521.454 72.9376 517.574 71.741 514.747 70.1607L510.844 77.1443ZM525.598 81.541C531.21 82.1647 537.989 82.4685 545.905 82.4685V74.4685C538.169 74.4685 531.704 74.1703 526.481 73.59L525.598 81.541ZM760.296 2.3155L763.465 4.7561L768.425 -1.6845H760.296V2.3155ZM740.129 28.5025V32.5025H742.097L743.298 30.9431L740.129 28.5025ZM704.16 28.5025V24.5025H700.16V28.5025H704.16ZM704.16 103V107H708.16V103H704.16ZM673.006 103H669.006V107H673.006V103ZM673.006 28.5025H677.006V24.5025H673.006V28.5025ZM625.749 28.5025L622.58 26.0619L617.62 32.5025H625.749V28.5025ZM645.916 2.3155V-1.6845H643.948L642.747 -0.125108L645.916 2.3155ZM757.127 -0.125108L736.96 26.0619L743.298 30.9431L763.465 4.7561L757.127 -0.125108ZM740.129 24.5025H704.16V32.5025H740.129V24.5025ZM700.16 28.5025V103H708.16V28.5025H700.16ZM704.16 99H673.006V107H704.16V99ZM677.006 103V28.5025H669.006V103H677.006ZM673.006 24.5025H625.749V32.5025H673.006V24.5025ZM628.918 30.9431L649.085 4.7561L642.747 -0.125108L622.58 26.0619L628.918 30.9431ZM645.916 6.3155H760.296V-1.6845H645.916V6.3155ZM880.971 13.1515L878.721 16.4587L878.727 16.463L878.734 16.4672L880.971 13.1515ZM881.122 92.164L878.872 88.8568L878.872 88.8568L881.122 92.164ZM770.504 92.164L768.242 95.4626L768.248 95.4669L768.254 95.4712L770.504 92.164ZM770.655 13.1515L768.405 9.8443L768.405 9.8443L770.655 13.1515ZM845.754 77.5655L846.196 81.541L846.232 81.537L846.268 81.5323L845.754 77.5655ZM858.848 73.6525L856.896 70.1607L856.874 70.1732L856.852 70.186L858.848 73.6525ZM866.222 65.8265L869.864 67.4817L869.873 67.4614L869.882 67.4411L866.222 65.8265ZM866.222 39.489L862.562 41.1036L862.571 41.1239L862.581 41.1442L866.222 39.489ZM858.848 31.663L856.852 35.1295L856.913 35.1649L856.976 35.1981L858.848 31.663ZM845.754 27.9005L845.24 31.8673L845.276 31.872L845.312 31.876L845.754 27.9005ZM806.022 27.9005L806.464 31.876L806.5 31.872L806.536 31.8673L806.022 27.9005ZM792.778 31.663L794.694 35.1746L794.712 35.1648L794.729 35.1548L792.778 31.663ZM785.554 39.489L789.196 41.1442L789.205 41.1239L789.214 41.1036L785.554 39.489ZM785.554 65.8265L781.894 67.4411L781.903 67.4614L781.913 67.4817L785.554 65.8265ZM792.778 73.6525L790.782 77.119L790.805 77.1318L790.827 77.1443L792.778 73.6525ZM806.022 77.5655L805.508 81.5323L805.544 81.537L805.58 81.541L806.022 77.5655ZM825.888 4.66C850.041 4.66 867.45 8.79063 878.721 16.4587L883.221 9.8443C870.011 0.857034 850.698 -3.34 825.888 -3.34V4.66ZM878.734 16.4672C889.736 23.8913 895.483 35.6384 895.483 52.5825H903.483C903.483 33.6073 896.889 19.067 883.209 9.83579L878.734 16.4672ZM895.483 52.5825C895.483 69.6498 889.769 81.4428 878.872 88.8568L883.372 95.4712C896.955 86.2299 903.483 71.6352 903.483 52.5825H895.483ZM878.872 88.8568C867.603 96.5235 850.145 100.656 825.888 100.656V108.656C850.794 108.656 870.159 104.46 883.372 95.4712L878.872 88.8568ZM825.888 100.656C801.527 100.656 784.021 96.5221 772.754 88.8568L768.254 95.4712C781.468 104.461 800.886 108.656 825.888 108.656V100.656ZM772.767 88.8654C761.967 81.457 756.294 69.6631 756.294 52.5825H748.294C748.294 71.6219 754.761 86.2156 768.242 95.4626L772.767 88.8654ZM756.294 52.5825C756.294 35.6251 762 23.8772 772.905 16.4587L768.405 9.8443C754.828 19.0812 748.294 33.6205 748.294 52.5825H756.294ZM772.905 16.4587C784.174 8.79202 801.631 4.66 825.888 4.66V-3.34C800.982 -3.34 781.617 0.855649 768.405 9.8443L772.905 16.4587ZM825.888 82.4685C833.804 82.4685 840.583 82.1647 846.196 81.541L845.312 73.59C840.089 74.1703 833.624 74.4685 825.888 74.4685V82.4685ZM846.268 81.5323C852.001 80.7891 856.925 79.3751 860.844 77.119L856.852 70.186C854.148 71.7425 850.343 72.9372 845.24 73.5987L846.268 81.5323ZM860.799 77.1443C864.896 74.8546 867.979 71.6287 869.864 67.4817L862.581 64.1713C861.456 66.6463 859.622 68.6378 856.896 70.1607L860.799 77.1443ZM869.882 67.4411C871.689 63.3449 872.48 58.3249 872.48 52.5825H864.48C864.48 57.6761 863.765 61.4854 862.562 64.2119L869.882 67.4411ZM872.48 52.5825C872.48 46.8486 871.692 41.8553 869.864 37.8338L862.581 41.1442C863.763 43.7447 864.48 47.4804 864.48 52.5825H872.48ZM869.882 37.8744C868 33.6093 864.895 30.3387 860.719 28.1278L856.976 35.1981C859.623 36.5992 861.434 38.546 862.562 41.1036L869.882 37.8744ZM860.844 28.1965C856.897 25.9243 851.945 24.5638 846.196 23.925L845.312 31.876C850.399 32.4412 854.176 33.5891 856.852 35.1295L860.844 28.1965ZM846.268 23.9337C840.624 23.2021 833.819 22.847 825.888 22.847V30.847C833.609 30.847 840.048 31.1943 845.24 31.8673L846.268 23.9337ZM825.888 22.847C817.957 22.847 811.152 23.2021 805.508 23.9337L806.536 31.8673C811.728 31.1943 818.167 30.847 825.888 30.847V22.847ZM805.58 23.925C799.827 24.5642 794.849 25.9234 790.827 28.1712L794.729 35.1548C797.53 33.5899 801.381 32.4408 806.464 31.876L805.58 23.925ZM790.863 28.1514C786.787 30.3747 783.76 33.6456 781.894 37.8744L789.214 41.1036C790.358 38.5097 792.148 36.5632 794.694 35.1746L790.863 28.1514ZM781.913 37.8338C780.085 41.8553 779.297 46.8486 779.297 52.5825H787.297C787.297 47.4804 788.014 43.7447 789.196 41.1442L781.913 37.8338ZM779.297 52.5825C779.297 58.3249 780.087 63.3449 781.894 67.4411L789.214 64.2119C788.011 61.4854 787.297 57.6761 787.297 52.5825H779.297ZM781.913 67.4817C783.782 71.5934 786.786 74.818 790.782 77.119L794.774 70.186C792.148 68.6743 790.337 66.6816 789.196 64.1713L781.913 67.4817ZM790.827 77.1443C794.822 79.3766 799.772 80.7887 805.508 81.5323L806.536 73.5987C801.437 72.9376 797.557 71.741 794.729 70.1607L790.827 77.1443ZM805.58 81.541C811.193 82.1647 817.972 82.4685 825.888 82.4685V74.4685C818.152 74.4685 811.687 74.1703 806.464 73.59L805.58 81.541ZM1011.23 103.602L1012.55 99.8266L1012.5 99.8062L1012.44 99.7877L1011.23 103.602ZM1004.76 99.2375L1007.53 96.3495L1007.48 96.3043L1007.43 96.2607L1004.76 99.2375ZM943.056 43.8535L945.728 40.8767L939.056 34.8883V43.8535H943.056ZM943.056 103V107H947.056V103H943.056ZM914.762 103H910.762V107H914.762V103ZM916.116 10.894L912.424 9.35553L912.396 9.42204L912.371 9.4895L916.116 10.894ZM919.879 5.0245L917.143 2.10635L917.096 2.15046L917.051 2.19607L919.879 5.0245ZM925.297 1.71349L924.032 -2.08124L924.004 -2.0718L923.976 -2.06194L925.297 1.71349ZM937.487 1.71349L936.105 5.46687L936.22 5.50943L936.338 5.5448L937.487 1.71349ZM944.26 6.07799L941.552 9.02172L941.57 9.03836L941.588 9.05478L944.26 6.07799ZM1005.96 61.462L1003.29 64.4388L1009.96 70.4272V61.462H1005.96ZM1005.96 2.3155V-1.6845H1001.96V2.3155H1005.96ZM1034.41 2.3155H1038.41V-1.6845H1034.41V2.3155ZM1032.9 94.271L1029.21 92.7325L1029.18 92.799L1029.16 92.8665L1032.9 94.271ZM1029.14 100.291L1031.97 103.119L1031.97 103.119L1029.14 100.291ZM1023.72 103.602L1022.46 99.8073L1022.46 99.8073L1023.72 103.602ZM1017.25 100.656C1015.72 100.656 1014.16 100.389 1012.55 99.8266L1009.91 107.377C1012.32 108.22 1014.77 108.656 1017.25 108.656V100.656ZM1012.44 99.7877C1011.38 99.4546 1009.75 98.4812 1007.53 96.3495L1001.99 102.125C1004.58 104.609 1007.27 106.545 1010.03 107.416L1012.44 99.7877ZM1007.43 96.2607L945.728 40.8767L940.384 46.8303L1002.09 102.214L1007.43 96.2607ZM939.056 43.8535V103H947.056V43.8535H939.056ZM943.056 99H914.762V107H943.056V99ZM918.762 103V19.4725H910.762V103H918.762ZM918.762 19.4725C918.762 16.5099 919.168 14.149 919.862 12.2985L912.371 9.4895C911.259 12.455 910.762 15.8131 910.762 19.4725H918.762ZM919.809 12.4325C920.655 10.401 921.645 8.9153 922.707 7.85293L917.051 2.19607C915.103 4.14369 913.584 6.57099 912.424 9.35553L919.809 12.4325ZM922.615 7.94265C923.828 6.80515 925.156 6.00066 926.618 5.48893L923.976 -2.06194C921.424 -1.169 919.141 0.233851 917.143 2.10635L922.615 7.94265ZM926.562 5.50823C928.264 4.941 929.994 4.66 931.768 4.66V-3.34C929.128 -3.34 926.544 -2.91867 924.032 -2.08124L926.562 5.50823ZM931.768 4.66C933.173 4.66 934.612 4.91687 936.105 5.46687L938.87 -2.03988C936.55 -2.89455 934.177 -3.34 931.768 -3.34V4.66ZM936.338 5.5448C937.511 5.89683 939.242 6.89674 941.552 9.02172L946.968 3.13427C944.261 0.643913 941.477 -1.26584 938.637 -2.11781L936.338 5.5448ZM941.588 9.05478L1003.29 64.4388L1008.64 58.4852L946.932 3.10121L941.588 9.05478ZM1009.96 61.462V2.3155H1001.96V61.462H1009.96ZM1005.96 6.3155H1034.41V-1.6845H1005.96V6.3155ZM1030.41 2.3155V85.6925H1038.41V2.3155H1030.41ZM1030.41 85.6925C1030.41 88.6121 1029.97 90.9241 1029.21 92.7325L1036.6 95.8095C1037.85 92.8019 1038.41 89.3949 1038.41 85.6925H1030.41ZM1029.16 92.8665C1028.43 94.8109 1027.46 96.3114 1026.31 97.4626L1031.97 103.119C1034.03 101.06 1035.57 98.5471 1036.65 95.6755L1029.16 92.8665ZM1026.31 97.4626C1025.27 98.5092 1024 99.2925 1022.46 99.8073L1024.99 107.397C1027.66 106.507 1030.01 105.083 1031.97 103.119L1026.31 97.4626ZM1022.46 99.8073C1020.76 100.375 1019.03 100.656 1017.25 100.656V108.656C1019.89 108.656 1022.48 108.234 1024.99 107.397L1022.46 99.8073Z" fill="url(#paint1_linear_551_1221)"/>
<defs>
<linearGradient id="paint0_linear_551_1221" x1="555.018" y1="7.63826" x2="554.749" y2="158" gradientUnits="userSpaceOnUse">
<stop stop-color="#FC39FC"/>
<stop offset="1" stop-color="#428AE0"/>
</linearGradient>
<linearGradient id="paint1_linear_551_1221" x1="553.957" y1="20.1" x2="553.957" y2="119.421" gradientUnits="userSpaceOnUse">
<stop stop-color="#C750C2"/>
<stop offset="1" stop-color="#0054B8"/>
</linearGradient>
</defs>
</svg>
