<svg width="40" height="40" viewBox="0 0 40 40" fill="none" xmlns="http://www.w3.org/2000/svg">
<circle cx="20" cy="20" r="19" fill="#130644" stroke="#411344" stroke-width="2"/>
<g filter="url(#filter0_d_551_1134)">
<mask id="mask0_551_1134" style="mask-type:alpha" maskUnits="userSpaceOnUse" x="7" y="8" width="25" height="25">
<rect x="7" y="8" width="25" height="25" fill="url(#paint0_linear_551_1134)"/>
</mask>
<g mask="url(#mask0_551_1134)">
<path d="M19.5259 12.0627C19.1439 12.0627 18.8186 11.9279 18.5498 11.6585C18.2804 11.3897 18.1457 11.0644 18.1457 10.6825V9.9012C18.1457 9.51926 18.2804 9.19357 18.5498 8.92412C18.8186 8.65537 19.1439 8.521 19.5259 8.521C19.9078 8.521 20.2335 8.65537 20.503 8.92412C20.7717 9.19357 20.9061 9.51926 20.9061 9.9012V10.6825C20.9061 11.0644 20.7717 11.3897 20.503 11.6585C20.2335 11.9279 19.9078 12.0627 19.5259 12.0627ZM19.5259 32.4793C19.1439 32.4793 18.8186 32.345 18.5498 32.0762C18.2804 31.8068 18.1457 31.4811 18.1457 31.0991V30.3179C18.1457 29.9359 18.2804 29.6106 18.5498 29.3418C18.8186 29.0724 19.1439 28.9377 19.5259 28.9377C19.9078 28.9377 20.2335 29.0724 20.503 29.3418C20.7717 29.6106 20.9061 29.9359 20.9061 30.3179V31.0991C20.9061 31.4811 20.7717 31.8068 20.503 32.0762C20.2335 32.345 19.9078 32.4793 19.5259 32.4793ZM29.3175 21.8543C28.9356 21.8543 28.6102 21.7196 28.3415 21.4502C28.0721 21.1814 27.9373 20.8561 27.9373 20.4741C27.9373 20.0922 28.0721 19.7665 28.3415 19.497C28.6102 19.2283 28.9356 19.0939 29.3175 19.0939H30.0988C30.4807 19.0939 30.8064 19.2283 31.0759 19.497C31.3446 19.7665 31.479 20.0922 31.479 20.4741C31.479 20.8561 31.3446 21.1814 31.0759 21.4502C30.8064 21.7196 30.4807 21.8543 30.0988 21.8543H29.3175ZM8.90087 21.8543C8.51892 21.8543 8.19358 21.7196 7.92483 21.4502C7.65538 21.1814 7.52066 20.8561 7.52066 20.4741C7.52066 20.0922 7.65538 19.7665 7.92483 19.497C8.19358 19.2283 8.51892 19.0939 8.90087 19.0939H9.68212C10.0641 19.0939 10.3898 19.2283 10.6592 19.497C10.928 19.7665 11.0623 20.0922 11.0623 20.4741C11.0623 20.8561 10.928 21.1814 10.6592 21.4502C10.3898 21.7196 10.0641 21.8543 9.68212 21.8543H8.90087ZM25.854 14.0939C25.5762 13.8161 25.4373 13.4863 25.4373 13.1043C25.4373 12.7224 25.5762 12.3925 25.854 12.1147L26.0363 11.9325C26.2967 11.672 26.6179 11.5418 26.9998 11.5418C27.3818 11.5418 27.7116 11.6807 27.9894 11.9585C28.2672 12.2363 28.4061 12.5661 28.4061 12.9481C28.4061 13.33 28.2672 13.6599 27.9894 13.9377L27.8071 14.12C27.5467 14.3804 27.2255 14.5106 26.8436 14.5106C26.4616 14.5106 26.1318 14.3717 25.854 14.0939ZM11.0102 29.0418C10.7325 28.7641 10.5936 28.4342 10.5936 28.0522C10.5936 27.6703 10.7325 27.3404 11.0102 27.0627L11.1925 26.8804C11.453 26.62 11.7741 26.4897 12.1561 26.4897C12.538 26.4897 12.8679 26.6286 13.1457 26.9064C13.4234 27.1842 13.5623 27.5141 13.5623 27.896C13.5623 28.2779 13.4234 28.6078 13.1457 28.8856L12.9634 29.0679C12.703 29.3283 12.3818 29.4585 11.9998 29.4585C11.6179 29.4585 11.288 29.3196 11.0102 29.0418ZM26.0102 29.0418L25.828 28.8595C25.5675 28.5991 25.4373 28.2779 25.4373 27.896C25.4373 27.5141 25.5762 27.1842 25.854 26.9064C26.1318 26.6286 26.4616 26.4897 26.8436 26.4897C27.2255 26.4897 27.5554 26.6286 27.8332 26.9064L28.0155 27.0887C28.2759 27.3491 28.4061 27.6703 28.4061 28.0522C28.4061 28.4342 28.2672 28.7641 27.9894 29.0418C27.7116 29.3196 27.3818 29.4585 26.9998 29.4585C26.6179 29.4585 26.288 29.3196 26.0102 29.0418ZM11.1144 14.0939L10.9842 13.9637C10.7238 13.7033 10.5936 13.3821 10.5936 13.0002C10.5936 12.6182 10.7325 12.2884 11.0102 12.0106C11.288 11.7328 11.6179 11.5939 11.9998 11.5939C12.3818 11.5939 12.7116 11.7328 12.9894 12.0106L13.1196 12.1408C13.38 12.4012 13.5102 12.7224 13.5102 13.1043C13.5102 13.4863 13.3714 13.8161 13.0936 14.0939C12.8158 14.3717 12.4859 14.5106 12.104 14.5106C11.722 14.5106 11.3922 14.3717 11.1144 14.0939ZM19.4998 27.5314C17.5554 27.5314 15.8974 26.8456 14.5259 25.4741C13.1543 24.1026 12.4686 22.4446 12.4686 20.5002C12.4686 18.5557 13.1543 16.8977 14.5259 15.5262C15.8974 14.1547 17.5554 13.4689 19.4998 13.4689C21.4443 13.4689 23.1023 14.1547 24.4738 15.5262C25.8453 16.8977 26.5311 18.5557 26.5311 20.5002C26.5311 22.4446 25.8453 24.1026 24.4738 25.4741C23.1023 26.8456 21.4443 27.5314 19.4998 27.5314Z" fill="url(#paint1_linear_551_1134)"/>
</g>
</g>
<defs>
<filter id="filter0_d_551_1134" x="5.31538" y="8.521" width="28.3689" height="28.3688" filterUnits="userSpaceOnUse" color-interpolation-filters="sRGB">
<feFlood flood-opacity="0" result="BackgroundImageFix"/>
<feColorMatrix in="SourceAlpha" type="matrix" values="0 0 0 0 0 0 0 0 0 0 0 0 0 0 0 0 0 0 127 0" result="hardAlpha"/>
<feOffset dy="2.20528"/>
<feGaussianBlur stdDeviation="1.10264"/>
<feComposite in2="hardAlpha" operator="out"/>
<feColorMatrix type="matrix" values="0 0 0 0 0 0 0 0 0 0 0 0 0 0 0 0 0 0 0.15 0"/>
<feBlend mode="normal" in2="BackgroundImageFix" result="effect1_dropShadow_551_1134"/>
<feBlend mode="normal" in="SourceGraphic" in2="effect1_dropShadow_551_1134" result="shape"/>
</filter>
<linearGradient id="paint0_linear_551_1134" x1="18" y1="9" x2="12.5" y2="33" gradientUnits="userSpaceOnUse">
<stop offset="0.0708332" stop-color="#FF8DFE"/>
<stop offset="0.565625" stop-color="#80267F"/>
</linearGradient>
<linearGradient id="paint1_linear_551_1134" x1="18.0623" y1="9.47933" x2="12.7915" y2="32.4793" gradientUnits="userSpaceOnUse">
<stop offset="0.0708332" stop-color="#FF8DFE"/>
<stop offset="0.565625" stop-color="#80267F"/>
</linearGradient>
</defs>
</svg>
