<svg width="300" height="301" viewBox="0 0 300 301" fill="none" xmlns="http://www.w3.org/2000/svg">
<path d="M253.904 72.0496C253.904 72.0496 241.564 65.1513 240.653 80.7812C239.741 96.4112 237.453 197.98 237.453 197.98" stroke="#263238" stroke-width="2" stroke-linecap="round" stroke-linejoin="round"/>
<path d="M234.247 82.1602C234.247 82.1602 244.311 104.682 239.741 196.589" stroke="#263238" stroke-width="2" stroke-linecap="round" stroke-linejoin="round"/>
<path d="M244.13 75.1906C244.13 75.1906 239.411 78.2334 236.729 74.755C234.046 71.2766 238.545 64.8985 234.576 62.1679C230.608 59.4372 223.756 63.6047 223.756 63.6047C223.756 63.6047 229.037 65.1651 228.862 68.0583C228.688 70.9516 226.154 72.0503 225.818 70.7825C225.482 69.5147 222.961 63.1431 218.675 65.7958C217.441 66.5298 216.368 67.5072 215.519 68.6692C214.671 69.8312 214.064 71.1538 213.737 72.5575C213.737 72.5575 223.723 71.4912 224.312 75.2621C224.9 79.0331 220.226 74.612 216.109 74.3584C211.991 74.1049 208.249 74.7225 208.514 77.2321C208.779 79.7418 208.126 83.8508 208.126 83.8508C208.126 83.8508 211.61 80.7365 216.135 81.0031C220.66 81.2696 220.492 84.1694 216.374 83.9288C212.256 83.6883 208.727 87.6152 208.727 87.6152C208.727 87.6152 212.476 94.0649 217.247 97.2507C222.017 100.436 223.711 99.2987 224.286 96.841C224.861 94.3834 223.562 88.0769 226.438 88.2459C229.315 88.4149 221.674 99.1751 225.352 99.8058C229.03 100.436 231.978 99.3702 232.948 96.9386L233.917 94.507C233.917 94.507 232.624 88.2004 233.193 85.7428C233.762 83.2851 234.428 85.8143 235.081 88.7595C235.733 91.7048 236.141 98.7915 237.401 98.447C238.662 98.1024 242.676 92.9466 243.619 90.9311C244.563 88.9156 238.326 82.726 238.397 81.4842C238.468 80.2424 243.283 82.6025 244.033 83.8963C244.576 84.8665 245.068 85.8648 245.507 86.8871C245.507 86.8871 248.513 84.9886 248.442 79.1761C248.37 73.3637 244.13 75.1906 244.13 75.1906Z" fill="#FC39FC"/>
<path opacity="0.3" d="M244.13 75.1906C244.13 75.1906 239.411 78.2334 236.729 74.755C234.046 71.2766 238.545 64.8985 234.576 62.1679C230.608 59.4372 223.756 63.6047 223.756 63.6047C223.756 63.6047 229.037 65.1651 228.862 68.0583C228.688 70.9516 226.154 72.0503 225.818 70.7825C225.482 69.5147 222.961 63.1431 218.675 65.7958C217.441 66.5298 216.368 67.5072 215.519 68.6692C214.671 69.8312 214.064 71.1538 213.737 72.5575C213.737 72.5575 223.723 71.4912 224.312 75.2621C224.9 79.0331 220.226 74.612 216.109 74.3584C211.991 74.1049 208.249 74.7225 208.514 77.2321C208.779 79.7418 208.126 83.8508 208.126 83.8508C208.126 83.8508 211.61 80.7365 216.135 81.0031C220.66 81.2696 220.492 84.1694 216.374 83.9288C212.256 83.6883 208.727 87.6152 208.727 87.6152C208.727 87.6152 212.476 94.0649 217.247 97.2507C222.017 100.436 223.711 99.2987 224.286 96.841C224.861 94.3834 223.562 88.0769 226.438 88.2459C229.315 88.4149 221.674 99.1751 225.352 99.8058C229.03 100.436 231.978 99.3702 232.948 96.9386L233.917 94.507C233.917 94.507 232.624 88.2004 233.193 85.7428C233.762 83.2851 234.428 85.8143 235.081 88.7595C235.733 91.7048 236.141 98.7915 237.401 98.447C238.662 98.1024 242.676 92.9466 243.619 90.9311C244.563 88.9156 238.326 82.726 238.397 81.4842C238.468 80.2424 243.283 82.6025 244.033 83.8963C244.576 84.8665 245.068 85.8648 245.507 86.8871C245.507 86.8871 248.513 84.9886 248.442 79.1761C248.37 73.3637 244.13 75.1906 244.13 75.1906Z" fill="#263238"/>
<path d="M220.207 88.8308C223.284 85.0079 227.822 79.8261 231.623 77.3555" stroke="#263238" stroke-linecap="round" stroke-linejoin="round"/>
<path d="M216.613 93.4663C216.613 93.4663 217.402 92.361 218.682 90.7031" stroke="#263238" stroke-linecap="round" stroke-linejoin="round"/>
<path d="M233.626 78.3047C233.626 78.3047 238.203 84.8063 239.05 91.503" stroke="#263238" stroke-linecap="round" stroke-linejoin="round"/>
<path d="M228.449 82.1537C228.449 82.1537 229.742 81.3995 229.25 89.676" stroke="#263238" stroke-linecap="round" stroke-linejoin="round"/>
<path d="M231.791 74.4619C231.791 74.4619 234.376 72.1278 233.025 67.4727" stroke="#263238" stroke-linecap="round" stroke-linejoin="round"/>
<path d="M228.255 78.4026L226.393 74.9697" stroke="#263238" stroke-linecap="round" stroke-linejoin="round"/>
<path d="M224.37 81.9067C224.37 81.9067 218.443 77.4011 214.739 77.1865" stroke="#263238" stroke-linecap="round" stroke-linejoin="round"/>
<path d="M260.949 62.9088C260.949 62.9088 260.762 69.7355 255.468 70.0606C250.174 70.3856 246.897 61.5109 241.474 63.6499C236.05 65.789 235.533 75.5219 235.533 75.5219C235.533 75.5219 240.704 71.2699 243.445 73.4154C246.186 75.5609 245.572 78.8703 244.091 78.3436C242.611 77.817 234.538 76.0095 234.26 82.1341C234.149 83.8774 234.391 85.6252 234.969 87.2722C235.548 88.9192 236.452 90.4313 237.627 91.7175C237.627 91.7175 243.361 80.9443 247.524 82.9078C251.687 84.8713 244.085 86.5812 241.06 90.5537C238.035 94.5262 236.063 98.7262 238.739 100.163C241.415 101.6 245.067 105.065 245.067 105.065C245.067 105.065 244.344 99.4349 247.692 95.0593C251.04 90.6837 253.813 92.8358 250.762 96.8083C247.711 100.781 249.23 107.029 249.23 107.029C249.23 107.029 258.209 107.679 264.634 105.026C271.059 102.374 271.098 99.89 269.023 97.6535C266.948 95.4169 259.805 92.4132 261.913 89.624C264.02 86.8348 269.54 101.88 272.675 98.6027C275.81 95.3259 276.76 91.633 275.002 88.9933L273.237 86.3926C273.237 86.3926 266.088 83.3889 264.02 81.1523C261.951 78.9158 264.938 79.956 268.312 81.3084C271.686 82.6607 279.016 87.0753 279.54 85.5734C280.063 84.0716 277.659 76.5102 276.308 74.1826C274.957 71.855 264.53 73.929 263.341 73.0123C262.152 72.0956 267.788 68.8513 269.585 68.9748C270.923 69.0895 272.254 69.274 273.573 69.5274C273.573 69.5274 273.729 65.2168 267.885 61.3224C262.042 57.4279 260.949 62.9088 260.949 62.9088Z" fill="#FC39FC"/>
<path opacity="0.2" d="M260.949 62.9088C260.949 62.9088 260.762 69.7355 255.468 70.0606C250.174 70.3856 246.897 61.5109 241.474 63.6499C236.05 65.789 235.533 75.5219 235.533 75.5219C235.533 75.5219 240.704 71.2699 243.445 73.4154C246.186 75.5609 245.572 78.8703 244.091 78.3436C242.611 77.817 234.538 76.0095 234.26 82.1341C234.149 83.8774 234.391 85.6252 234.969 87.2722C235.548 88.9192 236.452 90.4313 237.627 91.7175C237.627 91.7175 243.361 80.9443 247.524 82.9078C251.687 84.8713 244.085 86.5812 241.06 90.5537C238.035 94.5262 236.063 98.7262 238.739 100.163C241.415 101.6 245.067 105.065 245.067 105.065C245.067 105.065 244.344 99.4349 247.692 95.0593C251.04 90.6837 253.813 92.8358 250.762 96.8083C247.711 100.781 249.23 107.029 249.23 107.029C249.23 107.029 258.209 107.679 264.634 105.026C271.059 102.374 271.098 99.89 269.023 97.6535C266.948 95.4169 259.805 92.4132 261.913 89.624C264.02 86.8348 269.54 101.88 272.675 98.6027C275.81 95.3259 276.76 91.633 275.002 88.9933L273.237 86.3926C273.237 86.3926 266.088 83.3889 264.02 81.1523C261.951 78.9158 264.938 79.956 268.312 81.3084C271.686 82.6607 279.016 87.0753 279.54 85.5734C280.063 84.0716 277.659 76.5102 276.308 74.1826C274.957 71.855 264.53 73.929 263.341 73.0123C262.152 72.0956 267.788 68.8513 269.585 68.9748C270.923 69.0895 272.254 69.274 273.573 69.5274C273.573 69.5274 273.729 65.2168 267.885 61.3224C262.042 57.4279 260.949 62.9088 260.949 62.9088Z" fill="#263238"/>
<path d="M258.222 96.3202C256.509 90.6118 254.447 82.5173 254.576 77.0039" stroke="#263238" stroke-linecap="round" stroke-linejoin="round"/>
<path d="M260.426 103.089C260.426 103.089 259.864 101.542 259.088 99.123" stroke="#263238" stroke-linecap="round" stroke-linejoin="round"/>
<path d="M256.89 75.6262C256.89 75.6262 266.476 75.4571 273.696 79.1631" stroke="#263238" stroke-linecap="round" stroke-linejoin="round"/>
<path d="M257.188 83.4664C257.188 83.4664 257.31 81.659 265.222 87.79" stroke="#263238" stroke-linecap="round" stroke-linejoin="round"/>
<path d="M251.81 74.8591C251.81 74.8591 251.267 70.633 245.701 68.8516" stroke="#263238" stroke-linecap="round" stroke-linejoin="round"/>
<path d="M253.328 81.1068L248.642 80.6387" stroke="#263238" stroke-linecap="round" stroke-linejoin="round"/>
<path d="M254.143 87.4395C254.143 87.4395 245.617 90.3392 242.876 93.9411" stroke="#263238" stroke-linecap="round" stroke-linejoin="round"/>
<path d="M204.099 108.355C204.099 108.355 231.06 126.28 230.601 195.679" stroke="#263238" stroke-width="2" stroke-linecap="round" stroke-linejoin="round"/>
<path d="M237.337 103.622C237.337 103.622 236.477 111.482 230.336 111.359C224.196 111.235 221.248 100.683 214.79 102.634C208.333 104.584 206.82 115.767 206.82 115.767C206.82 115.767 213.155 111.352 216.148 114.09C219.141 116.827 218.087 120.591 216.419 119.837C214.752 119.083 205.625 116.222 204.72 123.27C204.426 125.272 204.539 127.313 205.052 129.27C205.565 131.227 206.468 133.059 207.706 134.654C207.706 134.654 215.327 122.769 219.955 125.428C224.583 128.088 215.637 129.329 211.746 133.64C207.855 137.951 205.211 142.586 208.165 144.504C211.119 146.422 215.004 150.765 215.004 150.765C215.004 150.765 214.674 144.179 218.973 139.465C223.271 134.752 226.245 137.476 222.353 141.773C218.462 146.071 219.632 153.424 219.632 153.424C219.632 153.424 229.929 154.991 237.589 152.573C245.249 150.154 245.52 147.261 243.342 144.478C241.163 141.695 233.2 137.554 235.928 134.55C238.655 131.546 243.574 149.406 247.505 145.928C251.435 142.45 252.87 138.269 251.086 135.064L249.295 131.859C249.295 131.859 241.331 127.71 239.153 124.928C236.975 122.145 240.323 123.627 244.092 125.519C247.86 127.411 255.908 133.185 256.645 131.507C257.381 129.83 255.352 120.871 253.968 118.056C252.585 115.24 240.394 116.645 239.101 115.455C237.809 114.265 244.622 111.079 246.684 111.391C248.208 111.654 249.718 111.995 251.208 112.412C251.208 112.412 251.797 107.445 245.423 102.4C239.05 97.3544 237.337 103.622 237.337 103.622Z" fill="#FC39FC"/>
<path opacity="0.3" d="M237.337 103.622C237.337 103.622 236.477 111.482 230.336 111.359C224.196 111.235 221.248 100.683 214.79 102.634C208.333 104.584 206.82 115.767 206.82 115.767C206.82 115.767 213.155 111.352 216.148 114.09C219.141 116.827 218.087 120.591 216.419 119.837C214.752 119.083 205.625 116.222 204.72 123.27C204.426 125.272 204.539 127.313 205.052 129.27C205.565 131.227 206.468 133.059 207.706 134.654C207.706 134.654 215.327 122.769 219.955 125.428C224.583 128.088 215.637 129.329 211.746 133.64C207.855 137.951 205.211 142.586 208.165 144.504C211.119 146.422 215.004 150.765 215.004 150.765C215.004 150.765 214.674 144.179 218.973 139.465C223.271 134.752 226.245 137.476 222.353 141.773C218.462 146.071 219.632 153.424 219.632 153.424C219.632 153.424 229.929 154.991 237.589 152.573C245.249 150.154 245.52 147.261 243.342 144.478C241.163 141.695 233.2 137.554 235.928 134.55C238.655 131.546 243.574 149.406 247.505 145.928C251.435 142.45 252.87 138.269 251.086 135.064L249.295 131.859C249.295 131.859 241.331 127.71 239.153 124.928C236.975 122.145 240.323 123.627 244.092 125.519C247.86 127.411 255.908 133.185 256.645 131.507C257.381 129.83 255.352 120.871 253.968 118.056C252.585 115.24 240.394 116.645 239.101 115.455C237.809 114.265 244.622 111.079 246.684 111.391C248.208 111.654 249.718 111.995 251.208 112.412C251.208 112.412 251.797 107.445 245.423 102.4C239.05 97.3544 237.337 103.622 237.337 103.622Z" fill="#263238"/>
<path d="M231.054 141.891C229.612 135.142 227.996 125.637 228.662 119.259" stroke="#263238" stroke-linecap="round" stroke-linejoin="round"/>
<path d="M232.967 149.913C232.967 149.913 232.463 148.073 231.797 145.206" stroke="#263238" stroke-linecap="round" stroke-linejoin="round"/>
<path d="M231.48 117.887C231.48 117.887 242.56 118.595 250.562 123.569" stroke="#263238" stroke-linecap="round" stroke-linejoin="round"/>
<path d="M231.067 126.963C231.067 126.963 231.383 124.889 239.929 132.71" stroke="#263238" stroke-linecap="round" stroke-linejoin="round"/>
<path d="M225.663 116.521C225.663 116.521 225.436 111.593 219.199 109.012" stroke="#263238" stroke-linecap="round" stroke-linejoin="round"/>
<path d="M226.833 123.868L221.468 122.887" stroke="#263238" stroke-linecap="round" stroke-linejoin="round"/>
<path d="M227.182 131.261C227.182 131.261 217.072 133.777 213.575 137.678" stroke="#263238" stroke-linecap="round" stroke-linejoin="round"/>
<path d="M214.609 163.034C214.609 163.034 231.972 176.362 233.801 196.127L230.142 129.947" stroke="#263238" stroke-width="2" stroke-linecap="round" stroke-linejoin="round"/>
<path d="M236.542 195.679C236.542 195.679 223.291 98.707 261.674 98.707" stroke="#263238" stroke-width="2" stroke-linecap="round" stroke-linejoin="round"/>
<path d="M285.402 116.82C281.156 114.291 276.463 114.22 274.162 111.567C271.861 108.914 276.379 107.556 278.796 108.563C281.214 109.571 286.818 112.464 287.878 113.114C288.938 113.765 288.208 104.513 286.236 101.034C284.265 97.5561 278.88 95.5341 276.191 98.3753C270.516 104.37 261.667 96.5093 262.274 91.8281C262.882 87.1469 258.532 82.0757 249.198 85.0534C239.864 88.0312 243.342 89.6501 243.342 89.6501C243.342 89.6501 249.974 93.7331 254.22 96.2622C258.467 98.7914 265.5 100.956 263.994 102.796C262.488 104.636 258.409 103.512 255.009 100.768C251.609 98.0242 241.823 91.477 240.834 93.9086C239.845 96.3402 236.309 103.011 236.309 103.011C240.631 103.678 244.904 104.631 249.101 105.865C254.783 107.66 255.946 110.8 251.506 111.066C247.065 111.333 239.004 107.959 236.49 112.23C233.975 116.502 235.701 127.47 235.701 127.47C235.701 127.47 243.833 121.924 247.983 121.944C252.133 121.963 249.476 124.278 244.841 127.282C242.829 128.518 240.887 129.866 239.024 131.319L243.251 142.229C243.251 142.229 250.226 141.332 252.979 141.527L255.733 141.722C255.733 141.722 255.733 130.318 258.965 126.937C262.197 123.556 262.805 131.378 263.49 133.374C264.175 135.37 262.106 141.345 262.106 141.345C262.106 141.345 270.161 136.91 272.772 135.148L275.358 133.387C275.358 133.387 272.345 125.103 270.296 122.737C268.247 120.37 265.461 120.721 267.821 118.667C270.18 116.612 273.69 117.692 275.7 120.617C277.71 123.543 280.109 129.225 280.109 129.225C280.109 129.225 283.114 129.713 287.025 125.266C290.936 120.819 289.656 119.343 285.402 116.82ZM248.487 129.375C245.365 127.808 252.811 124.674 252.811 124.674C255.507 124.278 251.609 130.948 248.487 129.375ZM253.742 114.727C252.411 114.077 256.405 112.724 256.405 112.724C262.165 113.836 255.074 115.397 253.742 114.727Z" fill="#FC39FC"/>
<path d="M248.403 137.372C247.597 138.239 246.763 139.075 245.901 139.882" stroke="#263238" stroke-linecap="round" stroke-linejoin="round"/>
<path d="M264.446 112.972C261.46 119.226 256.948 127.392 251.008 134.486" stroke="#263238" stroke-linecap="round" stroke-linejoin="round"/>
<path d="M265.855 109.818C267.73 105.611 268.687 102.835 268.687 102.835C268.687 102.835 272.171 104.473 275.545 103.602C277.538 103.077 279.627 103.034 281.64 103.479" stroke="#263238" stroke-linecap="round" stroke-linejoin="round"/>
<path d="M262.462 108.791C263.348 108.024 249.722 101.21 249.722 101.21" stroke="#263238" stroke-linecap="round" stroke-linejoin="round"/>
<path d="M269.618 112.919C269.618 112.919 276.082 115.598 279.65 119.746" stroke="#263238" stroke-linecap="round" stroke-linejoin="round"/>
<path d="M261.034 117.314C257.582 116.727 254.081 116.479 250.581 116.573C247.063 116.613 243.573 117.21 240.239 118.341" stroke="#263238" stroke-linecap="round" stroke-linejoin="round"/>
<path d="M262.669 121.599C262.669 121.599 269.812 126.28 269.676 132.112" stroke="#263238" stroke-linecap="round" stroke-linejoin="round"/>
<path d="M210.854 106.392C210.854 106.392 206.562 109.532 203.828 106.392C201.093 103.251 204.978 96.9773 201.1 94.6237C197.221 92.2701 190.958 96.5742 190.958 96.5742C190.958 96.5742 196.026 97.751 196.026 100.475C196.026 103.199 193.686 104.376 193.298 103.225C192.91 102.075 190.176 96.1581 186.278 98.9082C185.151 99.6698 184.189 100.654 183.451 101.8C182.713 102.947 182.215 104.233 181.986 105.579C181.986 105.579 191.346 104.006 192.128 107.529C192.91 111.053 188.249 107.139 184.326 107.139C180.402 107.139 176.912 107.926 177.3 110.28C177.514 112.365 177.514 114.468 177.3 116.554C177.3 116.554 180.422 113.42 184.714 113.42C189.006 113.42 189.006 116.164 185.102 116.164C181.197 116.164 178.082 120.065 178.082 120.065C178.082 120.065 181.96 125.949 186.666 128.692C191.372 131.436 192.904 130.266 193.298 127.912C193.692 125.558 192.128 119.668 194.856 119.668C197.583 119.668 190.977 130.266 194.468 130.656C197.958 131.046 200.706 129.869 201.488 127.515L202.27 125.162C202.27 125.162 200.705 119.31 201.1 116.924C201.494 114.538 202.27 116.924 203.039 119.668C203.808 122.412 204.597 129.089 205.767 128.692C206.937 128.296 210.447 123.198 211.229 121.241C212.011 119.284 205.767 113.784 205.767 112.607C205.767 111.43 210.447 113.394 211.229 114.558C211.796 115.444 212.316 116.36 212.787 117.301C212.787 117.301 215.521 115.351 215.127 109.844C214.732 104.337 210.854 106.392 210.854 106.392Z" fill="#FC39FC"/>
<path d="M188.999 120.623C191.695 116.833 195.696 111.69 199.148 109.142" stroke="#263238" stroke-linecap="round" stroke-linejoin="round"/>
<path d="M185.884 125.227C185.884 125.227 186.569 124.141 187.687 122.503" stroke="#263238" stroke-linecap="round" stroke-linejoin="round"/>
<path d="M201.1 109.922C201.1 109.922 205.78 115.812 206.95 122.086" stroke="#263238" stroke-linecap="round" stroke-linejoin="round"/>
<path d="M196.42 113.849C196.42 113.849 197.59 113.062 197.59 120.91" stroke="#263238" stroke-linecap="round" stroke-linejoin="round"/>
<path d="M199.161 106.391C199.161 106.391 201.501 104.038 199.943 99.7207" stroke="#263238" stroke-linecap="round" stroke-linejoin="round"/>
<path d="M196.026 110.319L194.08 107.179" stroke="#263238" stroke-linecap="round" stroke-linejoin="round"/>
<path d="M192.516 113.849C192.516 113.849 186.666 109.948 183.156 109.948" stroke="#263238" stroke-linecap="round" stroke-linejoin="round"/>
<path d="M214.868 155.817C214.868 155.817 227.208 148.925 228.119 164.548C228.688 174.203 229.774 216.666 230.524 247.711" stroke="#263238" stroke-width="2" stroke-linecap="round" stroke-linejoin="round"/>
<path d="M234.531 165.927C234.531 165.927 226.956 182.935 227.938 247.704" stroke="#263238" stroke-width="2" stroke-linecap="round" stroke-linejoin="round"/>
<path d="M224.642 158.964C224.642 158.964 229.36 162.007 232.049 158.529C234.738 155.05 230.233 148.666 234.202 145.942C238.171 143.217 245.016 147.378 245.016 147.378C245.016 147.378 239.741 148.932 239.909 151.832C240.078 154.732 242.624 155.824 242.96 154.556C243.297 153.288 245.811 146.91 250.071 149.563C251.306 150.297 252.381 151.275 253.23 152.438C254.079 153.601 254.684 154.926 255.009 156.331C255.009 156.331 245.042 155.265 244.434 159.036C243.827 162.807 248.526 158.386 252.637 158.132C256.748 157.878 260.504 158.496 260.239 161.006C259.974 163.515 260.626 167.624 260.626 167.624C260.626 167.624 257.142 164.51 252.618 164.777C248.093 165.043 248.261 167.943 252.372 167.696C256.483 167.449 260.019 171.395 260.019 171.395C260.019 171.395 256.27 177.845 251.506 181.037C246.742 184.23 245.042 183.079 244.46 180.621C243.878 178.164 245.191 171.863 242.308 172.033C239.425 172.202 247.078 182.962 243.4 183.592C239.722 184.223 236.768 183.157 235.798 180.725L234.829 178.287C234.829 178.287 236.122 171.987 235.559 169.529C234.997 167.072 234.325 169.601 233.672 172.546C233.019 175.491 232.605 182.572 231.345 182.234C230.084 181.896 226.07 176.733 225.126 174.711C224.183 172.689 230.427 166.506 230.356 165.271C230.285 164.036 225.463 166.389 224.713 167.676C224.17 168.649 223.678 169.65 223.239 170.674C223.239 170.674 220.24 168.775 220.311 162.956C220.382 157.137 224.642 158.964 224.642 158.964Z" fill="#FC39FC"/>
<path opacity="0.3" d="M224.642 158.964C224.642 158.964 229.36 162.007 232.049 158.529C234.738 155.05 230.233 148.666 234.202 145.942C238.171 143.217 245.016 147.378 245.016 147.378C245.016 147.378 239.741 148.932 239.909 151.832C240.078 154.732 242.624 155.824 242.96 154.556C243.297 153.288 245.811 146.91 250.071 149.563C251.306 150.297 252.381 151.275 253.23 152.438C254.079 153.601 254.684 154.926 255.009 156.331C255.009 156.331 245.042 155.265 244.434 159.036C243.827 162.807 248.526 158.386 252.637 158.132C256.748 157.878 260.504 158.496 260.239 161.006C259.974 163.515 260.626 167.624 260.626 167.624C260.626 167.624 257.142 164.51 252.618 164.777C248.093 165.043 248.261 167.943 252.372 167.696C256.483 167.449 260.019 171.395 260.019 171.395C260.019 171.395 256.27 177.845 251.506 181.037C246.742 184.23 245.042 183.079 244.46 180.621C243.878 178.164 245.191 171.863 242.308 172.033C239.425 172.202 247.078 182.962 243.4 183.592C239.722 184.223 236.768 183.157 235.798 180.725L234.829 178.287C234.829 178.287 236.122 171.987 235.559 169.529C234.997 167.072 234.325 169.601 233.672 172.546C233.019 175.491 232.605 182.572 231.345 182.234C230.084 181.896 226.07 176.733 225.126 174.711C224.183 172.689 230.427 166.506 230.356 165.271C230.285 164.036 225.463 166.389 224.713 167.676C224.17 168.649 223.678 169.65 223.239 170.674C223.239 170.674 220.24 168.775 220.311 162.956C220.382 157.137 224.642 158.964 224.642 158.964Z" fill="#263238"/>
<path d="M248.565 172.604C245.488 168.775 240.957 163.6 237.156 161.129" stroke="#263238" stroke-linecap="round" stroke-linejoin="round"/>
<path d="M252.165 177.266C252.165 177.266 251.376 176.161 250.096 174.503" stroke="#263238" stroke-linecap="round" stroke-linejoin="round"/>
<path d="M235.145 162.078C235.145 162.078 230.575 168.58 229.729 175.27" stroke="#263238" stroke-linecap="round" stroke-linejoin="round"/>
<path d="M240.323 165.92C240.323 165.92 239.03 165.166 239.528 173.443" stroke="#263238" stroke-linecap="round" stroke-linejoin="round"/>
<path d="M236.981 158.229C236.981 158.229 234.396 155.895 235.747 151.246" stroke="#263238" stroke-linecap="round" stroke-linejoin="round"/>
<path d="M240.517 162.176L242.379 158.743" stroke="#263238" stroke-linecap="round" stroke-linejoin="round"/>
<path d="M244.44 165.68C244.44 165.68 250.368 161.174 254.065 160.953" stroke="#263238" stroke-linecap="round" stroke-linejoin="round"/>
<path d="M207.822 146.702C207.822 146.702 208.01 153.529 213.304 153.854C218.598 154.179 221.881 145.304 227.298 147.443C232.715 149.582 233.245 159.315 233.245 159.315C233.245 159.315 228.074 155.063 225.333 157.209C222.592 159.354 223.207 162.657 224.687 162.137C226.167 161.617 234.24 159.803 234.525 165.921C234.636 167.665 234.394 169.413 233.814 171.06C233.234 172.708 232.328 174.219 231.151 175.504C231.151 175.504 225.424 164.737 221.254 166.701C217.085 168.664 224.7 170.368 227.718 174.347C230.737 178.326 232.773 182.539 230.071 183.963C227.369 185.387 223.75 188.865 223.75 188.865C223.75 188.865 224.473 183.235 221.119 178.859C217.764 174.483 215.004 176.629 218.048 180.608C221.093 184.587 219.58 190.828 219.58 190.828C219.58 190.828 210.602 191.446 204.183 188.826C197.764 186.206 197.719 183.69 199.794 181.453C201.869 179.217 209.005 176.206 206.872 173.424C204.739 170.641 199.245 185.673 196.11 182.402C192.975 179.132 192.05 175.426 193.789 172.786L195.547 170.153C195.547 170.153 202.696 167.15 204.765 164.913C206.833 162.676 203.853 163.717 200.473 165.069C197.092 166.421 189.769 170.829 189.251 169.334C188.734 167.839 191.126 160.271 192.483 157.943C193.841 155.616 204.261 157.69 205.444 156.766C206.627 155.843 200.996 152.612 199.206 152.735C197.868 152.85 196.537 153.035 195.218 153.288C195.218 153.288 195.063 148.971 200.899 145.077C206.736 141.182 207.822 146.702 207.822 146.702Z" fill="#FC39FC"/>
<path opacity="0.2" d="M207.822 146.702C207.822 146.702 208.01 153.529 213.304 153.854C218.598 154.179 221.881 145.304 227.298 147.443C232.715 149.582 233.245 159.315 233.245 159.315C233.245 159.315 228.074 155.063 225.333 157.209C222.592 159.354 223.207 162.657 224.687 162.137C226.167 161.617 234.24 159.803 234.525 165.921C234.636 167.665 234.394 169.413 233.814 171.06C233.234 172.708 232.328 174.219 231.151 175.504C231.151 175.504 225.424 164.737 221.254 166.701C217.085 168.664 224.7 170.368 227.718 174.347C230.737 178.326 232.773 182.539 230.071 183.963C227.369 185.387 223.75 188.865 223.75 188.865C223.75 188.865 224.473 183.235 221.119 178.859C217.764 174.483 215.004 176.629 218.048 180.608C221.093 184.587 219.58 190.828 219.58 190.828C219.58 190.828 210.602 191.446 204.183 188.826C197.764 186.206 197.719 183.69 199.794 181.453C201.869 179.217 209.005 176.206 206.872 173.424C204.739 170.641 199.245 185.673 196.11 182.402C192.975 179.132 192.05 175.426 193.789 172.786L195.547 170.153C195.547 170.153 202.696 167.15 204.765 164.913C206.833 162.676 203.853 163.717 200.473 165.069C197.092 166.421 189.769 170.829 189.251 169.334C188.734 167.839 191.126 160.271 192.483 157.943C193.841 155.616 204.261 157.69 205.444 156.766C206.627 155.843 200.996 152.612 199.206 152.735C197.868 152.85 196.537 153.035 195.218 153.288C195.218 153.288 195.063 148.971 200.899 145.077C206.736 141.182 207.822 146.702 207.822 146.702Z" fill="#263238"/>
<path d="M210.55 180.094C212.263 174.385 214.325 166.284 214.196 160.777" stroke="#263238" stroke-linecap="round" stroke-linejoin="round"/>
<path d="M208.346 186.862C208.346 186.862 208.908 185.308 209.684 182.89" stroke="#263238" stroke-linecap="round" stroke-linejoin="round"/>
<path d="M211.882 159.4C211.882 159.4 202.296 159.224 195.075 162.937" stroke="#263238" stroke-linecap="round" stroke-linejoin="round"/>
<path d="M211.584 167.234C211.584 167.234 211.462 165.433 203.556 171.558" stroke="#263238" stroke-linecap="round" stroke-linejoin="round"/>
<path d="M216.962 158.633C216.962 158.633 217.505 154.406 223.077 152.625" stroke="#263238" stroke-linecap="round" stroke-linejoin="round"/>
<path d="M215.45 164.874L220.136 164.412" stroke="#263238" stroke-linecap="round" stroke-linejoin="round"/>
<path d="M214.629 171.213C214.629 171.213 223.155 174.113 225.896 177.715" stroke="#263238" stroke-linecap="round" stroke-linejoin="round"/>
<path d="M264.679 192.129C264.679 192.129 246.347 204.326 240.161 247.555" stroke="#263238" stroke-width="2" stroke-linecap="round" stroke-linejoin="round"/>
<path d="M231.435 187.395C231.435 187.395 232.295 195.249 238.436 195.132C244.576 195.015 247.53 184.45 253.981 186.407C260.432 188.364 261.958 199.54 261.958 199.54C261.958 199.54 255.617 195.126 252.624 197.863C249.631 200.6 250.685 204.365 252.359 203.61C254.033 202.856 263.16 200.009 264.059 207.043C264.352 209.044 264.238 211.084 263.725 213.04C263.212 214.996 262.309 216.826 261.072 218.421C261.072 218.421 253.458 206.543 248.823 209.195C244.188 211.848 253.141 213.096 257.026 217.4C260.911 221.704 263.561 226.353 260.607 228.271C257.653 230.189 253.768 234.552 253.768 234.552C253.768 234.552 254.078 227.985 249.799 223.258C245.52 218.532 242.527 221.262 246.418 225.566C250.31 229.871 249.146 237.217 249.146 237.217C249.146 237.217 238.843 238.784 231.189 236.359C223.536 233.934 223.252 231.047 225.43 228.271C227.608 225.495 235.572 221.347 232.851 218.337C230.129 215.326 225.197 233.199 221.274 229.721C217.35 226.243 215.902 222.062 217.693 218.85L219.477 215.645C219.477 215.645 227.447 211.497 229.619 208.721C231.791 205.945 228.455 207.42 224.68 209.312C220.905 211.204 212.871 216.978 212.127 215.3C211.384 213.623 213.42 204.664 214.803 201.849C216.187 199.033 228.378 200.431 229.67 199.248C230.963 198.065 224.15 194.872 222.095 195.184C220.57 195.445 219.059 195.785 217.57 196.205C217.57 196.205 216.982 191.238 223.355 186.193C229.729 181.147 231.435 187.395 231.435 187.395Z" fill="#FC39FC"/>
<path opacity="0.3" d="M231.435 187.395C231.435 187.395 232.295 195.249 238.436 195.132C244.576 195.015 247.53 184.45 253.981 186.407C260.432 188.364 261.958 199.54 261.958 199.54C261.958 199.54 255.617 195.126 252.624 197.863C249.631 200.6 250.685 204.365 252.359 203.61C254.033 202.856 263.16 200.009 264.059 207.043C264.352 209.044 264.238 211.084 263.725 213.04C263.212 214.996 262.309 216.826 261.072 218.421C261.072 218.421 253.458 206.543 248.823 209.195C244.188 211.848 253.141 213.096 257.026 217.4C260.911 221.704 263.561 226.353 260.607 228.271C257.653 230.189 253.768 234.552 253.768 234.552C253.768 234.552 254.078 227.985 249.799 223.258C245.52 218.532 242.527 221.262 246.418 225.566C250.31 229.871 249.146 237.217 249.146 237.217C249.146 237.217 238.843 238.784 231.189 236.359C223.536 233.934 223.252 231.047 225.43 228.271C227.608 225.495 235.572 221.347 232.851 218.337C230.129 215.326 225.197 233.199 221.274 229.721C217.35 226.243 215.902 222.062 217.693 218.85L219.477 215.645C219.477 215.645 227.447 211.497 229.619 208.721C231.791 205.945 228.455 207.42 224.68 209.312C220.905 211.204 212.871 216.978 212.127 215.3C211.384 213.623 213.42 204.664 214.803 201.849C216.187 199.033 228.378 200.431 229.67 199.248C230.963 198.065 224.15 194.872 222.095 195.184C220.57 195.445 219.059 195.785 217.57 196.205C217.57 196.205 216.982 191.238 223.355 186.193C229.729 181.147 231.435 187.395 231.435 187.395Z" fill="#263238"/>
<path d="M237.718 225.664C239.159 218.915 240.782 209.377 240.11 203.025" stroke="#263238" stroke-linecap="round" stroke-linejoin="round"/>
<path d="M235.811 233.68C235.811 233.68 236.315 231.84 236.981 228.979" stroke="#263238" stroke-linecap="round" stroke-linejoin="round"/>
<path d="M237.298 201.66C237.298 201.66 226.219 202.369 218.216 207.336" stroke="#263238" stroke-linecap="round" stroke-linejoin="round"/>
<path d="M237.705 210.729C237.705 210.729 237.395 208.655 228.843 216.483" stroke="#263238" stroke-linecap="round" stroke-linejoin="round"/>
<path d="M243.115 200.288C243.115 200.288 243.348 195.359 249.579 192.778" stroke="#263238" stroke-linecap="round" stroke-linejoin="round"/>
<path d="M241.939 207.642L247.304 206.66" stroke="#263238" stroke-linecap="round" stroke-linejoin="round"/>
<path d="M241.596 215.047C241.596 215.047 251.7 217.589 255.203 221.457" stroke="#263238" stroke-linecap="round" stroke-linejoin="round"/>
<path d="M236.774 247.34L238.63 213.727" stroke="#263238" stroke-width="2" stroke-linecap="round" stroke-linejoin="round"/>
<path d="M234.422 247.711C234.816 219.429 230.795 182.474 207.105 182.474" stroke="#263238" stroke-width="2" stroke-linecap="round" stroke-linejoin="round"/>
<path d="M183.369 200.587C187.616 198.065 192.315 197.987 194.617 195.341C196.918 192.694 192.399 191.329 189.982 192.33C187.564 193.332 181.96 196.231 180.894 196.881C179.827 197.532 180.57 188.286 182.535 184.808C184.5 181.329 189.891 179.307 192.58 182.149C198.256 188.143 207.105 180.283 206.504 175.595C205.903 170.907 210.246 165.875 219.58 168.827C228.914 171.779 225.43 173.417 225.43 173.417C225.43 173.417 218.805 177.507 214.558 180.029C210.311 182.552 203.272 184.723 204.784 186.563C206.297 188.403 210.363 187.285 213.769 184.535C217.176 181.785 226.943 175.257 227.945 177.689C228.947 180.12 232.469 186.823 232.469 186.823C228.145 187.494 223.87 188.449 219.671 189.684C213.989 191.479 212.825 194.619 217.266 194.885C221.707 195.152 229.774 191.771 232.282 196.043C234.79 200.314 233.077 211.283 233.077 211.283C233.077 211.283 224.945 205.743 220.796 205.763C216.646 205.782 219.302 208.09 223.937 211.1C225.948 212.339 227.89 213.687 229.755 215.138L225.534 226.009C225.534 226.009 218.559 225.111 215.838 225.307L213.084 225.502C213.084 225.502 213.084 214.098 209.852 210.71C206.62 207.323 206.019 215.157 205.327 217.153C204.636 219.149 206.717 225.118 206.717 225.118C206.717 225.118 198.663 220.684 196.052 218.922L193.466 217.16C193.466 217.16 196.478 208.883 198.521 206.51C200.563 204.137 203.356 204.501 201.003 202.44C198.65 200.379 195.127 201.472 193.117 204.391C191.107 207.31 188.747 213.044 188.747 213.044C188.747 213.044 185.742 213.539 181.837 209.085C177.933 204.631 179.122 203.116 183.369 200.587ZM220.285 213.148C223.407 211.582 215.999 208.441 215.999 208.441C213.265 208.045 217.169 214.715 220.285 213.148ZM215.03 198.5C216.361 197.85 212.373 196.491 212.373 196.491C206.607 197.61 213.705 199.17 215.03 198.5Z" fill="#FC39FC"/>
<path d="M220.369 221.139C221.183 222.006 222.017 222.844 222.87 223.655" stroke="#263238" stroke-linecap="round" stroke-linejoin="round"/>
<path d="M204.364 196.726C207.344 202.98 211.862 211.14 217.803 218.239" stroke="#263238" stroke-linecap="round" stroke-linejoin="round"/>
<path d="M202.916 193.591C201.048 189.385 200.085 186.608 200.085 186.608C200.085 186.608 196.607 188.247 193.227 187.376C191.236 186.847 189.148 186.805 187.138 187.252" stroke="#263238" stroke-linecap="round" stroke-linejoin="round"/>
<path d="M206.31 192.564C205.431 191.791 219.05 184.983 219.05 184.983" stroke="#263238" stroke-linecap="round" stroke-linejoin="round"/>
<path d="M199.161 196.687C199.161 196.687 192.697 199.372 189.129 203.52" stroke="#263238" stroke-linecap="round" stroke-linejoin="round"/>
<path d="M207.738 201.081C211.192 200.494 214.695 200.246 218.197 200.34C221.715 200.381 225.205 200.978 228.539 202.108" stroke="#263238" stroke-linecap="round" stroke-linejoin="round"/>
<path d="M206.103 205.372C206.103 205.372 198.992 210.053 199.096 215.885" stroke="#263238" stroke-linecap="round" stroke-linejoin="round"/>
<path d="M257.924 190.165C257.924 190.165 262.216 193.306 264.944 190.165C267.672 187.025 263.8 180.751 267.678 178.391C271.557 176.031 277.82 180.341 277.82 180.341C277.82 180.341 272.746 181.518 272.746 184.242C272.746 186.967 275.086 188.143 275.48 186.986C275.875 185.829 278.596 179.925 282.5 182.669C283.626 183.433 284.586 184.417 285.324 185.563C286.061 186.71 286.561 187.994 286.792 189.34C286.792 189.34 277.426 187.773 276.65 191.29C275.875 194.808 280.529 190.9 284.452 190.9C288.376 190.9 291.86 191.68 291.472 194.034C291.262 196.122 291.262 198.226 291.472 200.314C291.472 200.314 288.35 197.174 284.058 197.174C279.766 197.174 279.766 199.924 283.67 199.924C287.574 199.924 290.69 203.825 290.69 203.825C290.69 203.825 286.812 209.677 282.112 212.459C277.413 215.242 275.868 214.026 275.48 211.673C275.093 209.319 276.65 203.435 273.916 203.435C271.182 203.435 277.794 214.026 274.31 214.423C270.826 214.82 268.066 213.636 267.284 211.283L266.508 208.929C266.508 208.929 268.066 203.11 267.678 200.744C267.291 198.377 266.508 200.744 265.739 203.494C264.97 206.244 264.175 212.908 263.005 212.518C261.835 212.128 258.325 207.024 257.549 205.061C256.774 203.097 263.005 197.61 263.005 196.433C263.005 195.256 258.325 197.213 257.549 198.383C256.98 199.272 256.458 200.19 255.985 201.134C255.985 201.134 253.257 199.183 253.645 193.676C254.033 188.169 257.924 190.165 257.924 190.165Z" fill="#FC39FC"/>
<path d="M279.779 204.398C277.083 200.607 273.082 195.458 269.624 192.909" stroke="#263238" stroke-linecap="round" stroke-linejoin="round"/>
<path d="M282.888 209.001C282.888 209.001 282.203 207.908 281.085 206.276" stroke="#263238" stroke-linecap="round" stroke-linejoin="round"/>
<path d="M267.679 193.695C267.679 193.695 262.992 199.547 261.822 205.86" stroke="#263238" stroke-linecap="round" stroke-linejoin="round"/>
<path d="M272.358 197.623C272.358 197.623 271.188 196.836 271.188 204.683" stroke="#263238" stroke-linecap="round" stroke-linejoin="round"/>
<path d="M269.618 190.165C269.618 190.165 267.278 187.811 268.842 183.494" stroke="#263238" stroke-linecap="round" stroke-linejoin="round"/>
<path d="M272.746 194.086L274.698 190.952" stroke="#263238" stroke-linecap="round" stroke-linejoin="round"/>
<path d="M276.256 197.623C276.256 197.623 282.112 193.722 285.622 193.722" stroke="#263238" stroke-linecap="round" stroke-linejoin="round"/>
<path opacity="0.2" d="M169.427 6.20117H25.9272V196.27H169.427V6.20117Z" fill="black"/>
<path d="M164.902 1H21.4023V191.069H164.902V1Z" fill="white" stroke="#263238" stroke-linecap="round" stroke-linejoin="round"/>
<path d="M127.153 58.0905H29.1592V35.9395H156.318V58.0905H129.518" stroke="#263238" stroke-linecap="round" stroke-linejoin="round"/>
<path d="M37.0969 84.2921H29.1592V72.8428H98.569" stroke="#263238" stroke-linecap="round" stroke-linejoin="round"/>
<path d="M101.581 72.8428H156.318V84.2921H39.2493" stroke="#263238" stroke-linecap="round" stroke-linejoin="round"/>
<path d="M136.396 107.464H29.1592V96.0146H156.318V107.464H138.762" stroke="#263238" stroke-linecap="round" stroke-linejoin="round"/>
<path d="M62.0348 176.713H29.1592V118.406H156.318V176.713H65.2538" stroke="#263238" stroke-linecap="round" stroke-linejoin="round"/>
<path d="M156.318 118.406H29.1592V128.594H156.318V118.406Z" fill="#D1D1D1" stroke="#263238" stroke-linecap="round" stroke-linejoin="round"/>
<path d="M89.6035 58.5199V72.8625H29.1592V58.0908" stroke="#263238" stroke-linecap="round" stroke-linejoin="round"/>
<path d="M156.318 43.7998H29.1592V50.2299H156.318V43.7998Z" fill="#D1D1D1" stroke="#263238" stroke-linecap="round" stroke-linejoin="round"/>
<path d="M114.102 36.5381V43.8329" stroke="#263238" stroke-linecap="round" stroke-linejoin="round"/>
<path d="M130.449 37.7598H121.787V42.0183H130.449V37.7598Z" fill="#D1D1D1" stroke="#263238" stroke-linecap="round" stroke-linejoin="round"/>
<path d="M93.8633 50.4316V58.1621" stroke="#263238" stroke-linecap="round" stroke-linejoin="round"/>
<path d="M120.449 50.4316V58.1621" stroke="#263238" stroke-linecap="round" stroke-linejoin="round"/>
<path d="M52.552 72.862V58.1943" stroke="#263238" stroke-linecap="round" stroke-linejoin="round"/>
<path d="M67.3545 72.862V58.1943" stroke="#263238" stroke-linecap="round" stroke-linejoin="round"/>
<path d="M83.4951 72.9336V84.0904" stroke="#263238" stroke-linecap="round" stroke-linejoin="round"/>
<path d="M113.811 72.7783V107.269" stroke="#263238" stroke-linecap="round" stroke-linejoin="round"/>
<path d="M29.1592 84.292V96.0274H113.856" stroke="#263238" stroke-linecap="round" stroke-linejoin="round"/>
<path d="M61.0586 84.377V95.6638" stroke="#263238" stroke-linecap="round" stroke-linejoin="round"/>
<path d="M148.865 138.087H156.382" stroke="#263238" stroke-linecap="round" stroke-linejoin="round"/>
<path d="M29.3335 138.087H146.066" stroke="#263238" stroke-linecap="round" stroke-linejoin="round"/>
<path d="M29.3335 147.293H156.382" stroke="#263238" stroke-linecap="round" stroke-linejoin="round"/>
<path d="M68.4792 156.461H156.382" stroke="#263238" stroke-linecap="round" stroke-linejoin="round"/>
<path d="M29.3335 156.461H65.2536" stroke="#263238" stroke-linecap="round" stroke-linejoin="round"/>
<path d="M53.528 140.622H49.2295V144.946H53.528V140.622Z" fill="#D1D1D1" stroke="#263238" stroke-linecap="round" stroke-linejoin="round"/>
<path d="M78.1882 140.622H73.8896V144.946H78.1882V140.622Z" fill="#D1D1D1" stroke="#263238" stroke-linecap="round" stroke-linejoin="round"/>
<path d="M61.1555 149.445H56.8569V153.769H61.1555V149.445Z" fill="#D1D1D1" stroke="#263238" stroke-linecap="round" stroke-linejoin="round"/>
<path d="M84.7297 149.445H80.4312V153.769H84.7297V149.445Z" fill="#D1D1D1" stroke="#263238" stroke-linecap="round" stroke-linejoin="round"/>
<path d="M107.263 149.445H102.964V153.769H107.263V149.445Z" fill="#D1D1D1" stroke="#263238" stroke-linecap="round" stroke-linejoin="round"/>
<path d="M130.145 149.445H125.847V153.769H130.145V149.445Z" fill="#D1D1D1" stroke="#263238" stroke-linecap="round" stroke-linejoin="round"/>
<path d="M54.8662 147.371V156.545" stroke="#263238" stroke-linecap="round" stroke-linejoin="round"/>
<path d="M77.9231 147.371V156.545" stroke="#263238" stroke-linecap="round" stroke-linejoin="round"/>
<path d="M100.973 147.371V156.545" stroke="#263238" stroke-linecap="round" stroke-linejoin="round"/>
<path d="M124.024 147.371V156.545" stroke="#263238" stroke-linecap="round" stroke-linejoin="round"/>
<path d="M29.3335 165.81H156.382" stroke="#263238" stroke-linecap="round" stroke-linejoin="round"/>
<path d="M45.3835 158.795H41.085V163.119H45.3835V158.795Z" fill="#D1D1D1" stroke="#263238" stroke-linecap="round" stroke-linejoin="round"/>
<path d="M84.7297 158.795H80.4312V163.119H84.7297V158.795Z" fill="#D1D1D1" stroke="#263238" stroke-linecap="round" stroke-linejoin="round"/>
<path d="M107.263 158.795H102.964V163.119H107.263V158.795Z" fill="#D1D1D1" stroke="#263238" stroke-linecap="round" stroke-linejoin="round"/>
<path d="M136.299 158.795H132V163.119H136.299V158.795Z" fill="#D1D1D1" stroke="#263238" stroke-linecap="round" stroke-linejoin="round"/>
<path d="M39.0942 156.721V165.797" stroke="#263238" stroke-linecap="round" stroke-linejoin="round"/>
<path d="M77.9231 156.721V165.797" stroke="#263238" stroke-linecap="round" stroke-linejoin="round"/>
<path d="M100.973 156.721V165.797" stroke="#263238" stroke-linecap="round" stroke-linejoin="round"/>
<path d="M130.177 156.721V165.797" stroke="#263238" stroke-linecap="round" stroke-linejoin="round"/>
<path d="M80.3405 16.3568V17.9302H76.7918V24.6528H75.053V9.12695H81.1873V10.7003H76.7789V16.3568H80.3405Z" fill="#263238"/>
<path d="M82.4348 12.8785C82.4348 10.5054 83.5983 8.97754 85.9577 8.97754C88.317 8.97754 89.5064 10.5119 89.5064 12.8785V20.9015C89.5064 23.2551 88.3429 24.8025 85.9577 24.8025C83.5725 24.8025 82.4348 23.2486 82.4348 20.9015V12.8785ZM84.1025 20.9925C84.1025 22.4099 84.6972 23.2356 85.9318 23.2356C87.1664 23.2356 87.7611 22.4099 87.7611 20.9925V12.7875C87.7611 11.3896 87.1923 10.5444 85.9318 10.5444C84.6713 10.5444 84.1025 11.3896 84.1025 12.7875V20.9925Z" fill="#263238"/>
<path d="M94.5808 9.12695C97.0048 9.12695 98.0196 10.3688 98.0196 12.6768V13.9382C98.0196 15.6481 97.4249 16.7144 96.0804 17.137C97.4895 17.5531 98.0196 18.7104 98.0196 20.3878V22.8064C97.9692 23.4446 98.0758 24.0854 98.3299 24.6723H96.5911C96.3455 24.0763 96.2457 23.4297 96.3002 22.7869V20.3293C96.3002 18.5738 95.4857 18.0212 94.0507 18.0212H92.842V24.6528H91.1226V9.12695H94.5808ZM94.1412 16.4478C95.5051 16.4478 96.3196 16.0057 96.3196 14.3153V12.8459C96.3196 11.448 95.8154 10.7134 94.5355 10.7134H92.8614V16.4608L94.1412 16.4478Z" fill="#263238"/>
<path d="M105.511 24.6268H103.863L101.277 12.2737V24.6268H99.7776V9.12695H102.202L104.735 21.5256L107.185 9.12695H109.583V24.6528H107.954V12.1957L105.511 24.6268Z" fill="#263238"/>
<path d="M67.8328 32.2529H81.8337" stroke="#263238" stroke-miterlimit="10"/>
<path d="M29.6372 32.2529H65.4733" stroke="#263238" stroke-miterlimit="10"/>
<path d="M92.8872 32.2529H123.746" stroke="#263238" stroke-miterlimit="10"/>
<path d="M132.13 32.2529H156.512" stroke="#263238" stroke-miterlimit="10"/>
<path d="M137.714 251.813L185.69 249.83L211.888 281.857L147.19 287.527L137.714 251.813Z" fill="white" stroke="#263238" stroke-linecap="round" stroke-linejoin="round"/>
<path d="M147.404 273.867L199.264 270.232L202.683 274.563L148.845 278.678L147.404 273.867Z" stroke="#263238" stroke-width="0.5" stroke-linecap="round" stroke-linejoin="round"/>
<path d="M145.846 268.665L195.547 265.519L197.131 267.528L146.512 270.882L145.846 268.665Z" stroke="#263238" stroke-width="0.5" stroke-linecap="round" stroke-linejoin="round"/>
<path d="M144.585 264.459L192.522 261.683L193.989 263.542L145.193 266.494L144.585 264.459Z" stroke="#263238" stroke-width="0.5" stroke-linecap="round" stroke-linejoin="round"/>
<path d="M141.347 253.647L184.681 251.749L191.171 259.974L144.023 262.581L141.347 253.647Z" stroke="#263238" stroke-width="0.5" stroke-linecap="round" stroke-linejoin="round"/>
<path d="M143.519 260.896L189.95 258.426L191.171 259.973L144.023 262.58L143.519 260.896Z" fill="#D1D1D1" stroke="#263238" stroke-width="0.5" stroke-linecap="round" stroke-linejoin="round"/>
<path d="M175.457 271.813L173.913 269.063L197.131 267.528L199.264 270.233" stroke="#263238" stroke-width="0.5" stroke-linecap="round" stroke-linejoin="round"/>
<path d="M147.902 275.525L200.447 271.729L201.442 272.983L148.322 276.923L147.902 275.525Z" fill="#D1D1D1" stroke="#263238" stroke-width="0.5" stroke-linecap="round" stroke-linejoin="round"/>
<path d="M167.526 277.112L166.796 275.545" stroke="#263238" stroke-width="0.5" stroke-linecap="round" stroke-linejoin="round"/>
<path d="M159.899 276.461L163.667 276.182L164.068 277.098L160.274 277.391L159.899 276.461Z" fill="#D1D1D1" stroke="#263238" stroke-width="0.5" stroke-linecap="round" stroke-linejoin="round"/>
<path d="M174.61 273.555L173.764 272.008" stroke="#263238" stroke-width="0.5" stroke-linecap="round" stroke-linejoin="round"/>
<path d="M163.46 274.361L162.762 272.774" stroke="#263238" stroke-width="0.5" stroke-linecap="round" stroke-linejoin="round"/>
<path d="M188.321 268.106L190.24 270.844" stroke="#263238" stroke-width="0.5" stroke-linecap="round" stroke-linejoin="round"/>
<path d="M182.632 268.483L184.416 271.253" stroke="#263238" stroke-width="0.5" stroke-linecap="round" stroke-linejoin="round"/>
<path d="M176.324 268.887L175.128 266.852" stroke="#263238" stroke-width="0.5" stroke-linecap="round" stroke-linejoin="round"/>
<path d="M164.203 269.719L161.308 263.523" stroke="#263238" stroke-width="0.5" stroke-linecap="round" stroke-linejoin="round"/>
<path d="M195.547 265.519L193.99 263.543L162.193 265.467" stroke="#263238" stroke-width="0.5" stroke-linecap="round" stroke-linejoin="round"/>
<path d="M183.673 266.26L182.367 264.31" stroke="#263238" stroke-width="0.5" stroke-linecap="round" stroke-linejoin="round"/>
<path d="M188.792 257.034L143.041 259.381" stroke="#263238" stroke-width="0.5" stroke-linecap="round" stroke-linejoin="round"/>
<path d="M187.752 255.721L142.607 257.951" stroke="#263238" stroke-width="0.5" stroke-linecap="round" stroke-linejoin="round"/>
<path d="M186.75 254.446L142.194 256.566" stroke="#263238" stroke-width="0.5" stroke-linecap="round" stroke-linejoin="round"/>
<path d="M179.801 256.462L181.269 256.391L181.715 257.015L180.234 257.086L179.801 256.462Z" fill="#D1D1D1" stroke="#263238" stroke-width="0.5" stroke-linecap="round" stroke-linejoin="round"/>
<path d="M171.23 256.891L172.736 256.813L173.13 257.451L171.618 257.529L171.23 256.891Z" fill="#D1D1D1" stroke="#263238" stroke-width="0.5" stroke-linecap="round" stroke-linejoin="round"/>
<path d="M176.323 255.331L177.791 255.26L178.211 255.871L176.737 255.942L176.323 255.331Z" fill="#D1D1D1" stroke="#263238" stroke-width="0.5" stroke-linecap="round" stroke-linejoin="round"/>
<path d="M168.186 255.721L169.685 255.649L170.054 256.274L168.548 256.345L168.186 255.721Z" fill="#D1D1D1" stroke="#263238" stroke-width="0.5" stroke-linecap="round" stroke-linejoin="round"/>
<path d="M160.235 256.105L161.767 256.033L162.084 256.664L160.545 256.735L160.235 256.105Z" fill="#D1D1D1" stroke="#263238" stroke-width="0.5" stroke-linecap="round" stroke-linejoin="round"/>
<path d="M151.993 256.501L153.551 256.43L153.822 257.067L152.252 257.145L151.993 256.501Z" fill="#D1D1D1" stroke="#263238" stroke-width="0.5" stroke-linecap="round" stroke-linejoin="round"/>
<path d="M179.097 256.138L178.198 254.844" stroke="#263238" stroke-width="0.5" stroke-linecap="round" stroke-linejoin="round"/>
<path d="M171.114 256.527L170.312 255.214" stroke="#263238" stroke-width="0.5" stroke-linecap="round" stroke-linejoin="round"/>
<path d="M162.956 256.931L162.265 255.598" stroke="#263238" stroke-width="0.5" stroke-linecap="round" stroke-linejoin="round"/>
<path d="M154.618 257.346L154.036 255.987" stroke="#263238" stroke-width="0.5" stroke-linecap="round" stroke-linejoin="round"/>
<path d="M185.754 253.186L141.787 255.195" stroke="#263238" stroke-width="0.5" stroke-linecap="round" stroke-linejoin="round"/>
<path d="M180.738 253.79L182.167 253.725L182.6 254.31L181.171 254.381L180.738 253.79Z" fill="#D1D1D1" stroke="#263238" stroke-width="0.5" stroke-linecap="round" stroke-linejoin="round"/>
<path d="M167.423 254.407L168.896 254.336L169.258 254.941L167.772 255.012L167.423 254.407Z" fill="#D1D1D1" stroke="#263238" stroke-width="0.5" stroke-linecap="round" stroke-linejoin="round"/>
<path d="M159.575 254.765L161.082 254.7L161.398 255.311L159.879 255.383L159.575 254.765Z" fill="#D1D1D1" stroke="#263238" stroke-width="0.5" stroke-linecap="round" stroke-linejoin="round"/>
<path d="M149.227 255.246L150.778 255.175L151.024 255.799L149.466 255.87L149.227 255.246Z" fill="#D1D1D1" stroke="#263238" stroke-width="0.5" stroke-linecap="round" stroke-linejoin="round"/>
<path d="M183.479 254.563L182.555 253.328" stroke="#263238" stroke-width="0.5" stroke-linecap="round" stroke-linejoin="round"/>
<path d="M170.299 255.195L169.536 253.927" stroke="#263238" stroke-width="0.5" stroke-linecap="round" stroke-linejoin="round"/>
<path d="M162.252 255.572L161.586 254.291" stroke="#263238" stroke-width="0.5" stroke-linecap="round" stroke-linejoin="round"/>
<path d="M151.806 256.072L151.276 254.766" stroke="#263238" stroke-width="0.5" stroke-linecap="round" stroke-linejoin="round"/>
<path d="M184.507 280.454L184.293 280.096L185.819 279.972L184.901 278.471L185.631 278.412L187.797 281.936L185.127 282.164L184.914 281.793L186.853 281.63L186.058 280.33L184.507 280.454Z" fill="#263238"/>
<path d="M184.074 281.364C184.403 281.917 184.074 282.32 183.065 282.411C182.057 282.502 181.294 282.183 180.984 281.624L179.95 279.778C179.652 279.251 179.95 278.861 180.978 278.783C182.005 278.705 182.691 279.004 182.994 279.53L184.074 281.364ZM182.257 279.569C182.14 279.398 181.975 279.265 181.783 279.187C181.591 279.11 181.381 279.091 181.178 279.134C180.641 279.173 180.499 279.381 180.68 279.7L181.747 281.578C181.863 281.758 182.031 281.899 182.228 281.981C182.426 282.064 182.643 282.084 182.852 282.04C183.389 281.995 183.537 281.774 183.35 281.448L182.257 279.569Z" fill="#263238"/>
<path d="M179.232 282.663C178.153 282.754 177.545 282.494 177.261 281.948L177.099 281.656C176.892 281.259 177.022 281.005 177.552 280.843C177.305 280.859 177.058 280.806 176.838 280.692C176.618 280.577 176.434 280.405 176.304 280.193L176.013 279.647C175.94 279.476 175.816 279.333 175.658 279.237L176.414 279.172C176.568 279.274 176.689 279.418 176.763 279.588L177.06 280.141C177.28 280.544 177.707 280.641 178.353 280.589L178.883 280.55L178.062 279.048L178.799 278.983L180.784 282.559L179.232 282.663ZM178.476 280.927C177.881 280.979 177.577 281.109 177.784 281.506L177.972 281.851C178.146 282.182 178.463 282.332 179.032 282.286L179.775 282.228L179.038 280.882L178.476 280.927Z" fill="#263238"/>
<path d="M172.542 279.465L173.266 279.406L175.852 282.17L174.378 279.309L175.024 279.257L176.899 282.859L175.826 282.95L173.24 280.141L173.596 283.145L172.51 283.236L170.758 279.601L171.469 279.543L172.891 282.443L172.542 279.465Z" fill="#263238"/>
<path d="M203.091 275.33L181.779 276.981" stroke="#263238" stroke-width="0.5" stroke-miterlimit="10"/>
<path d="M177.106 277.346L163.738 278.379" stroke="#263238" stroke-width="0.5" stroke-miterlimit="10"/>
<path d="M160.021 278.672L149.007 279.524" stroke="#263238" stroke-width="0.5" stroke-miterlimit="10"/>
<path d="M182.354 149.595C177.768 150.96 173.299 152.7 168.993 154.796C161.883 158.268 147.882 163.469 141.198 166.07C134.515 168.671 130.429 175.387 129.137 178.638C127.844 181.888 122.24 195.756 122.24 195.756C122.24 195.756 110.391 214.396 107.373 218.948C104.354 223.499 100.262 229.786 100.049 235.637C99.8357 241.489 103.061 244.74 110.605 244.74C118.148 244.74 121.38 242.139 125.039 238.238C128.697 234.337 140.552 215.261 142.278 213.096C144.004 210.931 148.742 202.694 148.742 202.694C148.742 202.694 151.114 224.149 151.114 230.865V246.69H218.986C218.986 246.69 222.217 222.849 222.864 220.898C223.51 218.948 228.462 204.859 228.462 204.859C228.462 204.859 246.347 233.901 249.334 237.802C252.32 241.703 260.846 249.921 269.197 246.632C277.549 243.342 275.836 234.33 271.311 223.499C266.786 212.667 258.842 194.241 258.842 193.364C258.842 192.486 255.61 179.71 242.469 169.737C229.328 159.763 216.4 157.384 213.381 155.869C210.363 154.354 200.667 149.595 182.354 149.595Z" fill="#337EF0" stroke="#263238" stroke-linecap="round" stroke-linejoin="round"/>
<path d="M140.125 188.604L148.529 201.829C148.529 201.829 141.632 194.677 137.32 193.591" stroke="#263238" stroke-linecap="round" stroke-linejoin="round"/>
<path d="M148.529 201.829L143.571 200.093C143.571 200.093 139.046 197.493 135.381 198.579" stroke="#263238" stroke-linecap="round" stroke-linejoin="round"/>
<path d="M174.3 170.186C174.785 173.755 175.903 178.189 178.476 181.238" stroke="#263238" stroke-linecap="round" stroke-linejoin="round"/>
<path d="M173.951 164.334C173.951 164.334 173.906 165.576 174.022 167.448" stroke="#263238" stroke-linecap="round" stroke-linejoin="round"/>
<path d="M176.311 183.839C176.918 184.463 177.565 185.045 178.25 185.581" stroke="#263238" stroke-linecap="round" stroke-linejoin="round"/>
<path d="M170.286 174.087C171.463 177.296 173.199 180.268 175.412 182.864" stroke="#263238" stroke-linecap="round" stroke-linejoin="round"/>
<path d="M212.845 222.511C211.377 224.91 209.988 226.847 208.856 227.836" stroke="#263238" stroke-linecap="round" stroke-linejoin="round"/>
<path d="M223.724 200.958C223.724 200.958 218.714 212.349 214.028 220.463" stroke="#263238" stroke-linecap="round" stroke-linejoin="round"/>
<path d="M201.695 229.643C201.048 230.429 200.551 231.086 200.24 231.515" stroke="#263238" stroke-linecap="round" stroke-linejoin="round"/>
<path d="M209.936 219.812C209.936 219.812 205.967 224.455 203.039 228.05" stroke="#263238" stroke-linecap="round" stroke-linejoin="round"/>
<path d="M228.462 204.859C228.462 204.859 237.944 189.691 238.377 188.391" stroke="#263238" stroke-linecap="round" stroke-linejoin="round"/>
<path d="M235.714 199.014C238.533 196.719 242.767 193.813 246.994 192.941" stroke="#263238" stroke-linecap="round" stroke-linejoin="round"/>
<path d="M232.34 202.043C232.34 202.043 233.109 201.244 234.402 200.093" stroke="#263238" stroke-linecap="round" stroke-linejoin="round"/>
<path d="M244.195 190.556C241.469 191.986 238.873 193.654 236.438 195.542" stroke="#263238" stroke-linecap="round" stroke-linejoin="round"/>
<path d="M248.073 222.635C249.912 221.756 251.941 221.355 253.973 221.469C256.006 221.583 257.978 222.207 259.708 223.285" stroke="#263238" stroke-linecap="round" stroke-linejoin="round"/>
<path d="M250.013 219.813C250.013 219.813 257.55 218.298 263.154 221.764" stroke="#263238" stroke-linecap="round" stroke-linejoin="round"/>
<path d="M108.666 222.414C109.965 221.229 111.506 220.344 113.181 219.821C114.855 219.297 116.623 219.148 118.361 219.384" stroke="#263238" stroke-linecap="round" stroke-linejoin="round"/>
<path d="M122.007 219.891C122.536 220.271 123.046 220.679 123.532 221.113" stroke="#263238" stroke-linecap="round" stroke-linejoin="round"/>
<path d="M116.209 217.433C117.443 217.587 118.641 217.962 119.745 218.538" stroke="#263238" stroke-linecap="round" stroke-linejoin="round"/>
<path d="M180.848 155.232C180.848 155.232 178.909 163.47 179.556 169.536C180.202 175.602 186.879 184.925 192.483 187.09C198.088 189.255 208.423 182.975 212.089 179.288C215.754 175.602 215.967 163.899 215.967 163.899C215.967 163.899 210.382 151.767 198.514 148.295C186.646 144.823 180.848 155.232 180.848 155.232Z" fill="#C2A868" stroke="#263238" stroke-linecap="round" stroke-linejoin="round"/>
<path d="M225.404 153.535C225.404 153.535 226.529 156.923 224.364 161.207C222.198 165.492 218.016 169.113 216.891 168.742C215.767 168.372 220.388 152.865 220.388 152.865C220.388 152.865 223.459 151.13 225.404 153.535Z" fill="#C2A868" stroke="#263238" stroke-linecap="round" stroke-linejoin="round"/>
<path d="M177.868 141.156C177.868 141.156 175.742 144.01 176.446 148.769C177.151 153.529 179.995 158.281 181.178 158.281C182.361 158.281 182.833 142.112 182.833 142.112C182.833 142.112 180.467 139.492 177.868 141.156Z" fill="#C2A868" stroke="#263238" stroke-linecap="round" stroke-linejoin="round"/>
<path d="M181.417 147.339C181.417 147.339 179.762 161.85 181.65 167.799C183.537 173.748 187.325 183.02 193.24 185.399C199.154 187.779 212.632 177.552 214.758 173.508C216.885 169.464 222.799 152.338 222.799 152.338C224.355 150.256 225.365 147.814 225.738 145.236C226.11 142.659 225.834 140.028 224.932 137.586C221.856 129.024 205.301 123.79 198.43 124.03C191.559 124.271 184.714 129.979 184.242 134.498C183.77 139.017 181.417 147.339 181.417 147.339Z" fill="#C2A868" stroke="#263238" stroke-linecap="round" stroke-linejoin="round"/>
<path d="M196.788 156.142C196.788 156.142 191.585 149.719 186.853 151.864" stroke="#263238" stroke-width="2" stroke-linecap="round" stroke-linejoin="round"/>
<path d="M205.062 158.997C205.062 158.997 212.173 157.332 215.469 160.427" stroke="#263238" stroke-width="2" stroke-linecap="round" stroke-linejoin="round"/>
<path d="M187.564 157.572C187.564 157.572 189.083 162.123 195.25 161.597" stroke="#263238" stroke-linecap="round" stroke-linejoin="round"/>
<path d="M204.59 163.989C204.59 163.989 206.012 167.084 212.631 165.894" stroke="#263238" stroke-linecap="round" stroke-linejoin="round"/>
<path d="M192.936 168.319C192.726 169.283 192.864 170.29 193.324 171.161C194.093 172.324 196.019 174.002 197.435 174.002C198.85 174.002 201.804 173.488 202.574 172.701C203.067 172.192 203.501 171.627 203.866 171.018" stroke="#263238" stroke-linecap="round" stroke-linejoin="round"/>
<path d="M189.723 172.585C189.723 172.585 192.955 176.33 195.638 177.234C198.32 178.137 203.343 176.583 204.758 176.07" stroke="#263238" stroke-linecap="round" stroke-linejoin="round"/>
<path d="M236.561 130.968C236.341 129.407 237.446 127.177 237.666 125.844C237.886 124.512 236.115 122.054 234.57 120.051C233.376 118.448 232.75 116.489 232.792 114.486C232.792 113.147 231.248 112.035 229.916 111.144C228.297 110.06 226.811 108.788 225.488 107.354C224.603 106.242 220.841 106.463 220.175 106.463C219.509 106.463 216.633 104.018 214.861 103.128C213.09 102.237 209.548 103.778 209.548 103.778C209.548 103.778 205.34 101.775 204.455 101.775C203.569 101.775 199.8 103.336 199.8 103.336C198.553 103.874 197.253 104.281 195.922 104.552C195.681 104.488 195.434 104.447 195.185 104.428C194.687 103.778 190.26 106.45 190.26 106.45L186.278 107.1L184.798 109.512C183.382 109.668 180.066 110.202 179.833 111.833C179.536 113.914 179.833 114.805 178.948 115.988C178.062 117.171 174.817 116.879 175.716 119.551C176.614 122.223 178.663 124.304 176.007 125.792C173.35 127.281 171.876 129.947 173.35 131.429C174.824 132.912 176.007 134.992 175.716 136.182C175.425 137.372 175.121 140.044 176.304 140.636C177.346 141.243 178.334 141.939 179.258 142.716L180.732 145.967L181.617 148.047C181.617 148.047 183.091 143.295 184.274 142.703C185.457 142.111 184.274 144.784 186.64 144.784C189.006 144.784 191.359 133.497 193.104 133.198C194.849 132.899 200.214 143.002 205.508 143.002C210.802 143.002 217.344 138.328 220.007 138.328C222.67 138.328 220.595 149.608 220.595 151.981C220.595 154.354 221.183 156.727 221.183 157.624C221.183 158.522 224.137 153.463 226.206 152.274C226.775 151.948 227.46 151.552 228.177 151.097C228.177 151.201 228.145 151.259 228.145 151.259C228.145 151.259 235.456 146.578 236.341 145.024C237.227 143.47 236.561 142.124 236.561 140.792C236.561 139.459 237.446 138.341 237.666 136.338C237.886 134.336 236.781 132.522 236.561 130.968Z" fill="#263238" stroke="#263238" stroke-linecap="round" stroke-linejoin="round"/>
<path d="M290.684 246.639H5.88867" stroke="#263238" stroke-linecap="round" stroke-linejoin="round"/>
<path d="M259.722 227.686C259.722 227.686 251.648 224.701 245.843 227.036C240.039 229.37 226.413 234.916 217.137 236.664C208.434 238.215 199.588 238.802 190.758 238.413C182.923 238.121 178.573 239.291 176.834 240.748C175.096 242.204 168.716 250.37 169.291 251.248C169.866 252.125 170.513 252.457 173.357 251.833C174.488 251.579 177.707 248.042 177.707 248.042L183.525 245.442C183.525 245.442 177.436 252.151 178.302 253.023C179.168 253.894 180.622 252.73 181.786 251.859C182.949 250.988 185.263 248.94 185.263 248.94L190.486 246.605C190.486 246.605 184.94 250.37 184.94 252.106C184.94 253.842 186.291 252.821 188.592 251.898C189.683 251.206 190.722 250.434 191.701 249.59L196.065 248.354C198.882 249.832 202.021 250.583 205.198 250.539C208.52 250.525 211.728 249.322 214.248 247.145C214.248 247.145 234.551 250.064 244.699 249.187C254.848 248.309 267.608 249.479 272.83 245.689C278.053 241.898 271.382 231.977 270.801 231.099" fill="#C2A868"/>
<path d="M259.722 227.686C259.722 227.686 251.648 224.701 245.843 227.036C240.039 229.37 226.413 234.916 217.137 236.664C208.434 238.215 199.588 238.802 190.758 238.413C182.923 238.121 178.573 239.291 176.834 240.748C175.096 242.204 168.716 250.37 169.291 251.248C169.866 252.125 170.513 252.457 173.357 251.833C174.488 251.579 177.707 248.042 177.707 248.042L183.525 245.442C183.525 245.442 177.436 252.151 178.302 253.023C179.168 253.894 180.622 252.73 181.786 251.859C182.949 250.988 185.263 248.94 185.263 248.94L190.486 246.605C190.486 246.605 184.94 250.37 184.94 252.106C184.94 253.842 186.291 252.821 188.592 251.898C189.683 251.206 190.722 250.434 191.701 249.59L196.065 248.354C198.882 249.832 202.021 250.583 205.198 250.539C208.52 250.525 211.728 249.322 214.248 247.145C214.248 247.145 234.551 250.064 244.699 249.187C254.848 248.309 267.608 249.479 272.83 245.689C278.053 241.898 271.382 231.977 270.801 231.099" stroke="#263238" stroke-linecap="round" stroke-linejoin="round"/>
<path d="M170.635 252.054C170.635 252.054 171.715 248.927 172.794 247.568C173.874 246.209 178.87 242.952 180.629 242.003C181.326 241.597 182.047 241.234 182.787 240.917" stroke="#263238" stroke-linecap="round" stroke-linejoin="round"/>
<path d="M183.492 245.416L188.592 242.003" stroke="#263238" stroke-linecap="round" stroke-linejoin="round"/>
<path d="M190.454 246.579L195.211 244.174" stroke="#263238" stroke-linecap="round" stroke-linejoin="round"/>
<path d="M259.721 227.686C255.41 226.652 249.321 225.638 245.843 227.035C240.672 229.109 229.373 233.706 220.408 235.936C221.678 237.342 222.413 239.155 222.483 241.053C222.584 243.432 222.26 245.811 221.526 248.075C228.358 248.848 238.442 249.746 244.686 249.206C254.835 248.328 267.595 249.499 272.817 245.708C278.04 241.918 271.369 231.996 270.788 231.118" fill="#337EF0"/>
<path d="M259.721 227.686C255.41 226.652 249.321 225.638 245.843 227.035C240.672 229.109 229.373 233.706 220.408 235.936C221.678 237.342 222.413 239.155 222.483 241.053C222.584 243.432 222.26 245.811 221.526 248.075C228.358 248.848 238.442 249.746 244.686 249.206C254.835 248.328 267.595 249.499 272.817 245.708C278.04 241.918 271.369 231.996 270.788 231.118" stroke="#263238" stroke-linecap="round" stroke-linejoin="round"/>
<path d="M106.597 226.808C107.14 225.332 111.122 221.802 116.48 222.745C121.839 223.687 127.922 229.675 131.399 234.278C134.877 238.882 137.65 240.13 137.65 240.13L133.552 252.724C133.552 252.724 131.031 252.112 126.299 250.903C121.567 249.694 110.98 248.12 106.112 246.599C101.245 245.078 99.1699 239.811 100.23 234.896C100.771 232.164 101.696 229.524 102.977 227.055" fill="#337EF0"/>
<path d="M106.597 226.808C107.14 225.332 111.122 221.802 116.48 222.745C121.839 223.687 127.922 229.675 131.399 234.278C134.877 238.882 137.65 240.13 137.65 240.13L133.552 252.724C133.552 252.724 131.031 252.112 126.299 250.903C121.567 249.694 110.98 248.12 106.112 246.599C101.245 245.078 99.1699 239.811 100.23 234.896C100.771 232.164 101.696 229.524 102.977 227.055" stroke="#263238" stroke-linecap="round" stroke-linejoin="round"/>
<path d="M131.399 234.278C131.03 233.797 130.636 233.303 130.222 232.796C127.191 234.012 123.345 236.255 121.309 240.208C119.273 244.161 119.26 247.425 119.654 249.505C122.24 249.999 124.625 250.467 126.286 250.89C131.018 252.099 133.538 252.71 133.538 252.71L137.637 240.117C137.637 240.117 134.87 238.888 131.399 234.278Z" fill="#C2A868" stroke="#263238" stroke-linecap="round" stroke-linejoin="round"/>
<path d="M129.725 246.58C129.454 248.53 128.859 250.76 131.664 251.996C134.47 253.231 137.262 256.28 139.027 256.995C141.161 257.818 143.392 258.36 145.665 258.608C147.462 258.725 149.679 259.317 153.202 258.328C156.725 257.34 156.628 256.43 156.628 256.43C156.628 256.43 158.826 256.514 159.912 255.975C160.998 255.435 160.235 254.083 158.916 253.55C157.598 253.016 155.982 252.301 155.982 252.301C155.982 252.301 157.985 250.442 157.481 249.98L156.983 249.519C156.983 249.519 159.298 249.792 159.498 249.05C159.698 248.309 158.244 245.032 157.662 242.276C157.08 239.519 155.859 239.89 153.629 239.448C151.399 239.005 148.361 239.571 144.353 238.713C140.345 237.855 134.541 239.298 132.246 239.909" fill="#C2A868"/>
<path d="M129.725 246.58C129.454 248.53 128.859 250.76 131.664 251.996C134.47 253.231 137.262 256.28 139.027 256.995C141.161 257.818 143.392 258.36 145.665 258.608C147.462 258.725 149.679 259.317 153.202 258.328C156.725 257.34 156.628 256.43 156.628 256.43C156.628 256.43 158.826 256.514 159.912 255.975C160.998 255.435 160.235 254.083 158.916 253.55C157.598 253.016 155.982 252.301 155.982 252.301C155.982 252.301 157.985 250.442 157.481 249.98L156.983 249.519C156.983 249.519 159.298 249.792 159.498 249.05C159.698 248.309 158.244 245.032 157.662 242.276C157.08 239.519 155.859 239.89 153.629 239.448C151.399 239.005 148.361 239.571 144.353 238.713C140.345 237.855 134.541 239.298 132.246 239.909" stroke="#263238" stroke-linecap="round" stroke-linejoin="round"/>
<path d="M145.374 227.823L149.033 240.826L151.955 242.224L147.624 227.166C147.578 227.006 147.5 226.858 147.393 226.731C147.286 226.605 147.154 226.502 147.005 226.431C146.855 226.359 146.693 226.321 146.528 226.318C146.362 226.314 146.198 226.347 146.047 226.412C145.782 226.524 145.567 226.729 145.444 226.989C145.32 227.249 145.295 227.546 145.374 227.823Z" fill="#263238"/>
<path d="M147.449 239.831C147.449 239.831 153.849 243.264 154.288 243.439C154.592 243.563 157.442 248.355 158.347 250.656C158.768 251.71 158.296 252.314 157.313 252.86L155.988 252.321L148.031 247.282L145.116 245.884" fill="#C2A868"/>
<path d="M147.449 239.831C147.449 239.831 153.849 243.264 154.288 243.439C154.592 243.563 157.442 248.355 158.347 250.656C158.768 251.71 158.296 252.314 157.313 252.86L155.988 252.321L148.031 247.282L145.116 245.884" stroke="#263238" stroke-linecap="round" stroke-linejoin="round"/>
<path d="M142.982 251.046C142.982 251.046 149.214 254.771 150.526 255.454C151.838 256.137 156.628 256.449 156.628 256.449" stroke="#263238" stroke-linecap="round" stroke-linejoin="round"/>
<path d="M140.649 254.707C140.649 254.707 145.878 257.607 146.906 257.958C147.934 258.309 150.138 258.92 150.138 258.92" stroke="#263238" stroke-linecap="round" stroke-linejoin="round"/>
<path d="M100.159 278.873L124.024 256.793L71.4463 253.38L100.159 278.873Z" fill="#CCCCCC" stroke="#263238" stroke-linecap="round" stroke-linejoin="round"/>
<path d="M99.1507 274.426L109.894 264.186L97.4507 263.432L99.1507 274.426Z" fill="#263238" stroke="#263238" stroke-linecap="round" stroke-linejoin="round"/>
<path d="M25.9787 216.867L104.69 220.372L100.159 278.873L20.7559 275.018L25.9787 216.867Z" fill="#D9D9D9" stroke="#263238" stroke-linecap="round" stroke-linejoin="round"/>
<path d="M21.105 271.123C25.759 270.434 33.6127 268.594 46.8767 264.277C78.4531 253.998 82.4284 225.267 104.69 220.372L25.9788 216.867L21.105 271.123Z" fill="#263238" stroke="#263238" stroke-linecap="round" stroke-linejoin="round"/>
<path d="M62.2029 251.196C65.5372 251.196 68.2402 249.106 68.2402 246.528C68.2402 243.949 65.5372 241.859 62.2029 241.859C58.8685 241.859 56.1655 243.949 56.1655 246.528C56.1655 249.106 58.8685 251.196 62.2029 251.196Z" fill="#D9D9D9" stroke="#263238" stroke-linecap="round" stroke-linejoin="round"/>
</svg>
