<svg width="469" height="392" viewBox="0 0 469 392" fill="none" xmlns="http://www.w3.org/2000/svg">
<path fill-rule="evenodd" clip-rule="evenodd" d="M221.5 264.167C281.331 264.167 329.833 216.858 329.833 158.5C329.833 100.142 281.331 52.8333 221.5 52.8333C161.669 52.8333 113.167 100.142 113.167 158.5C113.167 216.858 161.669 264.167 221.5 264.167ZM221.5 317C311.246 317 384 246.037 384 158.5C384 70.9629 311.246 0 221.5 0C131.754 0 59 70.9629 59 158.5C59 246.037 131.754 317 221.5 317Z" fill="#2E7BEF"/>
<path d="M469 131C469 165.794 440.794 194 406 194C371.206 194 343 165.794 343 131C343 96.2061 371.206 68 406 68C440.794 68 469 96.2061 469 131Z" fill="#F86E45"/>
<path d="M51 39.5C51 53.5833 39.5833 65 25.5 65C11.4167 65 0 53.5833 0 39.5C0 25.4167 11.4167 14 25.5 14C39.5833 14 51 25.4167 51 39.5Z" fill="#F86E45"/>
<path d="M51 77.5C51 91.5833 39.5833 103 25.5 103C11.4167 103 0 91.5833 0 77.5C0 63.4167 11.4167 52 25.5 52C39.5833 52 51 63.4167 51 77.5Z" fill="#2E7BEF"/>
<path d="M223 329C223 363.794 194.794 392 160 392C125.206 392 97 363.794 97 329C97 294.206 125.206 266 160 266C194.794 266 223 294.206 223 329Z" fill="#F86E45"/>
</svg>
