<svg width="507" height="969" viewBox="0 0 507 969" fill="none" xmlns="http://www.w3.org/2000/svg">
<mask id="mask0_859_1262" style="mask-type:alpha" maskUnits="userSpaceOnUse" x="132" y="0" width="375" height="375">
<rect x="132" width="375" height="375" fill="#C4C4C4"/>
</mask>
<g mask="url(#mask0_859_1262)">
<path fill-rule="evenodd" clip-rule="evenodd" d="M444 199.889C526.475 199.889 593.333 129.708 593.333 43.1337C593.333 -43.4401 526.475 -113.622 444 -113.622C361.525 -113.622 294.667 -43.4401 294.667 43.1337C294.667 129.708 361.525 199.889 444 199.889ZM444 278.267C567.712 278.267 668 172.994 668 43.1337C668 -86.7271 567.712 -192 444 -192C320.288 -192 220 -86.7271 220 43.1337C220 172.994 320.288 278.267 444 278.267Z" fill="#E924E8"/>
<path d="M381 269.556C381 305.761 351.003 335.111 314 335.111C276.997 335.111 247 305.761 247 269.556C247 233.35 276.997 204 314 204C351.003 204 381 233.35 381 269.556Z" fill="#D5DA00"/>
</g>
<mask id="mask1_859_1262" style="mask-type:alpha" maskUnits="userSpaceOnUse" x="0" y="0" width="507" height="969">
<rect width="507" height="969" fill="#C4C4C4"/>
</mask>
<g mask="url(#mask1_859_1262)">
<path fill-rule="evenodd" clip-rule="evenodd" d="M225 827.667C307.843 827.667 375 762.002 375 681C375 599.998 307.843 534.333 225 534.333C142.157 534.333 75 599.998 75 681C75 762.002 142.157 827.667 225 827.667ZM225 901C349.264 901 450 802.503 450 681C450 559.497 349.264 461 225 461C100.736 461 0 559.497 0 681C0 802.503 100.736 901 225 901Z" fill="#E924E8"/>
<path fill-rule="evenodd" clip-rule="evenodd" d="M114.62 373.667C155.718 373.667 189.034 341.133 189.034 301C189.034 260.867 155.718 228.333 114.62 228.333C73.5228 228.333 40.2067 260.867 40.2067 301C40.2067 341.133 73.5228 373.667 114.62 373.667ZM114.62 410C176.266 410 226.24 361.199 226.24 301C226.24 240.801 176.266 192 114.62 192C52.9741 192 3 240.801 3 301C3 361.199 52.9741 410 114.62 410Z" fill="#E924E8"/>
<path d="M181 -7.5C181 42.4818 140.482 83 90.5 83C40.5182 83 0 42.4818 0 -7.5C0 -57.4818 40.5182 -98 90.5 -98C140.482 -98 181 -57.4818 181 -7.5Z" fill="#D5DA00"/>
<path d="M218 394C218 411.673 203.673 426 186 426C168.327 426 154 411.673 154 394C154 376.327 168.327 362 186 362C203.673 362 218 376.327 218 394Z" fill="#D5DA00"/>
<path d="M89 196.5C89 213.897 74.897 228 57.5 228C40.103 228 26 213.897 26 196.5C26 179.103 40.103 165 57.5 165C74.897 165 89 179.103 89 196.5Z" fill="#D5DA00"/>
<path d="M553 528C553 586.542 505.542 634 447 634C388.458 634 341 586.542 341 528C341 469.458 388.458 422 447 422C505.542 422 553 469.458 553 528Z" fill="#D5DA00"/>
<path d="M627 990C627 1048.54 579.542 1096 521 1096C462.458 1096 415 1048.54 415 990C415 931.458 462.458 884 521 884C579.542 884 627 931.458 627 990Z" fill="#D5DA00"/>
<path d="M238 943C238 1001.54 190.542 1049 132 1049C73.4578 1049 26 1001.54 26 943C26 884.458 73.4578 837 132 837C190.542 837 238 884.458 238 943Z" fill="#D5DA00"/>
</g>
</svg>
