<svg width="531" height="491" viewBox="0 0 531 491" fill="none" xmlns="http://www.w3.org/2000/svg">
<path fill-rule="evenodd" clip-rule="evenodd" d="M267.667 393.096C350.712 393.096 418.033 327.263 418.033 246.054C418.033 164.845 350.712 99.0128 267.667 99.0128C184.622 99.0128 117.3 164.845 117.3 246.054C117.3 327.263 184.622 393.096 267.667 393.096ZM267.667 466.616C392.234 466.616 493.217 367.867 493.217 246.054C493.217 124.241 392.234 25.4921 267.667 25.4921C143.099 25.4921 42.1172 124.241 42.1172 246.054C42.1172 367.867 143.099 466.616 267.667 466.616Z" fill="#2E7BEF"/>
<path d="M530.901 398.453C530.901 439.771 497.406 473.266 456.087 473.266C414.769 473.266 381.273 439.771 381.273 398.453C381.273 357.134 414.769 323.639 456.087 323.639C497.406 323.639 530.901 357.134 530.901 398.453Z" fill="#FC39FC"/>
<path d="M520.926 95.8724C520.926 111.482 508.273 124.135 492.663 124.135C477.054 124.135 464.4 111.482 464.4 95.8724C464.4 80.2631 477.054 67.6094 492.663 67.6094C508.273 67.6094 520.926 80.2631 520.926 95.8724Z" fill="#2E7BEF"/>
<path d="M324.747 28.263C324.747 43.8722 312.093 56.526 296.484 56.526C280.874 56.526 268.221 43.8722 268.221 28.263C268.221 12.6538 280.874 0 296.484 0C312.093 0 324.747 12.6538 324.747 28.263Z" fill="#FC39FC"/>
<path d="M56.526 366.311C56.526 381.92 43.8722 394.574 28.263 394.574C12.6538 394.574 0 381.92 0 366.311C0 350.701 12.6538 338.048 28.263 338.048C43.8722 338.048 56.526 350.701 56.526 366.311Z" fill="#FC39FC"/>
<path d="M305.906 452.762C305.906 473.88 288.786 491 267.668 491C246.549 491 229.43 473.88 229.43 452.762C229.43 431.644 246.549 414.524 267.668 414.524C288.786 414.524 305.906 431.644 305.906 452.762Z" fill="#FC39FC"/>
<path d="M56.526 409.536C56.526 425.145 43.8722 437.799 28.263 437.799C12.6538 437.799 0 425.145 0 409.536C0 393.927 12.6538 381.273 28.263 381.273C43.8722 381.273 56.526 393.927 56.526 409.536Z" fill="#2E7BEF"/>
<path d="M158.495 101.414C158.495 142.733 124.999 176.228 83.681 176.228C42.3625 176.228 8.86719 142.733 8.86719 101.414C8.86719 60.0957 42.3625 26.6005 83.681 26.6005C124.999 26.6005 158.495 60.0957 158.495 101.414Z" fill="#FC39FC"/>
</svg>
